{"glyphs":{"0":{"ha":833,"x_min":46,"x_max":789,"o":"m 46 435 q 59 626 46 542 q 113 768 72 710 q 226 858 153 826 q 418 889 299 889 q 612 858 539 889 q 724 768 685 826 q 776 625 764 710 q 789 433 789 540 q 776 243 789 328 q 723 100 763 158 q 610 10 683 42 q 418 -21 538 -21 q 226 10 299 -21 q 113 101 153 42 q 59 244 72 160 q 46 435 46 329 m 332 592 l 332 203 l 390 203 q 478 216 453 203 q 503 276 503 229 l 503 665 l 438 665 q 354 653 376 665 q 332 592 332 640 z "},"1":{"ha":833,"x_min":92,"x_max":786,"o":"m 786 222 l 631 222 l 631 868 l 411 868 l 92 796 l 92 574 l 339 590 l 339 222 l 92 222 l 92 0 l 786 0 l 786 222 z "},"2":{"ha":833,"x_min":49,"x_max":775,"o":"m 104 629 l 68 836 q 417 889 246 889 q 563 880 497 889 q 676 842 629 871 q 749 760 724 814 q 775 614 775 706 q 758 498 775 546 q 697 411 742 450 q 574 338 653 372 q 369 261 494 303 l 369 222 l 761 222 l 761 0 l 49 0 l 49 174 q 53 245 49 213 q 72 307 58 278 q 108 363 85 336 q 165 419 131 390 q 210 451 185 436 q 266 481 236 467 q 327 510 296 496 q 386 536 358 524 q 436 559 414 549 q 476 578 458 569 l 476 653 q 416 658 444 656 q 361 660 388 660 q 104 629 231 660 z "},"3":{"ha":833,"x_min":65,"x_max":783,"o":"m 246 535 l 485 563 l 485 653 q 431 658 464 656 q 350 660 397 660 q 118 631 258 660 l 82 836 q 410 889 253 889 q 537 885 474 889 q 650 859 600 881 q 731 793 700 838 q 761 668 761 749 q 646 468 761 529 l 646 461 q 783 254 783 406 q 748 102 783 157 q 654 19 713 47 q 522 -15 596 -8 q 374 -21 449 -21 q 65 15 222 -21 l 104 244 q 328 213 239 213 q 485 221 421 213 l 485 310 l 246 333 l 246 535 z "},"4":{"ha":833,"x_min":22,"x_max":818,"o":"m 728 0 l 728 139 l 818 139 l 818 378 l 728 378 l 728 868 l 236 868 l 22 313 l 22 139 l 450 139 l 450 0 l 728 0 m 450 660 l 450 378 l 313 378 l 436 660 l 450 660 z "},"5":{"ha":833,"x_min":58,"x_max":790,"o":"m 58 15 l 97 244 q 329 213 232 213 q 492 221 428 213 l 492 290 l 388 301 q 244 324 301 310 q 153 360 188 338 q 106 419 119 383 q 92 507 92 454 q 95 604 92 514 q 106 868 99 694 l 738 868 l 717 629 l 388 649 l 388 578 l 469 568 q 622 535 561 557 q 721 478 683 513 q 774 398 758 444 q 790 290 790 351 q 767 143 790 203 q 711 51 743 83 q 644 12 683 26 q 562 -10 606 -3 q 474 -19 518 -18 q 393 -21 429 -21 q 58 15 215 -21 z "},"6":{"ha":833,"x_min":49,"x_max":785,"o":"m 785 278 q 758 127 785 185 q 682 36 731 69 q 565 -9 633 3 q 417 -21 497 -21 q 242 6 313 -21 q 128 88 171 32 q 67 229 85 143 q 49 433 49 315 q 69 640 49 554 q 140 782 90 726 q 274 863 190 838 q 485 889 358 889 q 549 885 511 889 q 624 877 586 882 q 697 866 663 872 q 753 853 732 860 l 711 640 q 601 655 654 650 q 497 660 549 660 q 347 647 396 660 l 347 576 l 417 576 q 565 565 497 576 q 682 519 633 553 q 758 428 731 486 q 785 278 785 371 m 486 247 l 486 357 l 429 357 q 365 347 383 357 q 347 299 347 336 l 347 189 l 404 189 q 468 199 450 189 q 486 247 486 210 z "},"7":{"ha":833,"x_min":82,"x_max":769,"o":"m 769 868 l 82 868 l 103 622 l 436 626 l 188 0 l 501 0 l 769 694 l 769 868 z "},"8":{"ha":833,"x_min":49,"x_max":785,"o":"m 250 868 q 417 889 324 889 q 541 877 481 889 q 649 836 601 865 q 726 759 697 807 q 756 638 756 711 q 663 438 756 506 l 663 428 q 750 350 715 403 q 785 238 785 297 q 417 -21 785 -21 q 49 238 49 -21 q 83 350 49 297 q 171 428 118 403 l 171 438 q 78 638 78 501 q 128 788 78 729 q 250 868 178 846 m 486 247 l 486 279 l 390 325 q 363 333 372 333 q 347 310 347 333 l 347 189 l 404 189 q 468 199 450 189 q 486 247 486 210 m 347 614 l 347 588 l 438 540 q 458 535 447 535 q 486 560 486 535 l 486 672 l 429 672 q 365 662 383 672 q 347 614 347 651 z "},"9":{"ha":833,"x_min":47,"x_max":783,"o":"m 485 221 l 485 301 l 415 303 q 233 324 304 306 q 120 378 161 342 q 63 467 79 414 q 47 590 47 519 q 74 742 47 683 q 150 833 101 800 q 267 877 199 865 q 415 889 335 889 q 590 863 519 889 q 704 781 661 836 q 765 640 747 725 q 783 435 783 554 q 765 229 783 315 q 704 88 746 143 q 594 6 663 32 q 426 -21 526 -21 q 74 15 231 -21 l 113 244 q 332 213 247 213 q 485 221 421 213 m 346 621 l 346 522 l 403 522 q 467 533 449 522 q 485 581 485 543 l 485 679 l 428 679 q 364 669 382 679 q 346 621 346 658 z "},"가":{"ha":1160,"x_min":69,"x_max":1160,"o":"m 1056 1056 l 794 1056 l 794 0 l 1056 0 l 1056 446 l 1160 446 l 1160 654 l 1056 654 l 1056 1056 m 97 42 q 399 139 268 42 q 603 416 531 236 q 676 836 676 596 l 676 1044 l 83 1044 l 83 836 l 415 836 q 360 490 415 621 q 225 304 304 358 q 69 250 146 250 l 97 42 z "},"각":{"ha":1174,"x_min":69,"x_max":1174,"o":"m 808 458 l 1069 458 l 1069 647 l 1174 647 l 1174 857 l 1069 857 l 1069 1056 l 808 1056 l 808 458 m 97 458 q 421 505 293 458 q 619 679 549 551 q 690 1042 690 807 l 97 1042 l 97 836 l 406 836 q 308 712 406 757 q 69 667 211 667 l 97 458 m 125 188 l 808 188 l 808 0 l 1069 0 l 1069 396 l 125 396 l 125 188 z "},"간":{"ha":1174,"x_min":69,"x_max":1174,"o":"m 1069 1056 l 808 1056 l 808 396 l 1069 396 l 1069 633 l 1174 633 l 1174 843 l 1069 843 l 1069 1056 m 97 458 q 421 505 293 458 q 619 679 549 551 q 690 1042 690 807 l 97 1042 l 97 836 l 406 836 q 308 712 406 757 q 69 667 211 667 l 97 458 m 386 208 l 386 396 l 125 396 l 125 0 l 1069 0 l 1069 208 l 386 208 z "},"갇":{"ha":1174,"x_min":69,"x_max":1174,"o":"m 1069 1056 l 808 1056 l 808 486 l 1069 486 l 1069 675 l 1174 675 l 1174 885 l 1069 885 l 1069 1056 m 97 486 q 424 526 299 486 q 619 686 549 565 q 690 1042 690 807 l 97 1042 l 97 836 l 406 836 q 69 694 406 694 l 97 486 m 1072 435 l 125 435 l 125 0 l 1072 0 l 1072 188 l 386 188 l 386 247 l 1072 247 l 1072 435 z "},"갈":{"ha":1174,"x_min":69,"x_max":1174,"o":"m 1069 1056 l 810 1056 l 810 583 l 1069 583 l 1069 733 l 1174 733 l 1174 924 l 1069 924 l 1069 1056 m 97 583 q 433 608 315 583 q 620 731 550 632 q 690 1042 690 829 l 97 1042 l 97 864 l 406 864 q 311 778 406 806 q 69 750 217 750 l 97 583 m 1069 194 l 1069 542 l 125 542 l 125 389 l 810 389 l 810 347 l 125 347 l 125 0 l 1083 0 l 1083 153 l 386 153 l 386 194 l 1069 194 z "},"갉":{"ha":1174,"x_min":69,"x_max":1174,"o":"m 1069 1056 l 810 1056 l 810 583 l 1069 583 l 1069 733 l 1174 733 l 1174 924 l 1069 924 l 1069 1056 m 97 583 q 433 608 315 583 q 620 731 550 632 q 690 1042 690 829 l 97 1042 l 97 864 l 406 864 q 311 778 406 806 q 69 750 217 750 l 97 583 m 590 194 l 590 542 l 125 542 l 125 389 l 365 389 l 365 347 l 125 347 l 125 0 l 604 0 l 604 153 l 351 153 l 351 194 l 590 194 m 638 542 l 638 368 l 813 368 l 813 0 l 1069 0 l 1069 542 l 638 542 z "},"갊":{"ha":1174,"x_min":69,"x_max":1174,"o":"m 1069 1056 l 810 1056 l 810 583 l 1069 583 l 1069 733 l 1174 733 l 1174 924 l 1069 924 l 1069 1056 m 97 583 q 433 608 315 583 q 620 731 550 632 q 690 1042 690 829 l 97 1042 l 97 864 l 406 864 q 311 778 406 806 q 69 750 217 750 l 97 583 m 563 194 l 563 542 l 125 542 l 125 389 l 365 389 l 365 347 l 125 347 l 125 0 l 576 0 l 576 153 l 324 153 l 324 194 l 563 194 m 610 0 l 1074 0 l 1074 542 l 610 542 l 610 0 m 815 153 l 815 389 l 868 389 l 868 153 l 815 153 z "},"감":{"ha":1174,"x_min":69,"x_max":1174,"o":"m 1069 1056 l 808 1056 l 808 486 l 1069 486 l 1069 675 l 1174 675 l 1174 885 l 1069 885 l 1069 1056 m 97 486 q 424 526 299 486 q 619 686 549 565 q 690 1042 690 807 l 97 1042 l 97 836 l 406 836 q 69 694 406 694 l 97 486 m 1072 435 l 125 435 l 125 0 l 1072 0 l 1072 435 m 811 247 l 811 188 l 386 188 l 386 247 l 811 247 z "},"갑":{"ha":1174,"x_min":69,"x_max":1174,"o":"m 1069 1056 l 808 1056 l 808 486 l 1069 486 l 1069 675 l 1174 675 l 1174 885 l 1069 885 l 1069 1056 m 97 486 q 424 526 299 486 q 619 686 549 565 q 690 1042 690 807 l 97 1042 l 97 836 l 406 836 q 69 694 406 694 l 97 486 m 1069 0 l 1069 438 l 810 438 l 810 386 l 386 386 l 386 438 l 125 438 l 125 0 l 1069 0 m 810 219 l 810 167 l 386 167 l 386 219 l 810 219 z "},"값":{"ha":1174,"x_min":69,"x_max":1174,"o":"m 1069 885 l 1174 885 l 1174 675 l 1069 675 l 1069 486 l 808 486 l 808 1056 l 1069 1056 l 1069 885 m 690 1042 q 619 686 690 807 q 424 526 549 565 q 97 486 299 486 l 69 694 q 406 836 406 694 l 97 836 l 97 1042 l 690 1042 m 379 386 l 379 438 l 583 438 l 583 0 l 125 0 l 125 438 l 331 438 l 331 386 l 379 386 m 986 438 q 1024 263 986 318 q 1125 208 1061 208 l 1097 0 q 969 26 1029 0 q 863 101 908 53 q 756 26 817 53 q 628 0 696 0 l 600 208 q 701 263 664 208 q 739 438 739 318 l 986 438 m 379 167 l 379 219 l 331 219 l 331 167 l 379 167 z "},"갓":{"ha":1174,"x_min":69,"x_max":1174,"o":"m 1069 885 l 1174 885 l 1174 675 l 1069 675 l 1069 446 l 808 446 l 808 1056 l 1069 1056 l 1069 885 m 690 1042 q 619 672 690 806 q 418 484 547 538 q 97 431 289 431 l 69 639 q 235 665 158 639 q 359 737 313 692 q 406 836 406 782 l 97 836 l 97 1042 l 690 1042 m 728 418 q 833 260 736 313 q 1083 208 931 208 l 1056 0 q 794 37 911 0 q 597 143 676 74 q 401 37 518 74 q 139 0 283 0 l 111 208 q 361 260 264 208 q 467 418 458 313 l 728 418 z "},"갔":{"ha":1174,"x_min":69,"x_max":1174,"o":"m 1069 857 l 1174 857 l 1174 647 l 1069 647 l 1069 431 l 808 431 l 808 1056 l 1069 1056 l 1069 857 m 69 639 q 235 665 158 639 q 359 737 313 692 q 406 836 406 782 l 97 836 l 97 1042 l 690 1042 q 619 672 690 806 q 418 484 547 538 q 97 431 289 431 l 69 639 m 958 382 q 997 249 958 303 q 1097 194 1036 194 l 1069 0 q 946 23 1006 0 q 838 88 886 46 q 737 23 793 46 q 621 0 681 0 l 597 94 l 574 0 q 458 23 514 0 q 357 88 401 46 q 249 23 308 46 q 125 0 189 0 l 97 194 q 197 249 158 194 q 236 382 236 303 l 483 382 q 515 260 483 311 q 597 197 546 208 q 680 260 649 208 q 711 382 711 311 l 958 382 z "},"강":{"ha":1174,"x_min":69,"x_max":1174,"o":"m 1069 1056 l 808 1056 l 808 486 l 1069 486 l 1069 675 l 1174 675 l 1174 885 l 1069 885 l 1069 1056 m 97 472 q 422 515 296 472 q 619 683 549 558 q 690 1042 690 807 l 97 1042 l 97 836 l 406 836 q 310 719 406 757 q 69 681 215 681 l 97 472 m 1069 214 q 1008 367 1069 307 q 851 428 946 428 l 343 428 q 187 367 249 428 q 125 214 125 307 q 187 60 125 121 q 343 0 249 0 l 851 0 q 1008 60 946 0 q 1069 214 1069 121 m 782 240 q 801 233 793 240 q 808 214 808 225 q 801 195 808 203 q 782 188 793 188 l 413 188 q 394 195 401 188 q 386 214 386 203 q 394 233 386 225 q 413 240 401 240 l 782 240 z "},"갖":{"ha":1174,"x_min":69,"x_max":1174,"o":"m 1069 885 l 1174 885 l 1174 675 l 1069 675 l 1069 486 l 808 486 l 808 1056 l 1069 1056 l 1069 885 m 690 1042 q 619 686 690 807 q 424 526 549 565 q 97 486 299 486 l 69 694 q 406 836 406 694 l 97 836 l 97 1042 l 690 1042 m 779 254 q 896 195 822 210 q 1083 181 969 181 l 1056 0 q 597 115 744 0 q 139 0 450 0 l 111 181 q 299 195 225 181 q 415 254 372 210 l 125 254 l 125 428 l 1069 428 l 1069 254 l 779 254 z "},"갗":{"ha":1174,"x_min":69,"x_max":1174,"o":"m 1069 896 l 1174 896 l 1174 706 l 1069 706 l 1069 528 l 810 528 l 810 1056 l 1069 1056 l 1069 896 m 690 1042 q 619 715 690 828 q 423 565 549 603 q 97 528 297 528 l 69 694 q 234 719 157 694 q 358 783 311 744 q 406 864 406 822 l 97 864 l 97 1042 l 690 1042 m 779 254 q 896 195 822 210 q 1083 181 969 181 l 1056 0 q 597 115 744 0 q 139 0 450 0 l 111 181 q 299 195 225 181 q 415 254 372 210 l 125 254 l 125 428 l 453 428 l 453 528 l 742 528 l 742 428 l 1069 428 l 1069 254 l 779 254 z "},"같":{"ha":1174,"x_min":69,"x_max":1174,"o":"m 1069 1056 l 810 1056 l 810 583 l 1069 583 l 1069 733 l 1174 733 l 1174 924 l 1069 924 l 1069 1056 m 97 583 q 433 608 315 583 q 620 731 550 632 q 690 1042 690 829 l 97 1042 l 97 864 l 406 864 q 311 778 406 806 q 69 750 217 750 l 97 583 m 125 547 l 125 0 l 1069 0 l 1069 150 l 386 150 l 386 201 l 1056 201 l 1056 344 l 386 344 l 386 397 l 1069 397 l 1069 547 l 125 547 z "},"갚":{"ha":1174,"x_min":69,"x_max":1174,"o":"m 1069 1056 l 808 1056 l 808 486 l 1069 486 l 1069 675 l 1174 675 l 1174 885 l 1069 885 l 1069 1056 m 97 486 q 424 526 299 486 q 619 686 549 565 q 690 1042 690 807 l 97 1042 l 97 836 l 406 836 q 69 694 406 694 l 97 486 m 1072 428 l 125 428 l 125 240 l 261 240 l 267 188 l 125 188 l 125 0 l 1072 0 l 1072 188 l 931 188 l 936 240 l 1072 240 l 1072 428 m 528 188 l 522 240 l 675 240 l 669 188 l 528 188 z "},"갛":{"ha":1174,"x_min":69,"x_max":1174,"o":"m 1069 917 l 1174 917 l 1174 726 l 1069 726 l 1069 583 l 810 583 l 810 1056 l 1069 1056 l 1069 917 m 690 1042 q 619 748 690 847 q 424 616 549 649 q 97 583 299 583 l 69 750 q 311 778 217 750 q 406 864 406 806 l 97 864 l 97 1042 l 690 1042 m 742 583 l 742 535 l 1069 535 l 1069 375 l 125 375 l 125 535 l 453 535 l 453 583 l 742 583 m 838 333 q 997 293 938 333 q 1056 167 1056 253 q 997 40 1056 81 q 838 0 938 0 l 357 0 q 198 40 257 0 q 139 167 139 81 q 198 293 139 253 q 357 333 257 333 l 838 333 m 810 146 q 828 151 821 146 q 836 167 836 157 q 828 182 836 176 q 810 188 821 188 l 385 188 q 366 182 374 188 q 358 167 358 176 q 366 151 358 157 q 385 146 374 146 l 810 146 z "},"개":{"ha":1181,"x_min":69,"x_max":1097,"o":"m 850 1056 l 1097 1056 l 1097 0 l 850 0 l 850 431 l 807 431 l 807 14 l 560 14 l 560 1056 l 807 1056 l 807 639 l 850 639 l 850 1056 m 97 1042 l 503 1042 l 503 793 q 125 42 503 125 l 69 250 q 211 421 165 293 q 257 793 257 549 l 257 833 l 97 833 l 97 1042 z "},"객":{"ha":1181,"x_min":69,"x_max":1097,"o":"m 850 1056 l 1097 1056 l 1097 444 l 850 444 l 850 653 l 807 653 l 807 444 l 560 444 l 560 1056 l 807 1056 l 807 861 l 850 861 l 850 1056 m 503 885 q 448 647 503 746 q 301 496 393 547 q 97 444 208 444 l 69 653 q 194 702 146 653 q 243 833 243 751 l 97 833 l 97 1042 l 503 1042 l 503 885 m 153 188 l 153 396 l 1097 396 l 1097 0 l 836 0 l 836 188 l 153 188 z "},"갠":{"ha":1181,"x_min":69,"x_max":1097,"o":"m 850 1056 l 1097 1056 l 1097 368 l 850 368 l 850 625 l 807 625 l 807 396 l 560 396 l 560 1056 l 807 1056 l 807 833 l 850 833 l 850 1056 m 503 885 q 448 647 503 746 q 301 496 393 547 q 97 444 208 444 l 69 653 q 194 702 146 653 q 243 833 243 751 l 97 833 l 97 1042 l 503 1042 l 503 885 m 414 396 l 414 208 l 1097 208 l 1097 0 l 153 0 l 153 396 l 414 396 z "},"갤":{"ha":1194,"x_min":69,"x_max":1111,"o":"m 807 736 l 807 583 l 560 583 l 560 1056 l 807 1056 l 807 917 l 850 917 l 850 1056 l 1097 1056 l 1097 583 l 850 583 l 850 736 l 807 736 m 503 1024 q 97 583 503 583 l 69 750 q 183 783 131 750 q 236 875 236 817 l 97 875 l 97 1042 l 503 1042 l 503 1024 m 414 153 l 1111 153 l 1111 0 l 153 0 l 153 347 l 838 347 l 838 389 l 153 389 l 153 542 l 1097 542 l 1097 194 l 414 194 l 414 153 z "},"갬":{"ha":1183,"x_min":69,"x_max":1100,"o":"m 807 681 l 807 486 l 560 486 l 560 1056 l 807 1056 l 807 889 l 850 889 l 850 1056 l 1097 1056 l 1097 486 l 850 486 l 850 681 l 807 681 m 503 885 q 449 663 503 753 q 302 530 394 574 q 97 486 210 486 l 69 694 q 196 729 149 694 q 243 833 243 764 l 97 833 l 97 1042 l 503 1042 l 503 885 m 153 435 l 1100 435 l 1100 0 l 153 0 l 153 435 m 839 188 l 839 247 l 414 247 l 414 188 l 839 188 z "},"갭":{"ha":1181,"x_min":69,"x_max":1097,"o":"m 850 1056 l 1097 1056 l 1097 486 l 850 486 l 850 681 l 807 681 l 807 486 l 560 486 l 560 1056 l 807 1056 l 807 889 l 850 889 l 850 1056 m 503 885 q 449 663 503 753 q 302 530 394 574 q 97 486 210 486 l 69 694 q 196 729 149 694 q 243 833 243 764 l 97 833 l 97 1042 l 503 1042 l 503 885 m 838 386 l 838 438 l 1097 438 l 1097 0 l 153 0 l 153 438 l 414 438 l 414 386 l 838 386 m 838 167 l 838 219 l 414 219 l 414 167 l 838 167 z "},"갯":{"ha":1194,"x_min":69,"x_max":1111,"o":"m 558 472 l 806 472 l 806 667 l 850 667 l 850 424 l 1097 424 l 1097 1056 l 850 1056 l 850 875 l 806 875 l 806 1056 l 558 1056 l 558 472 m 97 417 q 310 476 218 417 q 453 642 403 536 q 503 885 503 749 l 503 1042 l 97 1042 l 97 833 l 243 833 q 218 732 243 781 q 153 654 193 683 q 69 625 113 625 l 97 417 m 167 0 q 428 37 311 0 q 625 143 546 74 q 822 37 704 74 q 1083 0 939 0 l 1111 208 q 861 260 958 208 q 756 418 764 313 l 494 418 q 389 260 486 313 q 139 208 292 208 l 167 0 z "},"갰":{"ha":1208,"x_min":69,"x_max":1125,"o":"m 558 417 l 806 417 l 806 625 l 850 625 l 850 417 l 1097 417 l 1097 1056 l 850 1056 l 850 833 l 806 833 l 806 1056 l 558 1056 l 558 417 m 97 403 q 301 459 208 403 q 448 624 393 515 q 503 885 503 732 l 503 1042 l 97 1042 l 97 833 l 243 833 q 195 672 243 732 q 69 611 147 611 l 97 403 m 153 0 q 383 75 292 0 q 601 0 471 0 l 625 94 l 649 0 q 867 75 779 0 q 1097 0 958 0 l 1125 194 q 1024 242 1063 194 q 986 368 986 290 l 739 368 q 708 253 739 299 q 625 197 678 207 q 542 253 572 207 q 511 368 511 299 l 264 368 q 226 242 264 290 q 125 194 188 194 l 153 0 z "},"갱":{"ha":1181,"x_min":69,"x_max":1097,"o":"m 850 1056 l 1097 1056 l 1097 472 l 850 472 l 850 653 l 806 653 l 806 472 l 558 472 l 558 1056 l 806 1056 l 806 861 l 850 861 l 850 1056 m 503 885 q 448 637 503 739 q 301 483 393 535 q 97 431 208 431 l 69 639 q 195 691 147 639 q 243 833 243 743 l 97 833 l 97 1042 l 503 1042 l 503 885 m 879 428 q 1035 367 974 428 q 1097 214 1097 307 q 1035 60 1097 121 q 879 0 974 0 l 371 0 q 215 60 276 0 q 153 214 153 121 q 215 367 153 307 q 371 428 276 428 l 879 428 m 810 188 q 828 195 821 188 q 836 214 836 203 q 828 233 836 225 q 810 240 821 240 l 440 240 q 422 233 429 240 q 414 214 414 225 q 422 195 414 203 q 440 188 429 188 l 810 188 z "},"갸":{"ha":1160,"x_min":69,"x_max":1160,"o":"m 1056 1056 l 796 1056 l 796 0 l 1056 0 l 1056 222 l 1160 222 l 1160 431 l 1056 431 l 1056 639 l 1160 639 l 1160 847 l 1056 847 l 1056 1056 m 97 42 q 399 139 268 42 q 603 416 531 236 q 676 836 676 596 l 676 1044 l 83 1044 l 83 836 l 415 836 q 360 490 415 621 q 225 304 304 358 q 69 250 146 250 l 97 42 z "},"갹":{"ha":1172,"x_min":69,"x_max":1172,"o":"m 808 458 l 1068 458 l 1068 532 l 1172 532 l 1172 726 l 1068 726 l 1068 786 l 1172 786 l 1172 981 l 1068 981 l 1068 1056 l 808 1056 l 808 458 m 97 458 q 421 505 293 458 q 619 679 549 551 q 690 1042 690 807 l 97 1042 l 97 836 l 406 836 q 308 712 406 757 q 69 667 211 667 l 97 458 m 125 188 l 808 188 l 808 0 l 1069 0 l 1069 396 l 125 396 l 125 188 z "},"갼":{"ha":1172,"x_min":69,"x_max":1172,"o":"m 1068 1056 l 808 1056 l 808 396 l 1068 396 l 1068 497 l 1172 497 l 1172 692 l 1068 692 l 1068 765 l 1172 765 l 1172 960 l 1068 960 l 1068 1056 m 97 458 q 421 505 293 458 q 619 679 549 551 q 690 1042 690 807 l 97 1042 l 97 836 l 406 836 q 308 712 406 757 q 69 667 211 667 l 97 458 m 386 208 l 386 396 l 125 396 l 125 0 l 1069 0 l 1069 208 l 386 208 z "},"걀":{"ha":1181,"x_min":69,"x_max":1181,"o":"m 1076 1056 l 817 1056 l 817 583 l 1069 583 l 1069 647 l 1181 647 l 1181 796 l 1076 796 l 1076 850 l 1181 850 l 1181 999 l 1076 999 l 1076 1056 m 97 583 q 433 608 315 583 q 620 731 550 632 q 690 1042 690 829 l 97 1042 l 97 864 l 406 864 q 311 778 406 806 q 69 750 217 750 l 97 583 m 1069 194 l 1069 542 l 125 542 l 125 389 l 810 389 l 810 347 l 125 347 l 125 0 l 1083 0 l 1083 153 l 386 153 l 386 194 l 1069 194 z "},"걋":{"ha":1172,"x_min":69,"x_max":1172,"o":"m 1172 779 l 1068 779 l 1068 706 l 1172 706 l 1172 525 l 1068 525 l 1068 438 l 808 438 l 808 1056 l 1068 1056 l 1068 960 l 1172 960 l 1172 779 m 690 1042 q 619 672 690 806 q 418 484 547 538 q 97 431 289 431 l 69 639 q 235 665 158 639 q 359 737 313 692 q 406 836 406 782 l 97 836 l 97 1042 l 690 1042 m 728 418 q 833 260 736 313 q 1083 208 931 208 l 1056 0 q 794 37 911 0 q 597 143 676 74 q 401 37 518 74 q 139 0 283 0 l 111 208 q 361 260 264 208 q 467 418 458 313 l 728 418 z "},"걍":{"ha":1172,"x_min":69,"x_max":1172,"o":"m 1068 1056 l 808 1056 l 808 486 l 1068 486 l 1068 560 l 1172 560 l 1172 740 l 1068 740 l 1068 800 l 1172 800 l 1172 981 l 1068 981 l 1068 1056 m 97 472 q 422 515 296 472 q 619 683 549 558 q 690 1042 690 807 l 97 1042 l 97 836 l 406 836 q 310 719 406 757 q 69 681 215 681 l 97 472 m 1069 214 q 1008 367 1069 307 q 851 428 946 428 l 343 428 q 187 367 249 428 q 125 214 125 307 q 187 60 125 121 q 343 0 249 0 l 851 0 q 1008 60 946 0 q 1069 214 1069 121 m 782 240 q 801 233 793 240 q 808 214 808 225 q 801 195 808 203 q 782 188 793 188 l 413 188 q 394 195 401 188 q 386 214 386 203 q 394 233 386 225 q 413 240 401 240 l 782 240 z "},"걔":{"ha":1181,"x_min":69,"x_max":1097,"o":"m 850 1056 l 1097 1056 l 1097 0 l 850 0 l 850 222 l 806 222 l 806 14 l 558 14 l 558 1056 l 806 1056 l 806 847 l 850 847 l 850 1056 m 97 1042 l 503 1042 l 503 793 q 125 42 503 125 l 69 250 q 211 421 165 293 q 257 793 257 549 l 257 833 l 97 833 l 97 1042 m 806 431 l 850 431 l 850 639 l 806 639 l 806 431 z "},"걘":{"ha":1181,"x_min":69,"x_max":1097,"o":"m 850 1056 l 1097 1056 l 1097 326 l 850 326 l 850 483 l 806 483 l 806 368 l 560 368 l 560 1056 l 806 1056 l 806 946 l 850 946 l 850 1056 m 503 885 q 449 625 503 726 q 303 477 394 524 q 97 431 213 431 l 69 639 q 198 683 153 639 q 243 833 243 726 l 97 833 l 97 1042 l 503 1042 l 503 885 m 806 664 l 850 664 l 850 765 l 806 765 l 806 664 m 414 368 l 414 208 l 1097 208 l 1097 0 l 153 0 l 153 368 l 414 368 z "},"걜":{"ha":1194,"x_min":69,"x_max":1111,"o":"m 804 657 l 804 583 l 558 583 l 558 1056 l 804 1056 l 804 981 l 850 981 l 850 1056 l 1097 1056 l 1097 583 l 850 583 l 850 657 l 804 657 m 503 1024 q 97 583 503 583 l 69 750 q 183 783 131 750 q 236 875 236 817 l 97 875 l 97 1042 l 503 1042 l 503 1024 m 804 856 l 804 782 l 850 782 l 850 856 l 804 856 m 414 153 l 1111 153 l 1111 0 l 153 0 l 153 347 l 838 347 l 838 389 l 153 389 l 153 542 l 1097 542 l 1097 194 l 414 194 l 414 153 z "},"거":{"ha":1139,"x_min":69,"x_max":1056,"o":"m 1056 1058 l 1056 0 l 794 0 l 794 446 l 649 446 l 649 564 q 535 284 613 401 q 345 104 457 167 q 97 42 233 42 l 69 250 q 225 304 146 250 q 360 490 304 358 q 415 836 415 621 l 83 836 l 83 1044 l 676 1044 l 676 836 q 664 654 676 740 l 794 654 l 794 1058 l 1056 1058 z "},"걱":{"ha":1153,"x_min":69,"x_max":1069,"o":"m 1069 1056 l 1069 458 l 808 458 l 808 647 l 649 647 l 649 747 q 531 570 608 633 q 349 483 454 507 q 97 458 243 458 l 69 667 q 308 712 211 667 q 406 836 406 757 l 97 836 l 97 1042 l 690 1042 q 676 857 690 935 l 808 857 l 808 1056 l 1069 1056 m 125 188 l 125 396 l 1069 396 l 1069 0 l 808 0 l 808 188 l 125 188 z "},"건":{"ha":1153,"x_min":69,"x_max":1069,"o":"m 1069 1056 l 1069 368 l 808 368 l 808 619 l 635 619 l 635 711 q 439 513 571 568 q 97 458 307 458 l 69 667 q 308 712 211 667 q 406 836 406 757 l 97 836 l 97 1042 l 690 1042 q 671 829 690 924 l 808 829 l 808 1056 l 1069 1056 m 386 396 l 386 208 l 1069 208 l 1069 0 l 125 0 l 125 396 l 386 396 z "},"걷":{"ha":1156,"x_min":69,"x_max":1072,"o":"m 663 794 q 551 601 628 668 q 365 510 475 533 q 97 486 256 486 l 69 694 q 406 836 406 694 l 97 836 l 97 1042 l 690 1042 q 678 871 690 946 l 808 871 l 808 1056 l 1069 1056 l 1069 486 l 808 486 l 808 661 l 663 661 l 663 794 m 1072 247 l 386 247 l 386 188 l 1072 188 l 1072 0 l 125 0 l 125 435 l 1072 435 l 1072 247 z "},"걸":{"ha":1167,"x_min":69,"x_max":1083,"o":"m 664 825 q 555 662 631 714 q 376 597 479 610 q 97 583 274 583 l 69 750 q 311 778 217 750 q 406 864 406 806 l 97 864 l 97 1042 l 690 1042 q 682 910 690 968 l 810 910 l 810 1056 l 1069 1056 l 1069 581 l 810 581 l 810 719 l 664 719 l 664 825 m 386 153 l 1083 153 l 1083 0 l 125 0 l 125 347 l 810 347 l 810 389 l 125 389 l 125 542 l 1069 542 l 1069 194 l 386 194 l 386 153 z "},"걺":{"ha":1157,"x_min":69,"x_max":1074,"o":"m 1074 1056 l 1074 581 l 814 581 l 814 719 l 668 719 l 668 840 q 560 667 636 722 q 381 597 485 611 q 97 583 278 583 l 69 750 q 311 778 217 750 q 406 864 406 806 l 97 864 l 97 1042 l 690 1042 q 679 896 690 965 l 814 896 l 814 1056 l 1074 1056 m 324 194 l 324 153 l 576 153 l 576 0 l 125 0 l 125 347 l 365 347 l 365 389 l 125 389 l 125 542 l 563 542 l 563 194 l 324 194 m 610 0 l 610 542 l 1074 542 l 1074 0 l 610 0 m 815 389 l 815 153 l 868 153 l 868 389 l 815 389 z "},"검":{"ha":1156,"x_min":69,"x_max":1072,"o":"m 1072 1056 l 1072 486 l 811 486 l 811 661 l 651 661 l 651 758 q 536 588 613 647 q 354 507 460 528 q 97 486 249 486 l 69 694 q 406 836 406 694 l 97 836 l 97 1042 l 690 1042 q 678 871 690 946 l 811 871 l 811 1056 l 1072 1056 m 125 0 l 125 435 l 1072 435 l 1072 0 l 125 0 m 386 247 l 386 188 l 811 188 l 811 247 l 386 247 z "},"겁":{"ha":1153,"x_min":69,"x_max":1069,"o":"m 1069 1056 l 1069 486 l 808 486 l 808 661 l 649 661 l 649 751 q 532 584 608 642 q 351 506 456 526 q 97 486 247 486 l 69 694 q 406 836 406 694 l 97 836 l 97 1042 l 690 1042 q 678 871 690 946 l 808 871 l 808 1056 l 1069 1056 m 810 386 l 810 438 l 1069 438 l 1069 0 l 125 0 l 125 438 l 386 438 l 386 386 l 810 386 m 810 167 l 810 219 l 386 219 l 386 167 l 810 167 z "},"것":{"ha":1167,"x_min":69,"x_max":1083,"o":"m 651 750 q 456 502 594 574 q 97 431 318 431 l 69 639 q 235 665 158 639 q 359 737 313 692 q 406 836 406 782 l 97 836 l 97 1042 l 690 1042 q 676 857 690 935 l 811 857 l 811 1056 l 1072 1056 l 1072 432 l 811 432 l 811 647 l 651 647 l 651 750 m 1056 0 q 794 37 911 0 q 597 143 676 74 q 401 37 518 74 q 139 0 283 0 l 111 208 q 361 260 264 208 q 467 418 458 313 l 728 418 q 833 260 736 313 q 1083 208 931 208 l 1056 0 z "},"겄":{"ha":1181,"x_min":69,"x_max":1097,"o":"m 69 639 q 235 665 158 639 q 359 737 313 692 q 406 836 406 782 l 97 836 l 97 1042 l 690 1042 q 674 843 690 931 l 811 843 l 811 1056 l 1072 1056 l 1072 431 l 811 431 l 811 633 l 651 633 l 651 750 q 456 502 594 574 q 97 431 318 431 l 69 639 m 1069 0 q 839 78 932 0 q 621 0 750 0 l 597 94 l 574 0 q 356 78 444 0 q 125 0 263 0 l 97 194 q 197 249 158 194 q 236 382 236 303 l 483 382 q 515 260 483 311 q 597 197 546 208 q 680 260 649 208 q 711 382 711 311 l 958 382 q 997 249 958 303 q 1097 194 1036 194 l 1069 0 z "},"겅":{"ha":1156,"x_min":69,"x_max":1072,"o":"m 1072 1056 l 1072 472 l 811 472 l 811 661 l 651 661 l 651 754 q 535 573 613 638 q 351 483 458 508 q 97 458 244 458 l 69 667 q 308 712 211 667 q 406 836 406 757 l 97 836 l 97 1042 l 690 1042 q 679 871 690 953 l 811 871 l 811 1056 l 1072 1056 m 851 428 q 1008 367 946 428 q 1069 214 1069 307 q 1008 60 1069 121 q 851 0 946 0 l 343 0 q 187 60 249 0 q 125 214 125 121 q 187 367 125 307 q 343 428 249 428 l 851 428 m 782 188 q 801 195 793 188 q 808 214 808 203 q 801 233 808 225 q 782 240 793 240 l 413 240 q 394 233 401 240 q 386 214 386 225 q 394 195 386 203 q 413 188 401 188 l 782 188 z "},"겆":{"ha":1167,"x_min":69,"x_max":1083,"o":"m 663 794 q 551 601 628 668 q 365 510 475 533 q 97 486 256 486 l 69 694 q 406 836 406 694 l 97 836 l 97 1042 l 690 1042 q 678 871 690 946 l 808 871 l 808 1056 l 1069 1056 l 1069 486 l 808 486 l 808 661 l 663 661 l 663 794 m 1056 0 q 597 119 747 0 q 139 0 449 0 l 111 181 q 299 197 224 181 q 417 261 374 214 l 125 261 l 125 435 l 1069 435 l 1069 261 l 778 261 q 896 197 821 214 q 1083 181 971 181 l 1056 0 z "},"겉":{"ha":1156,"x_min":69,"x_max":1072,"o":"m 1072 1056 l 1072 594 l 813 594 l 813 733 l 667 733 l 667 835 q 559 665 635 719 q 380 597 483 611 q 97 583 276 583 l 69 750 q 311 778 217 750 q 406 864 406 806 l 97 864 l 97 1042 l 690 1042 q 682 910 690 968 l 813 910 l 813 1056 l 1072 1056 m 125 0 l 125 547 l 1069 547 l 1069 397 l 386 397 l 386 344 l 1056 344 l 1056 201 l 386 201 l 386 150 l 1069 150 l 1069 0 l 125 0 z "},"겊":{"ha":1156,"x_min":69,"x_max":1072,"o":"m 1072 1056 l 1072 479 l 811 479 l 811 661 l 651 661 l 651 758 q 536 588 613 647 q 354 507 460 528 q 97 486 249 486 l 69 694 q 406 836 406 694 l 97 836 l 97 1042 l 690 1042 q 678 871 690 946 l 811 871 l 811 1056 l 1072 1056 m 125 240 l 125 428 l 1072 428 l 1072 240 l 936 240 l 931 188 l 1072 188 l 1072 0 l 125 0 l 125 188 l 267 188 l 261 240 l 125 240 m 675 240 l 522 240 l 528 188 l 669 188 l 675 240 z "},"겋":{"ha":1156,"x_min":69,"x_max":1072,"o":"m 1072 1056 l 1072 583 l 813 583 l 813 733 l 653 733 l 653 811 q 538 667 614 717 q 356 600 461 617 q 97 583 250 583 l 69 750 q 311 778 217 750 q 406 864 406 806 l 97 864 l 97 1042 l 690 1042 q 681 910 690 964 l 813 910 l 813 1056 l 1072 1056 m 742 583 l 742 535 l 1069 535 l 1069 375 l 125 375 l 125 535 l 453 535 l 453 583 l 742 583 m 838 333 q 997 293 938 333 q 1056 167 1056 253 q 997 40 1056 81 q 838 0 938 0 l 357 0 q 198 40 257 0 q 139 167 139 81 q 198 293 139 253 q 357 333 257 333 l 838 333 m 810 146 q 828 151 821 146 q 836 167 836 157 q 828 182 836 176 q 810 188 821 188 l 385 188 q 366 182 374 188 q 358 167 358 176 q 366 151 358 157 q 385 146 374 146 l 810 146 z "},"게":{"ha":1181,"x_min":69,"x_max":1097,"o":"m 558 1056 l 806 1056 l 806 14 l 558 14 l 558 444 l 486 444 l 486 539 q 125 42 424 108 l 69 250 q 211 421 165 293 q 257 793 257 549 l 257 833 l 97 833 l 97 1042 l 503 1042 l 503 793 q 499 653 503 718 l 558 653 l 558 1056 m 850 1056 l 1097 1056 l 1097 0 l 850 0 l 850 1056 z "},"겐":{"ha":1181,"x_min":69,"x_max":1097,"o":"m 489 760 q 408 586 465 661 q 269 471 350 511 q 97 431 189 431 l 69 639 q 158 667 118 639 q 220 740 197 694 q 243 833 243 785 l 97 833 l 97 1042 l 503 1042 l 503 885 q 501 847 503 860 l 558 847 l 558 1056 l 806 1056 l 806 382 l 558 382 l 558 639 l 489 639 l 489 760 m 850 1056 l 1097 1056 l 1097 340 l 850 340 l 850 1056 m 414 382 l 414 208 l 1097 208 l 1097 0 l 153 0 l 153 382 l 414 382 z "},"겔":{"ha":1194,"x_min":69,"x_max":1111,"o":"m 479 838 q 97 583 404 583 l 69 750 q 183 783 131 750 q 236 875 236 817 l 97 875 l 97 1042 l 503 1042 l 503 1024 q 492 889 503 956 l 558 889 l 558 1056 l 806 1056 l 806 583 l 558 583 l 558 722 l 479 722 l 479 838 m 1097 1056 l 1097 583 l 850 583 l 850 1056 l 1097 1056 m 414 153 l 1111 153 l 1111 0 l 153 0 l 153 347 l 838 347 l 838 389 l 153 389 l 153 542 l 1097 542 l 1097 194 l 414 194 l 414 153 z "},"겜":{"ha":1183,"x_min":69,"x_max":1100,"o":"m 496 797 q 360 565 469 644 q 97 486 250 486 l 69 694 q 196 729 149 694 q 243 833 243 764 l 97 833 l 97 1042 l 503 1042 l 503 885 l 503 875 l 558 875 l 558 1056 l 806 1056 l 806 486 l 558 486 l 558 667 l 496 667 l 496 797 m 1097 1056 l 1097 486 l 850 486 l 850 1056 l 1097 1056 m 153 435 l 1100 435 l 1100 0 l 153 0 l 153 435 m 839 188 l 839 247 l 414 247 l 414 188 l 839 188 z "},"겝":{"ha":1181,"x_min":69,"x_max":1097,"o":"m 496 797 q 360 565 469 644 q 97 486 250 486 l 69 694 q 196 729 149 694 q 243 833 243 764 l 97 833 l 97 1042 l 503 1042 l 503 885 l 503 875 l 558 875 l 558 1056 l 806 1056 l 806 486 l 558 486 l 558 667 l 496 667 l 496 797 m 850 1056 l 1097 1056 l 1097 486 l 850 486 l 850 1056 m 838 386 l 838 438 l 1097 438 l 1097 0 l 153 0 l 153 438 l 414 438 l 414 386 l 838 386 m 838 167 l 838 219 l 414 219 l 414 167 l 838 167 z "},"겟":{"ha":1194,"x_min":69,"x_max":1111,"o":"m 489 758 q 408 574 465 656 q 269 448 350 493 q 97 403 188 403 l 69 611 q 158 646 118 611 q 220 733 197 681 q 243 833 243 785 l 97 833 l 97 1042 l 503 1042 l 503 885 l 503 875 l 558 875 l 558 1056 l 806 1056 l 806 472 l 558 472 l 558 667 l 489 667 l 489 758 m 1097 1056 l 1097 424 l 850 424 l 850 1056 l 1097 1056 m 1083 0 q 822 37 939 0 q 625 143 704 74 q 428 37 546 74 q 167 0 311 0 l 139 208 q 389 260 292 208 q 494 418 486 313 l 756 418 q 861 260 764 313 q 1111 208 958 208 l 1083 0 z "},"겠":{"ha":1208,"x_min":69,"x_max":1125,"o":"m 475 708 q 326 487 431 571 q 97 403 222 403 l 69 611 q 158 646 118 611 q 220 733 197 681 q 243 833 243 785 l 97 833 l 97 1042 l 503 1042 l 503 885 q 500 833 503 867 l 558 833 l 558 1056 l 806 1056 l 806 417 l 558 417 l 558 625 l 475 625 l 475 708 m 1097 1056 l 1097 417 l 850 417 l 850 1056 l 1097 1056 m 1097 0 q 864 76 960 0 q 766 19 821 39 q 649 0 711 0 l 625 94 l 601 0 q 484 19 539 0 q 386 76 429 39 q 153 0 290 0 l 125 194 q 226 242 188 194 q 264 368 264 290 l 511 368 q 542 253 511 299 q 625 197 572 207 q 708 253 678 207 q 739 368 739 299 l 986 368 q 1024 242 986 290 q 1125 194 1063 194 l 1097 0 z "},"겡":{"ha":1181,"x_min":69,"x_max":1097,"o":"m 496 789 q 421 593 478 674 q 280 472 364 513 q 97 431 196 431 l 69 639 q 195 691 147 639 q 243 833 243 743 l 97 833 l 97 1042 l 503 1042 l 503 885 l 503 861 l 558 861 l 558 1056 l 806 1056 l 806 472 l 558 472 l 558 653 l 496 653 l 496 789 m 850 1056 l 1097 1056 l 1097 472 l 850 472 l 850 1056 m 879 428 q 1035 367 974 428 q 1097 214 1097 307 q 1035 60 1097 121 q 879 0 974 0 l 371 0 q 215 60 276 0 q 153 214 153 121 q 215 367 153 307 q 371 428 276 428 l 879 428 m 810 188 q 828 195 821 188 q 836 214 836 203 q 828 233 836 225 q 810 240 821 240 l 440 240 q 422 233 429 240 q 414 214 414 225 q 422 195 414 203 q 440 188 429 188 l 810 188 z "},"겨":{"ha":1139,"x_min":69,"x_max":1056,"o":"m 1056 1058 l 794 1058 l 794 849 l 690 849 l 690 640 l 794 640 l 794 432 l 690 432 l 690 222 l 794 222 l 794 0 l 1056 0 l 1056 1058 m 97 42 q 399 139 268 42 q 603 416 531 236 q 676 836 676 596 l 676 1044 l 83 1044 l 83 836 l 415 836 q 360 490 415 621 q 225 304 304 358 q 69 250 146 250 l 97 42 z "},"격":{"ha":1153,"x_min":69,"x_max":1069,"o":"m 1069 1056 l 1069 458 l 810 458 l 810 546 l 678 546 l 678 726 l 810 726 l 810 786 l 678 786 l 678 865 q 576 615 653 704 q 382 492 499 525 q 97 458 265 458 l 69 667 q 308 712 211 667 q 406 836 406 757 l 97 836 l 97 1042 l 690 1042 q 689 967 690 990 l 810 967 l 810 1056 l 1069 1056 m 125 188 l 125 396 l 1069 396 l 1069 0 l 808 0 l 808 188 l 125 188 z "},"겪":{"ha":1153,"x_min":69,"x_max":1069,"o":"m 1069 1056 l 1069 458 l 810 458 l 810 546 l 678 546 l 678 726 l 810 726 l 810 786 l 678 786 l 678 865 q 576 615 653 704 q 382 492 499 525 q 97 458 265 458 l 69 667 q 308 712 211 667 q 406 836 406 757 l 97 836 l 97 1042 l 690 1042 q 689 967 690 990 l 810 967 l 810 1056 l 1069 1056 m 125 188 l 125 396 l 569 396 l 569 0 l 308 0 l 308 188 l 125 188 m 625 188 l 625 396 l 1069 396 l 1069 0 l 808 0 l 808 188 l 625 188 z "},"견":{"ha":1153,"x_min":69,"x_max":1069,"o":"m 1069 1056 l 1069 368 l 810 368 l 810 497 l 678 497 l 678 678 l 810 678 l 810 765 l 678 765 l 678 865 q 576 615 653 704 q 382 492 499 525 q 97 458 265 458 l 69 667 q 308 712 211 667 q 406 836 406 757 l 97 836 l 97 1042 l 690 1042 q 688 946 690 1007 l 810 946 l 810 1056 l 1069 1056 m 386 396 l 386 208 l 1069 208 l 1069 0 l 125 0 l 125 396 l 386 396 z "},"겯":{"ha":1156,"x_min":69,"x_max":1072,"o":"m 676 858 q 574 622 650 703 q 383 514 497 542 q 97 486 269 486 l 69 694 q 406 836 406 694 l 97 836 l 97 1042 l 690 1042 q 689 974 690 996 l 808 974 l 808 1056 l 1068 1056 l 1068 479 l 808 479 l 808 546 l 676 546 l 676 726 l 808 726 l 808 793 l 676 793 l 676 858 m 1072 240 l 386 240 l 386 188 l 1072 188 l 1072 0 l 125 0 l 125 428 l 1072 428 l 1072 240 z "},"결":{"ha":1167,"x_min":69,"x_max":1083,"o":"m 678 885 q 578 681 653 746 q 394 599 503 615 q 97 583 286 583 l 69 750 q 311 778 217 750 q 406 864 406 806 l 97 864 l 97 1042 l 690 1042 q 689 990 690 1007 l 810 990 l 810 1056 l 1069 1056 l 1069 583 l 817 583 l 817 639 l 678 639 l 678 788 l 810 788 l 810 842 l 678 842 l 678 885 m 386 153 l 1083 153 l 1083 0 l 125 0 l 125 347 l 810 347 l 810 389 l 125 389 l 125 542 l 1069 542 l 1069 194 l 386 194 l 386 153 z "},"겸":{"ha":1153,"x_min":69,"x_max":1069,"o":"m 1069 1056 l 1069 486 l 810 486 l 810 553 l 676 553 l 676 733 l 810 733 l 810 793 l 676 793 l 676 858 q 574 622 650 703 q 383 514 497 542 q 97 486 269 486 l 69 694 q 406 836 406 694 l 97 836 l 97 1042 l 690 1042 q 689 974 690 996 l 810 974 l 810 1056 l 1069 1056 m 125 0 l 125 428 l 1069 428 l 1069 0 l 125 0 m 386 240 l 386 188 l 808 188 l 808 240 l 386 240 z "},"겹":{"ha":1153,"x_min":69,"x_max":1069,"o":"m 1069 1056 l 1069 486 l 810 486 l 810 553 l 676 553 l 676 733 l 810 733 l 810 793 l 676 793 l 676 858 q 574 622 650 703 q 383 514 497 542 q 97 486 269 486 l 69 694 q 406 836 406 694 l 97 836 l 97 1042 l 690 1042 q 689 974 690 996 l 810 974 l 810 1056 l 1069 1056 m 810 386 l 810 438 l 1069 438 l 1069 0 l 125 0 l 125 438 l 386 438 l 386 386 l 810 386 m 810 167 l 810 219 l 386 219 l 386 167 l 810 167 z "},"겻":{"ha":1167,"x_min":69,"x_max":1083,"o":"m 681 883 q 582 610 658 710 q 385 471 506 511 q 97 431 265 431 l 69 639 q 235 665 158 639 q 359 737 313 692 q 406 836 406 782 l 97 836 l 97 1042 l 690 1042 q 688 960 690 1013 l 813 960 l 813 1056 l 1072 1056 l 1072 431 l 813 431 l 813 525 l 681 525 l 681 706 l 813 706 l 813 779 l 681 779 l 681 883 m 1056 0 q 794 37 911 0 q 597 143 676 74 q 401 37 518 74 q 139 0 283 0 l 111 208 q 361 260 264 208 q 467 418 458 313 l 728 418 q 833 260 736 313 q 1083 208 931 208 l 1056 0 z "},"겼":{"ha":1181,"x_min":69,"x_max":1097,"o":"m 69 639 q 235 665 158 639 q 359 737 313 692 q 406 836 406 782 l 97 836 l 97 1042 l 690 1042 q 689 974 690 996 l 813 974 l 813 1056 l 1072 1056 l 1072 438 l 813 438 l 813 511 l 681 511 l 681 706 l 813 706 l 813 779 l 681 779 l 681 883 q 582 610 658 710 q 385 471 506 511 q 97 431 265 431 l 69 639 m 1069 0 q 839 78 932 0 q 621 0 750 0 l 597 94 l 574 0 q 356 78 444 0 q 125 0 263 0 l 97 194 q 197 249 158 194 q 236 382 236 303 l 483 382 q 515 260 483 311 q 597 197 546 208 q 680 260 649 208 q 711 382 711 311 l 958 382 q 997 249 958 303 q 1097 194 1036 194 l 1069 0 z "},"경":{"ha":1153,"x_min":69,"x_max":1069,"o":"m 1069 1056 l 1069 472 l 810 472 l 810 553 l 678 553 l 678 733 l 810 733 l 810 793 l 678 793 l 678 865 q 576 615 653 704 q 382 492 499 525 q 97 458 265 458 l 69 667 q 308 712 211 667 q 406 836 406 757 l 97 836 l 97 1042 l 690 1042 q 689 974 690 996 l 810 974 l 810 1056 l 1069 1056 m 851 428 q 1008 367 946 428 q 1069 214 1069 307 q 1008 60 1069 121 q 851 0 946 0 l 343 0 q 187 60 249 0 q 125 214 125 121 q 187 367 125 307 q 343 428 249 428 l 851 428 m 782 188 q 801 195 793 188 q 808 214 808 203 q 801 233 808 225 q 782 240 793 240 l 413 240 q 394 233 401 240 q 386 214 386 225 q 394 195 386 203 q 413 188 401 188 l 782 188 z "},"곁":{"ha":1153,"x_min":69,"x_max":1069,"o":"m 1069 1056 l 1069 583 l 817 583 l 817 639 l 678 639 l 678 788 l 810 788 l 810 842 l 678 842 l 678 885 q 578 681 653 746 q 394 599 503 615 q 97 583 286 583 l 69 750 q 311 778 217 750 q 406 864 406 806 l 97 864 l 97 1042 l 690 1042 q 689 990 690 1007 l 810 990 l 810 1056 l 1069 1056 m 125 0 l 125 547 l 1069 547 l 1069 397 l 386 397 l 386 344 l 1056 344 l 1056 201 l 386 201 l 386 150 l 1069 150 l 1069 0 l 125 0 z "},"계":{"ha":1181,"x_min":69,"x_max":1097,"o":"m 558 1056 l 806 1056 l 806 14 l 558 14 l 558 222 l 449 222 l 449 371 q 125 42 360 93 l 69 250 q 211 421 165 293 q 257 793 257 549 l 257 833 l 97 833 l 97 1042 l 503 1042 l 503 847 l 558 847 l 558 1056 m 850 1056 l 1097 1056 l 1097 0 l 850 0 l 850 1056 m 558 639 l 497 639 q 465 431 489 524 l 558 431 l 558 639 z "},"곈":{"ha":1181,"x_min":69,"x_max":1097,"o":"m 433 624 q 289 481 378 532 q 97 431 200 431 l 69 639 q 158 667 118 639 q 220 740 197 694 q 243 833 243 785 l 97 833 l 97 1042 l 503 1042 l 503 946 l 560 946 l 560 1056 l 806 1056 l 806 382 l 560 382 l 560 511 l 433 511 l 433 624 m 850 1056 l 1097 1056 l 1097 340 l 850 340 l 850 1056 m 560 765 l 490 765 q 468 692 485 739 l 560 692 l 560 765 m 414 382 l 414 208 l 1097 208 l 1097 0 l 153 0 l 153 382 l 414 382 z "},"곌":{"ha":1181,"x_min":69,"x_max":1097,"o":"m 435 753 q 97 583 346 583 l 69 750 q 176 783 129 750 q 222 875 222 815 l 97 875 l 97 1042 l 489 1042 l 489 1024 q 488 983 489 996 l 546 983 l 546 1056 l 792 1056 l 792 583 l 553 583 l 553 660 l 435 660 l 435 753 m 1083 1056 l 1083 583 l 836 583 l 836 1056 l 1083 1056 m 546 849 l 471 849 l 454 794 l 546 794 l 546 849 m 400 153 l 1097 153 l 1097 0 l 139 0 l 139 347 l 824 347 l 824 389 l 139 389 l 139 542 l 1083 542 l 1083 194 l 400 194 l 400 153 z "},"곕":{"ha":1181,"x_min":69,"x_max":1097,"o":"m 447 661 q 303 531 396 575 q 97 486 211 486 l 69 694 q 196 729 149 694 q 243 833 243 764 l 97 833 l 97 1042 l 503 1042 l 503 974 l 560 974 l 560 1056 l 806 1056 l 806 486 l 560 486 l 560 553 l 447 553 l 447 661 m 850 1056 l 1097 1056 l 1097 486 l 850 486 l 850 1056 m 560 793 l 494 793 q 481 733 492 772 l 560 733 l 560 793 m 838 386 l 838 438 l 1097 438 l 1097 0 l 153 0 l 153 438 l 414 438 l 414 386 l 838 386 m 838 167 l 838 219 l 414 219 l 414 167 l 838 167 z "},"곗":{"ha":1194,"x_min":69,"x_max":1111,"o":"m 447 640 q 300 467 394 531 q 97 403 206 403 l 69 611 q 158 646 118 611 q 220 733 197 681 q 243 833 243 785 l 97 833 l 97 1042 l 503 1042 l 503 974 l 560 974 l 560 1056 l 806 1056 l 806 472 l 560 472 l 560 553 l 447 553 l 447 640 m 1097 1056 l 1097 424 l 850 424 l 850 1056 l 1097 1056 m 560 793 l 496 793 q 482 733 489 756 l 560 733 l 560 793 m 1083 0 q 822 37 939 0 q 625 143 704 74 q 428 37 546 74 q 167 0 311 0 l 139 208 q 389 260 292 208 q 494 418 486 313 l 756 418 q 861 260 764 313 q 1111 208 958 208 l 1083 0 z "},"고":{"ha":1167,"x_min":83,"x_max":1083,"o":"m 794 833 l 794 417 l 1042 417 l 1056 1042 l 111 1042 l 111 833 l 794 833 m 613 250 l 613 625 l 351 625 l 351 250 l 83 250 l 83 42 l 1083 42 l 1083 250 l 613 250 z "},"곡":{"ha":1167,"x_min":83,"x_max":1083,"o":"m 794 833 l 794 690 l 1056 690 l 1056 1042 l 111 1042 l 111 833 l 794 833 m 668 621 l 668 757 l 407 757 l 407 621 l 83 621 l 83 413 l 1083 413 l 1083 621 l 668 621 m 1056 0 l 1056 340 l 111 340 l 111 132 l 794 132 l 794 0 l 1056 0 z "},"곤":{"ha":1167,"x_min":83,"x_max":1083,"o":"m 781 833 l 781 690 l 1042 690 l 1056 1042 l 111 1042 l 111 833 l 781 833 m 668 621 l 668 757 l 407 757 l 407 621 l 83 621 l 83 413 l 1083 413 l 1083 621 l 668 621 m 111 340 l 111 0 l 1056 0 l 1056 208 l 372 208 l 372 340 l 111 340 z "},"곧":{"ha":1165,"x_min":83,"x_max":1082,"o":"m 794 846 l 794 753 l 1040 753 l 1054 1040 l 111 1040 l 111 846 l 794 846 m 667 693 l 667 781 l 407 781 l 407 693 l 83 693 l 83 500 l 1082 500 l 1082 693 l 667 693 m 111 438 l 111 0 l 1054 0 l 1054 194 l 371 194 l 371 246 l 1054 246 l 1054 438 l 111 438 z "},"골":{"ha":1167,"x_min":83,"x_max":1083,"o":"m 781 875 l 781 781 l 1042 781 l 1056 1042 l 111 1042 l 111 875 l 781 875 m 83 583 l 1083 583 l 1083 739 l 668 739 l 668 819 l 407 819 l 407 739 l 83 739 l 83 583 m 1056 194 l 1056 542 l 111 542 l 111 389 l 796 389 l 796 347 l 111 347 l 111 0 l 1069 0 l 1069 153 l 358 153 l 358 194 l 1056 194 z "},"곪":{"ha":1167,"x_min":83,"x_max":1083,"o":"m 781 875 l 781 781 l 1042 781 l 1056 1042 l 111 1042 l 111 875 l 781 875 m 83 583 l 1083 583 l 1083 739 l 668 739 l 668 819 l 407 819 l 407 739 l 83 739 l 83 583 m 569 194 l 569 542 l 111 542 l 111 389 l 338 389 l 338 347 l 111 347 l 111 0 l 583 0 l 583 153 l 344 153 l 344 194 l 569 194 m 1056 542 l 611 542 l 611 0 l 1057 0 l 1056 542 m 864 389 l 864 153 l 806 153 l 806 389 l 864 389 z "},"곬":{"ha":1181,"x_min":83,"x_max":1097,"o":"m 781 781 l 781 875 l 111 875 l 111 1042 l 1056 1042 l 1042 781 l 781 781 m 1083 739 l 1083 583 l 83 583 l 83 739 l 407 739 l 407 819 l 668 819 l 668 739 l 1083 739 m 111 389 l 111 542 l 569 542 l 569 194 l 344 194 l 344 153 l 569 153 l 569 0 l 111 0 l 111 347 l 338 347 l 338 389 l 111 389 m 958 542 q 973 311 958 389 q 1017 207 988 233 q 1097 181 1046 181 l 1069 0 q 842 96 925 0 q 614 0 758 0 l 586 181 q 667 207 638 181 q 710 311 696 233 q 725 542 725 389 l 958 542 z "},"곯":{"ha":1167,"x_min":83,"x_max":1083,"o":"m 794 781 l 794 875 l 111 875 l 111 1042 l 1056 1042 l 1042 781 l 794 781 m 668 739 l 1083 739 l 1083 583 l 83 583 l 83 739 l 407 739 l 407 819 l 668 819 l 668 739 m 961 549 l 961 500 l 1069 500 l 1069 340 l 592 340 l 592 500 l 700 500 l 700 549 l 961 549 m 344 194 l 344 153 l 569 153 l 569 0 l 111 0 l 111 347 l 338 347 l 338 389 l 111 389 l 111 542 l 549 542 l 549 194 l 344 194 m 844 319 q 1004 281 946 319 q 1063 160 1063 242 q 1004 39 1063 78 q 844 0 946 0 l 817 0 q 657 39 715 0 q 599 160 599 78 q 657 281 599 242 q 817 319 715 319 l 844 319 m 831 136 q 853 143 844 136 q 863 160 863 150 q 853 178 863 171 q 831 185 844 185 q 808 178 817 185 q 800 160 800 171 q 808 142 800 149 q 831 136 817 136 z "},"곰":{"ha":1167,"x_min":83,"x_max":1083,"o":"m 796 846 l 796 753 l 1042 753 l 1056 1040 l 111 1040 l 111 846 l 796 846 m 668 693 l 668 781 l 408 781 l 408 693 l 83 693 l 83 500 l 1083 500 l 1083 693 l 668 693 m 1056 435 l 111 435 l 111 0 l 1056 0 l 1056 435 m 794 247 l 794 188 l 372 188 l 372 247 l 794 247 z "},"곱":{"ha":1167,"x_min":83,"x_max":1083,"o":"m 796 846 l 796 753 l 1042 753 l 1056 1040 l 111 1040 l 111 846 l 796 846 m 668 693 l 668 781 l 408 781 l 408 693 l 83 693 l 83 500 l 1083 500 l 1083 693 l 668 693 m 1056 0 l 1056 444 l 796 444 l 796 386 l 372 386 l 372 444 l 111 444 l 111 0 l 1056 0 m 796 219 l 796 167 l 372 167 l 372 219 l 796 219 z "},"곳":{"ha":1167,"x_min":83,"x_max":1083,"o":"m 794 690 l 794 833 l 111 833 l 111 1042 l 1056 1042 l 1042 690 l 794 690 m 668 621 l 1083 621 l 1083 413 l 83 413 l 83 621 l 407 621 l 407 757 l 668 757 l 668 621 m 714 363 q 765 258 719 292 q 881 217 811 225 q 1069 208 951 208 l 1042 0 q 583 110 733 0 q 125 0 433 0 l 97 208 q 285 217 215 208 q 401 258 356 225 q 453 363 447 292 l 714 363 z "},"공":{"ha":1167,"x_min":83,"x_max":1083,"o":"m 796 846 l 796 753 l 1042 753 l 1056 1040 l 111 1040 l 111 846 l 796 846 m 668 686 l 668 781 l 408 781 l 408 686 l 83 686 l 83 493 l 1083 493 l 1083 686 l 668 686 m 1056 214 q 994 367 1056 307 q 838 428 932 428 l 329 428 q 173 367 235 428 q 111 214 111 307 q 173 60 111 121 q 329 0 235 0 l 838 0 q 994 60 932 0 q 1056 214 1056 121 m 768 240 q 787 233 779 240 q 794 214 794 225 q 787 195 794 203 q 768 188 779 188 l 399 188 q 380 195 388 188 q 372 214 372 203 q 380 233 372 225 q 399 240 388 240 l 768 240 z "},"곶":{"ha":1167,"x_min":83,"x_max":1083,"o":"m 796 753 l 796 846 l 111 846 l 111 1040 l 1056 1040 l 1042 753 l 796 753 m 668 686 l 1083 686 l 1083 493 l 83 493 l 83 686 l 408 686 l 408 781 l 668 781 l 668 686 m 765 254 q 882 195 808 210 q 1069 181 956 181 l 1042 0 q 583 115 731 0 q 125 0 436 0 l 97 181 q 285 195 211 181 q 401 254 358 210 l 111 254 l 111 428 l 1056 428 l 1056 254 l 765 254 z "},"과":{"ha":1160,"x_min":83,"x_max":1160,"o":"m 1056 1056 l 794 1056 l 794 0 l 1056 0 l 1056 432 l 1160 432 l 1160 640 l 1056 640 l 1056 1056 m 464 832 l 464 432 l 697 432 l 711 1042 l 111 1042 l 111 832 l 464 832 m 401 639 l 154 639 l 154 250 l 83 250 l 83 42 l 753 42 l 753 250 l 401 250 l 401 639 z "},"곽":{"ha":1160,"x_min":83,"x_max":1160,"o":"m 1056 1056 l 796 1056 l 796 410 l 1056 410 l 1056 625 l 1160 625 l 1160 833 l 1056 833 l 1056 1056 m 467 833 l 467 685 l 699 685 l 713 1042 l 111 1042 l 111 833 l 467 833 m 400 764 l 167 764 l 167 629 l 83 629 l 83 424 l 754 424 l 754 629 l 400 629 l 400 764 m 111 160 l 794 160 l 794 0 l 1056 0 l 1056 368 l 111 368 l 111 160 z "},"관":{"ha":1160,"x_min":83,"x_max":1160,"o":"m 1056 1056 l 796 1056 l 796 340 l 1056 340 l 1056 597 l 1160 597 l 1160 806 l 1056 806 l 1056 1056 m 467 833 l 467 685 l 699 685 l 713 1042 l 111 1042 l 111 833 l 467 833 m 400 764 l 167 764 l 167 629 l 83 629 l 83 424 l 754 424 l 754 629 l 400 629 l 400 764 m 1056 208 l 372 208 l 372 368 l 111 368 l 111 0 l 1056 0 l 1056 208 z "},"괄":{"ha":1160,"x_min":83,"x_max":1160,"o":"m 1056 1056 l 796 1056 l 796 583 l 1056 583 l 1056 719 l 1160 719 l 1160 910 l 1056 910 l 1056 1056 m 467 889 l 467 781 l 699 781 l 713 1042 l 111 1042 l 111 889 l 467 889 m 83 583 l 754 583 l 754 739 l 400 739 l 400 833 l 167 833 l 167 739 l 83 739 l 83 583 m 1056 194 l 1056 542 l 111 542 l 111 389 l 796 389 l 796 347 l 111 347 l 111 0 l 1069 0 l 1069 153 l 372 153 l 372 194 l 1056 194 z "},"괆":{"ha":1160,"x_min":83,"x_max":1160,"o":"m 1056 1056 l 796 1056 l 796 583 l 1056 583 l 1056 719 l 1160 719 l 1160 910 l 1056 910 l 1056 1056 m 467 889 l 467 781 l 699 781 l 713 1042 l 111 1042 l 111 889 l 467 889 m 83 583 l 754 583 l 754 739 l 400 739 l 400 833 l 167 833 l 167 739 l 83 739 l 83 583 m 556 194 l 556 542 l 111 542 l 111 389 l 338 389 l 338 347 l 111 347 l 111 0 l 569 0 l 569 153 l 331 153 l 331 194 l 556 194 m 1056 542 l 611 542 l 611 0 l 1056 0 l 1056 542 m 861 368 l 861 174 l 806 174 l 806 368 l 861 368 z "},"괌":{"ha":1160,"x_min":83,"x_max":1160,"o":"m 1056 1056 l 796 1056 l 796 451 l 1056 451 l 1056 646 l 1160 646 l 1160 854 l 1056 854 l 1056 1056 m 467 847 l 467 699 l 699 699 l 713 1042 l 111 1042 l 111 847 l 467 847 m 400 778 l 167 778 l 167 643 l 83 643 l 83 451 l 754 451 l 754 643 l 400 643 l 400 778 m 1056 407 l 111 407 l 111 0 l 1056 0 l 1056 407 m 794 233 l 794 174 l 372 174 l 372 233 l 794 233 z "},"괍":{"ha":1160,"x_min":83,"x_max":1160,"o":"m 1056 1056 l 796 1056 l 796 451 l 1056 451 l 1056 646 l 1160 646 l 1160 854 l 1056 854 l 1056 1056 m 467 847 l 467 713 l 699 713 l 713 1042 l 111 1042 l 111 847 l 467 847 m 400 792 l 167 792 l 167 657 l 83 657 l 83 465 l 754 465 l 754 657 l 400 657 l 400 792 m 1056 0 l 1056 417 l 796 417 l 796 358 l 372 358 l 372 417 l 111 417 l 111 0 l 1056 0 m 796 206 l 796 153 l 372 153 l 372 206 l 796 206 z "},"괏":{"ha":1160,"x_min":83,"x_max":1160,"o":"m 1056 819 l 1160 819 l 1160 611 l 1056 611 l 1056 363 l 796 363 l 796 1056 l 1056 1056 l 1056 819 m 467 678 l 467 833 l 111 833 l 111 1042 l 713 1042 l 699 678 l 467 678 m 754 622 l 754 417 l 83 417 l 83 622 l 167 622 l 167 778 l 400 778 l 400 622 l 754 622 m 714 363 q 765 258 719 292 q 881 217 811 225 q 1069 208 951 208 l 1042 0 q 583 110 733 0 q 125 0 433 0 l 97 208 q 285 217 215 208 q 401 258 356 225 q 453 363 447 292 l 714 363 z "},"광":{"ha":1160,"x_min":83,"x_max":1160,"o":"m 1056 1056 l 796 1056 l 796 438 l 1056 438 l 1056 646 l 1160 646 l 1160 854 l 1056 854 l 1056 1056 m 467 847 l 467 699 l 699 699 l 713 1042 l 111 1042 l 111 847 l 467 847 m 400 778 l 167 778 l 167 643 l 83 643 l 83 451 l 754 451 l 754 643 l 400 643 l 400 778 m 1056 200 q 994 346 1056 292 q 838 400 933 400 l 329 400 q 172 346 233 400 q 111 200 111 292 q 172 54 111 108 q 329 0 233 0 l 838 0 q 994 54 933 0 q 1056 200 1056 108 m 768 226 q 787 219 779 226 q 794 200 794 211 q 787 181 794 189 q 768 174 779 174 l 399 174 q 380 181 388 174 q 372 200 372 189 q 380 219 372 211 q 399 226 388 226 l 768 226 z "},"괘":{"ha":1185,"x_min":83,"x_max":1101,"o":"m 1101 1056 l 889 1056 l 889 625 l 847 625 l 847 1056 l 635 1056 l 635 14 l 847 14 l 847 444 l 889 444 l 889 0 l 1101 0 l 1101 1056 m 583 1042 l 111 1042 l 111 861 l 385 861 l 385 444 l 569 444 l 583 1042 m 343 625 l 158 625 l 158 236 l 83 236 l 83 42 l 593 42 l 593 236 l 343 236 l 343 625 z "},"괜":{"ha":1185,"x_min":83,"x_max":1101,"o":"m 1101 1056 l 882 1056 l 882 801 l 840 801 l 840 1056 l 621 1056 l 621 354 l 840 354 l 840 607 l 882 607 l 882 326 l 1101 326 l 1101 1056 m 379 847 l 379 671 l 556 671 l 569 1042 l 111 1042 l 111 847 l 379 847 m 331 767 l 153 767 l 153 615 l 83 615 l 83 424 l 579 424 l 579 615 l 331 615 l 331 767 m 1101 208 l 418 208 l 418 368 l 157 368 l 157 0 l 1101 0 l 1101 208 z "},"괠":{"ha":1208,"x_min":83,"x_max":1125,"o":"m 1111 1057 l 892 1057 l 892 907 l 847 907 l 847 1057 l 628 1057 l 628 586 l 846 586 l 846 731 l 892 731 l 892 586 l 1110 586 l 1111 1057 m 379 889 l 379 804 l 556 804 l 569 1042 l 111 1042 l 111 889 l 379 889 m 83 593 l 586 593 l 586 749 l 324 749 l 324 847 l 146 847 l 146 749 l 83 749 l 83 593 m 1111 194 l 1111 542 l 167 542 l 167 389 l 851 389 l 851 347 l 167 347 l 167 0 l 1125 0 l 1125 153 l 428 153 l 428 194 l 1111 194 z "},"괩":{"ha":1194,"x_min":83,"x_max":1111,"o":"m 1111 1056 l 892 1056 l 892 857 l 847 857 l 847 1056 l 628 1056 l 628 465 l 847 465 l 847 663 l 892 663 l 892 465 l 1111 465 l 1111 1056 m 379 840 l 379 706 l 556 706 l 569 1042 l 111 1042 l 111 840 l 379 840 m 338 785 l 160 785 l 160 650 l 83 650 l 83 465 l 586 465 l 586 650 l 338 650 l 338 785 m 1111 0 l 1111 417 l 851 417 l 851 358 l 428 358 l 428 417 l 167 417 l 167 0 l 1111 0 m 851 206 l 851 153 l 428 153 l 428 206 l 851 206 z "},"괬":{"ha":1208,"x_min":83,"x_max":1125,"o":"m 847 635 l 847 410 l 628 410 l 628 1056 l 847 1056 l 847 829 l 892 829 l 892 1056 l 1111 1056 l 1111 410 l 892 410 l 892 635 l 847 635 m 379 657 l 379 854 l 111 854 l 111 1042 l 569 1042 l 556 657 l 379 657 m 586 608 l 586 424 l 83 424 l 83 608 l 153 608 l 153 767 l 331 767 l 331 608 l 586 608 m 1097 0 q 864 76 960 0 q 766 19 821 39 q 649 0 711 0 l 625 94 l 601 0 q 484 19 539 0 q 386 76 429 39 q 153 0 290 0 l 125 194 q 226 242 188 194 q 264 368 264 290 l 511 368 q 542 253 511 299 q 625 197 572 207 q 708 253 678 207 q 739 368 739 299 l 986 368 q 1024 242 986 290 q 1125 194 1063 194 l 1097 0 z "},"괭":{"ha":1194,"x_min":83,"x_max":1111,"o":"m 1111 1056 l 892 1056 l 892 857 l 847 857 l 847 1056 l 628 1056 l 628 465 l 847 465 l 847 663 l 892 663 l 892 465 l 1111 465 l 1111 1056 m 379 840 l 379 706 l 556 706 l 569 1042 l 111 1042 l 111 840 l 379 840 m 338 785 l 160 785 l 160 650 l 83 650 l 83 465 l 586 465 l 586 650 l 338 650 l 338 785 m 1111 214 q 1051 369 1111 310 q 893 428 990 428 l 385 428 q 227 369 288 428 q 167 214 167 310 q 227 59 167 118 q 385 0 288 0 l 893 0 q 1051 59 990 0 q 1111 214 1111 118 m 824 240 q 842 233 835 240 q 850 214 850 225 q 842 195 850 203 q 824 188 835 188 l 454 188 q 435 195 443 188 q 428 214 428 203 q 435 233 428 225 q 454 240 443 240 l 824 240 z "},"괴":{"ha":1139,"x_min":83,"x_max":1056,"o":"m 1056 1056 l 794 1056 l 794 0 l 1056 0 l 1056 1056 m 464 832 l 464 432 l 697 432 l 711 1042 l 111 1042 l 111 832 l 464 832 m 401 640 l 168 640 l 168 250 l 83 250 l 83 42 l 753 42 l 753 250 l 401 250 l 401 640 z "},"괵":{"ha":1139,"x_min":83,"x_max":1056,"o":"m 1056 1056 l 796 1056 l 796 410 l 1056 410 l 1056 1056 m 467 833 l 467 685 l 699 685 l 713 1042 l 111 1042 l 111 833 l 467 833 m 400 778 l 167 778 l 167 629 l 83 629 l 83 424 l 754 424 l 754 629 l 400 629 l 400 778 m 111 160 l 794 160 l 794 0 l 1056 0 l 1056 368 l 111 368 l 111 160 z "},"괸":{"ha":1139,"x_min":83,"x_max":1056,"o":"m 1056 1056 l 796 1056 l 796 326 l 1056 326 l 1056 1056 m 467 833 l 467 685 l 699 685 l 713 1042 l 111 1042 l 111 833 l 467 833 m 400 778 l 167 778 l 167 629 l 83 629 l 83 424 l 754 424 l 754 629 l 400 629 l 400 778 m 1056 208 l 372 208 l 372 368 l 111 368 l 111 0 l 1056 0 l 1056 208 z "},"괼":{"ha":1153,"x_min":83,"x_max":1069,"o":"m 1056 1056 l 796 1056 l 796 583 l 1056 583 l 1056 1056 m 467 889 l 467 781 l 699 781 l 713 1042 l 111 1042 l 111 889 l 467 889 m 83 583 l 754 583 l 754 739 l 400 739 l 400 847 l 167 847 l 167 739 l 83 739 l 83 583 m 1056 194 l 1056 542 l 111 542 l 111 389 l 796 389 l 796 347 l 111 347 l 111 0 l 1069 0 l 1069 153 l 372 153 l 372 194 l 1056 194 z "},"굄":{"ha":1139,"x_min":83,"x_max":1056,"o":"m 1056 1056 l 796 1056 l 796 451 l 1056 451 l 1056 1056 m 467 847 l 467 713 l 699 713 l 713 1042 l 111 1042 l 111 847 l 467 847 m 400 792 l 167 792 l 167 657 l 83 657 l 83 465 l 754 465 l 754 657 l 400 657 l 400 792 m 1056 407 l 111 407 l 111 0 l 1056 0 l 1056 407 m 794 233 l 794 174 l 372 174 l 372 233 l 794 233 z "},"굅":{"ha":1139,"x_min":83,"x_max":1056,"o":"m 1056 1056 l 796 1056 l 796 451 l 1056 451 l 1056 1056 m 467 847 l 467 713 l 699 713 l 713 1042 l 111 1042 l 111 847 l 467 847 m 400 792 l 167 792 l 167 657 l 83 657 l 83 465 l 754 465 l 754 657 l 400 657 l 400 792 m 1056 0 l 1056 417 l 796 417 l 796 358 l 372 358 l 372 417 l 111 417 l 111 0 l 1056 0 m 796 206 l 796 153 l 372 153 l 372 206 l 796 206 z "},"굇":{"ha":1153,"x_min":83,"x_max":1069,"o":"m 1056 1056 l 1056 363 l 796 363 l 796 1056 l 1056 1056 m 467 685 l 467 833 l 111 833 l 111 1042 l 713 1042 l 699 685 l 467 685 m 754 629 l 754 424 l 83 424 l 83 629 l 167 629 l 167 778 l 400 778 l 400 629 l 754 629 m 1042 0 q 583 110 733 0 q 125 0 433 0 l 97 208 q 285 217 215 208 q 401 258 356 225 q 453 363 447 292 l 714 363 q 765 258 719 292 q 881 217 811 225 q 1069 208 951 208 l 1042 0 z "},"굉":{"ha":1139,"x_min":83,"x_max":1056,"o":"m 1056 1056 l 796 1056 l 796 444 l 1056 444 l 1056 1056 m 467 847 l 467 699 l 699 699 l 713 1042 l 111 1042 l 111 847 l 467 847 m 400 792 l 167 792 l 167 643 l 83 643 l 83 451 l 754 451 l 754 643 l 400 643 l 400 792 m 1056 200 q 994 346 1056 292 q 838 400 933 400 l 329 400 q 172 346 233 400 q 111 200 111 292 q 172 54 111 108 q 329 0 233 0 l 838 0 q 994 54 933 0 q 1056 200 1056 108 m 768 226 q 787 219 779 226 q 794 200 794 211 q 787 181 794 189 q 768 174 779 174 l 399 174 q 380 181 388 174 q 372 200 372 189 q 380 219 372 211 q 399 226 388 226 l 768 226 z "},"교":{"ha":1139,"x_min":83,"x_max":1056,"o":"m 781 833 l 781 417 l 1028 417 l 1042 1042 l 97 1042 l 97 833 l 781 833 m 726 208 l 726 625 l 481 625 l 481 208 l 407 208 l 407 625 l 161 625 l 161 208 l 83 208 l 83 0 l 1056 0 l 1056 208 l 726 208 z "},"굔":{"ha":1167,"x_min":83,"x_max":1083,"o":"m 794 833 l 794 690 l 1042 690 l 1056 1042 l 111 1042 l 111 833 l 794 833 m 738 621 l 738 764 l 490 764 l 490 621 l 418 621 l 418 764 l 171 764 l 171 621 l 83 621 l 83 413 l 1083 413 l 1083 621 l 738 621 m 111 340 l 111 0 l 1056 0 l 1056 208 l 372 208 l 372 340 l 111 340 z "},"굘":{"ha":1167,"x_min":83,"x_max":1083,"o":"m 794 875 l 794 781 l 1042 781 l 1056 1042 l 111 1042 l 111 875 l 794 875 m 83 583 l 1083 583 l 1083 739 l 738 739 l 738 822 l 490 822 l 490 739 l 421 739 l 421 824 l 174 824 l 174 739 l 83 739 l 83 583 m 1056 194 l 1056 542 l 111 542 l 111 389 l 796 389 l 796 347 l 111 347 l 111 0 l 1069 0 l 1069 153 l 372 153 l 372 194 l 1056 194 z "},"굡":{"ha":1167,"x_min":83,"x_max":1083,"o":"m 796 846 l 796 753 l 1042 753 l 1056 1040 l 111 1040 l 111 846 l 796 846 m 740 693 l 740 789 l 493 789 l 493 693 l 424 693 l 424 789 l 176 789 l 176 693 l 83 693 l 83 500 l 1083 500 l 1083 693 l 740 693 m 1056 0 l 1056 444 l 796 444 l 796 386 l 372 386 l 372 444 l 111 444 l 111 0 l 1056 0 m 796 219 l 796 167 l 372 167 l 372 219 l 796 219 z "},"굣":{"ha":1167,"x_min":83,"x_max":1083,"o":"m 794 690 l 794 833 l 111 833 l 111 1042 l 1056 1042 l 1042 690 l 794 690 m 724 621 l 1083 621 l 1083 413 l 83 413 l 83 621 l 185 621 l 185 764 l 418 764 l 418 621 l 490 621 l 490 764 l 724 764 l 724 621 m 714 363 q 765 258 719 292 q 881 217 811 225 q 1069 208 951 208 l 1042 0 q 583 110 733 0 q 125 0 433 0 l 97 208 q 285 217 215 208 q 401 258 356 225 q 453 363 447 292 l 714 363 z "},"구":{"ha":1165,"x_min":83,"x_max":1082,"o":"m 794 833 l 794 572 l 1040 572 l 1054 1042 l 111 1042 l 111 833 l 794 833 m 713 260 l 713 0 l 451 0 l 451 260 l 83 260 l 83 468 l 1082 468 l 1082 260 l 713 260 z "},"국":{"ha":1165,"x_min":83,"x_max":1082,"o":"m 794 832 l 794 704 l 1040 704 l 1054 1040 l 111 1040 l 111 832 l 794 832 m 1082 638 l 83 638 l 83 431 l 451 431 l 451 340 l 111 340 l 111 132 l 794 132 l 794 0 l 1054 0 l 1054 340 l 713 340 l 713 431 l 1082 431 l 1082 638 z "},"군":{"ha":1165,"x_min":83,"x_max":1082,"o":"m 794 833 l 794 690 l 1042 690 l 1056 1042 l 111 1042 l 111 833 l 794 833 m 740 413 l 740 281 l 479 281 l 479 413 l 83 413 l 83 619 l 1082 619 l 1082 413 l 740 413 m 111 340 l 111 0 l 1056 0 l 1056 208 l 372 208 l 372 340 l 111 340 z "},"굳":{"ha":1167,"x_min":83,"x_max":1083,"o":"m 796 847 l 796 753 l 1042 753 l 1056 1042 l 111 1042 l 111 847 l 796 847 m 1083 700 l 83 700 l 83 507 l 453 507 l 453 440 l 111 440 l 111 0 l 1056 0 l 1056 194 l 371 194 l 371 246 l 1056 246 l 1056 440 l 714 440 l 714 507 l 1083 507 l 1083 700 z "},"굴":{"ha":1169,"x_min":83,"x_max":1086,"o":"m 797 781 l 797 860 l 111 860 l 111 1042 l 1058 1042 l 1044 781 l 797 781 m 1086 585 l 714 585 l 714 542 l 1056 542 l 1056 194 l 372 194 l 372 153 l 1069 153 l 1069 0 l 111 0 l 111 347 l 796 347 l 796 389 l 111 389 l 111 542 l 454 542 l 454 585 l 83 585 l 83 739 l 1086 739 l 1086 585 z "},"굵":{"ha":1169,"x_min":83,"x_max":1086,"o":"m 794 781 l 794 875 l 111 875 l 111 1042 l 1056 1042 l 1042 781 l 794 781 m 1086 585 l 714 585 l 714 542 l 1060 542 l 1060 0 l 799 0 l 799 368 l 590 368 l 590 194 l 351 194 l 351 153 l 604 153 l 604 0 l 111 0 l 111 347 l 351 347 l 351 389 l 111 389 l 111 542 l 454 542 l 454 585 l 83 585 l 83 739 l 1086 739 l 1086 585 z "},"굶":{"ha":1169,"x_min":83,"x_max":1086,"o":"m 794 781 l 794 875 l 111 875 l 111 1042 l 1056 1042 l 1042 781 l 794 781 m 1086 585 l 714 585 l 714 542 l 1056 542 l 1057 0 l 611 0 l 611 389 l 569 389 l 569 194 l 344 194 l 344 153 l 583 153 l 583 0 l 111 0 l 111 347 l 338 347 l 338 389 l 111 389 l 111 542 l 454 542 l 454 585 l 83 585 l 83 739 l 1086 739 l 1086 585 m 799 389 l 799 153 l 857 153 l 857 389 l 799 389 z "},"굻":{"ha":1169,"x_min":83,"x_max":1086,"o":"m 794 781 l 794 875 l 111 875 l 111 1042 l 1056 1042 l 1042 781 l 794 781 m 1086 585 l 714 585 l 714 500 l 742 500 l 742 549 l 961 549 l 961 500 l 1069 500 l 1069 340 l 592 340 l 592 389 l 549 389 l 549 194 l 344 194 l 344 153 l 569 153 l 569 0 l 111 0 l 111 347 l 338 347 l 338 389 l 111 389 l 111 542 l 454 542 l 454 585 l 83 585 l 83 739 l 1086 739 l 1086 585 m 844 319 q 1004 281 946 319 q 1063 160 1063 242 q 1004 39 1063 78 q 844 0 946 0 l 817 0 q 657 39 715 0 q 599 160 599 78 q 657 281 599 242 q 817 319 715 319 l 844 319 m 831 136 q 853 143 844 136 q 863 160 863 150 q 853 178 863 171 q 831 185 844 185 q 808 178 817 185 q 800 160 800 171 q 808 142 800 149 q 831 136 817 136 z "},"굼":{"ha":1167,"x_min":83,"x_max":1083,"o":"m 794 753 l 794 833 l 111 833 l 111 1042 l 1056 1042 l 1042 753 l 794 753 m 1083 500 l 713 500 l 713 435 l 1056 435 l 1056 0 l 111 0 l 111 435 l 453 435 l 453 500 l 83 500 l 83 693 l 1083 693 l 1083 500 m 794 188 l 794 246 l 372 246 l 372 188 l 794 188 z "},"굽":{"ha":1167,"x_min":83,"x_max":1083,"o":"m 794 833 l 794 753 l 1042 753 l 1056 1042 l 111 1042 l 111 833 l 794 833 m 1083 693 l 83 693 l 83 500 l 453 500 l 453 428 l 713 428 l 713 500 l 1083 500 l 1083 693 m 1056 0 l 1056 444 l 796 444 l 796 386 l 372 386 l 372 444 l 111 444 l 111 0 l 1056 0 m 796 219 l 796 167 l 372 167 l 372 219 l 796 219 z "},"굿":{"ha":1165,"x_min":83,"x_max":1082,"o":"m 794 718 l 794 833 l 111 833 l 111 1042 l 1056 1042 l 1042 718 l 794 718 m 83 675 l 1082 675 l 1082 468 l 713 468 l 713 406 l 451 406 l 451 468 l 83 468 l 83 675 m 714 363 q 765 258 719 292 q 881 217 811 225 q 1069 208 951 208 l 1042 0 q 583 110 733 0 q 125 0 433 0 l 97 208 q 285 217 215 208 q 401 258 356 225 q 453 363 447 292 l 714 363 z "},"궁":{"ha":1167,"x_min":83,"x_max":1083,"o":"m 794 753 l 794 847 l 111 847 l 111 1042 l 1056 1042 l 1042 753 l 794 753 m 713 500 l 713 428 l 838 428 q 994 367 932 428 q 1056 214 1056 307 q 994 60 1056 121 q 838 0 932 0 l 329 0 q 173 60 235 0 q 111 214 111 121 q 173 367 111 307 q 329 428 235 428 l 453 428 l 453 500 l 83 500 l 83 693 l 1083 693 l 1083 500 l 713 500 m 794 214 q 787 233 794 225 q 768 240 779 240 l 399 240 q 380 233 388 240 q 372 214 372 225 q 380 195 372 203 q 399 188 388 188 l 768 188 q 787 195 779 188 q 794 214 794 203 z "},"궂":{"ha":1167,"x_min":83,"x_max":1083,"o":"m 794 767 l 794 847 l 111 847 l 111 1042 l 1056 1042 l 1042 767 l 794 767 m 83 707 l 1083 707 l 1083 514 l 713 514 l 713 449 l 453 449 l 453 514 l 83 514 l 83 707 m 765 254 q 882 195 808 210 q 1069 181 956 181 l 1042 0 q 583 115 731 0 q 125 0 436 0 l 97 181 q 285 195 211 181 q 401 254 358 210 l 111 254 l 111 428 l 1056 428 l 1056 254 l 765 254 z "},"궈":{"ha":1142,"x_min":83,"x_max":1058,"o":"m 1058 1056 l 797 1056 l 797 339 l 631 339 l 631 146 l 797 146 l 797 0 l 1058 0 l 1058 1056 m 418 832 l 418 646 l 665 646 l 679 1042 l 111 1042 l 111 832 l 418 832 m 511 394 l 497 14 l 250 14 l 250 394 l 83 394 l 83 604 l 756 604 l 756 394 l 511 394 z "},"궉":{"ha":1139,"x_min":83,"x_max":1056,"o":"m 1056 1056 l 797 1056 l 797 922 l 707 922 l 707 729 l 797 729 l 797 410 l 1056 410 l 1056 1056 m 418 832 l 418 726 l 665 726 l 679 1042 l 111 1042 l 111 832 l 418 832 m 539 479 l 539 396 l 278 396 l 278 479 l 83 479 l 83 689 l 756 689 l 756 479 l 539 479 m 111 160 l 794 160 l 794 0 l 1056 0 l 1056 368 l 111 368 l 111 160 z "},"권":{"ha":1139,"x_min":83,"x_max":1056,"o":"m 1056 1056 l 797 1056 l 797 894 l 707 894 l 707 701 l 797 701 l 797 299 l 1056 299 l 1056 1056 m 418 832 l 418 699 l 665 699 l 679 1042 l 111 1042 l 111 832 l 418 832 m 539 451 l 539 354 l 278 354 l 278 451 l 83 451 l 83 661 l 756 661 l 756 451 l 539 451 m 1056 208 l 372 208 l 372 326 l 111 326 l 111 0 l 1056 0 l 1056 208 z "},"궐":{"ha":1153,"x_min":83,"x_max":1069,"o":"m 1056 1056 l 797 1056 l 797 981 l 707 981 l 707 808 l 797 808 l 797 585 l 1056 585 l 1056 1056 m 418 876 l 418 808 l 665 808 l 679 1042 l 111 1042 l 111 876 l 418 876 m 540 569 l 540 626 l 756 626 l 756 781 l 83 781 l 83 626 l 281 626 l 281 569 l 540 569 m 1056 194 l 1056 542 l 111 542 l 111 389 l 796 389 l 796 347 l 111 347 l 111 0 l 1069 0 l 1069 153 l 372 153 l 372 194 l 1056 194 z "},"궜":{"ha":1167,"x_min":83,"x_max":1083,"o":"m 797 424 l 797 743 l 707 743 l 707 936 l 797 936 l 797 1056 l 1056 1056 l 1056 424 l 797 424 m 418 740 l 418 832 l 111 832 l 111 1042 l 679 1042 l 665 740 l 418 740 m 278 410 l 278 479 l 83 479 l 83 689 l 756 689 l 756 479 l 539 479 l 539 410 l 278 410 m 1056 0 q 829 85 925 0 q 621 0 740 0 l 583 125 l 546 0 q 338 85 426 0 q 111 0 242 0 l 83 208 q 185 251 147 208 q 222 382 222 293 l 469 382 q 500 260 469 303 q 583 210 531 218 q 667 260 636 218 q 697 382 697 303 l 944 382 q 982 251 944 293 q 1083 208 1019 208 l 1056 0 z "},"궝":{"ha":1139,"x_min":83,"x_max":1056,"o":"m 1056 1056 l 797 1056 l 797 953 l 721 953 l 721 756 l 797 756 l 797 469 l 1056 469 l 1056 1056 m 418 846 l 418 756 l 665 756 l 679 1042 l 111 1042 l 111 846 l 418 846 m 539 528 l 539 456 l 278 456 l 278 528 l 83 528 l 83 721 l 756 721 l 756 528 l 539 528 m 1056 214 q 994 367 1056 307 q 838 428 932 428 l 329 428 q 173 367 235 428 q 111 214 111 307 q 173 60 111 121 q 329 0 235 0 l 838 0 q 994 60 932 0 q 1056 214 1056 121 m 768 240 q 787 233 779 240 q 794 214 794 225 q 787 195 794 203 q 768 188 779 188 l 399 188 q 380 195 388 188 q 372 214 372 203 q 380 233 372 225 q 399 240 388 240 l 768 240 z "},"궤":{"ha":1194,"x_min":83,"x_max":1111,"o":"m 840 1058 l 614 1058 l 614 339 l 454 339 l 454 146 l 614 146 l 614 0 l 840 0 l 840 1058 m 1111 1056 l 885 1056 l 885 0 l 1111 0 l 1111 1056 m 538 1042 l 111 1042 l 111 861 l 304 861 l 304 618 l 524 618 l 538 1042 m 399 0 l 413 382 l 572 382 l 572 576 l 83 576 l 83 382 l 186 382 l 186 0 l 399 0 z "},"궷":{"ha":1208,"x_min":83,"x_max":1125,"o":"m 614 404 l 614 740 l 531 740 l 531 933 l 614 933 l 614 1056 l 840 1056 l 840 404 l 614 404 m 1111 1056 l 1111 322 l 885 322 l 885 1056 l 1111 1056 m 269 701 l 269 875 l 111 875 l 111 1042 l 503 1042 l 489 701 l 269 701 m 207 322 l 207 479 l 83 479 l 83 660 l 572 660 l 572 479 l 433 479 l 419 322 l 207 322 m 1097 0 q 639 110 789 0 q 181 0 489 0 l 153 208 q 341 217 271 208 q 457 258 411 225 q 508 363 503 292 l 769 363 q 821 258 775 292 q 937 217 867 225 q 1125 208 1007 208 l 1097 0 z "},"귀":{"ha":1142,"x_min":83,"x_max":1058,"o":"m 1058 1056 l 797 1056 l 797 0 l 1058 0 l 1058 1056 m 418 832 l 418 563 l 665 563 l 679 1042 l 111 1042 l 111 832 l 418 832 m 511 311 l 497 14 l 250 14 l 250 311 l 83 311 l 83 521 l 756 521 l 756 311 l 511 311 z "},"귁":{"ha":1139,"x_min":83,"x_max":1056,"o":"m 1056 1056 l 797 1056 l 797 410 l 1056 410 l 1056 1056 m 453 832 l 453 726 l 700 726 l 714 1042 l 111 1042 l 111 832 l 453 832 m 539 479 l 539 396 l 278 396 l 278 479 l 83 479 l 83 689 l 756 689 l 756 479 l 539 479 m 111 160 l 794 160 l 794 0 l 1056 0 l 1056 368 l 111 368 l 111 160 z "},"귄":{"ha":1139,"x_min":83,"x_max":1056,"o":"m 1056 1056 l 797 1056 l 797 299 l 1056 299 l 1056 1056 m 453 832 l 453 726 l 700 726 l 714 1042 l 111 1042 l 111 832 l 453 832 m 539 479 l 539 368 l 278 368 l 278 479 l 83 479 l 83 689 l 756 689 l 756 479 l 539 479 m 1056 208 l 372 208 l 372 340 l 111 340 l 111 0 l 1056 0 l 1056 208 z "},"귈":{"ha":1153,"x_min":83,"x_max":1069,"o":"m 1056 1056 l 797 1056 l 797 585 l 1056 585 l 1056 1056 m 453 876 l 453 808 l 700 808 l 714 1042 l 111 1042 l 111 876 l 453 876 m 540 569 l 540 626 l 756 626 l 756 781 l 83 781 l 83 626 l 281 626 l 281 569 l 540 569 m 1056 194 l 1056 542 l 111 542 l 111 389 l 796 389 l 796 347 l 111 347 l 111 0 l 1069 0 l 1069 153 l 372 153 l 372 194 l 1056 194 z "},"귐":{"ha":1139,"x_min":83,"x_max":1056,"o":"m 1056 1056 l 797 1056 l 797 469 l 1056 469 l 1056 1056 m 453 832 l 453 763 l 700 763 l 714 1042 l 111 1042 l 111 832 l 453 832 m 539 528 l 539 463 l 278 463 l 278 528 l 83 528 l 83 721 l 756 721 l 756 528 l 539 528 m 1056 435 l 111 435 l 111 0 l 1056 0 l 1056 435 m 794 246 l 794 188 l 372 188 l 372 246 l 794 246 z "},"귑":{"ha":1139,"x_min":83,"x_max":1056,"o":"m 1056 1056 l 797 1056 l 797 469 l 1056 469 l 1056 1056 m 453 832 l 453 763 l 700 763 l 714 1042 l 111 1042 l 111 832 l 453 832 m 539 528 l 539 458 l 278 458 l 278 528 l 83 528 l 83 721 l 756 721 l 756 528 l 539 528 m 1056 0 l 1056 431 l 796 431 l 796 386 l 372 386 l 372 431 l 111 431 l 111 0 l 1056 0 m 796 219 l 796 167 l 372 167 l 372 219 l 796 219 z "},"귓":{"ha":1153,"x_min":83,"x_max":1069,"o":"m 1056 1056 l 1056 368 l 797 368 l 797 1056 l 1056 1056 m 453 754 l 453 832 l 111 832 l 111 1042 l 714 1042 l 700 754 l 453 754 m 278 396 l 278 493 l 83 493 l 83 703 l 756 703 l 756 493 l 539 493 l 539 396 l 278 396 m 1042 0 q 583 110 733 0 q 125 0 433 0 l 97 208 q 285 217 215 208 q 401 258 356 225 q 453 363 447 292 l 714 363 q 765 258 719 292 q 881 217 811 225 q 1069 208 951 208 l 1042 0 z "},"규":{"ha":1167,"x_min":83,"x_max":1083,"o":"m 794 833 l 794 572 l 1042 572 l 1056 1042 l 111 1042 l 111 833 l 794 833 m 1083 468 l 83 468 l 83 260 l 247 260 l 247 0 l 494 0 l 508 260 l 658 260 l 658 0 l 918 0 l 918 260 l 1083 260 l 1083 468 z "},"균":{"ha":1167,"x_min":83,"x_max":1083,"o":"m 794 833 l 794 718 l 1042 718 l 1056 1042 l 111 1042 l 111 833 l 794 833 m 1083 647 l 83 647 l 83 439 l 256 439 l 256 335 l 515 335 l 515 439 l 651 439 l 651 335 l 911 335 l 911 439 l 1083 439 l 1083 647 m 111 299 l 111 0 l 1056 0 l 1056 208 l 372 208 l 372 299 l 111 299 z "},"귤":{"ha":1167,"x_min":83,"x_max":1083,"o":"m 797 781 l 797 863 l 111 863 l 111 1044 l 1058 1044 l 1044 781 l 797 781 m 1083 585 l 911 585 l 911 542 l 1056 542 l 1056 194 l 372 194 l 372 153 l 1069 153 l 1069 0 l 111 0 l 111 347 l 796 347 l 796 389 l 111 389 l 111 542 l 256 542 l 256 585 l 83 585 l 83 739 l 1083 739 l 1083 585 m 515 542 l 651 542 l 651 585 l 515 585 l 515 542 z "},"그":{"ha":1167,"x_min":83,"x_max":1083,"o":"m 794 832 l 794 417 l 1040 417 l 1054 1040 l 111 1040 l 111 832 l 794 832 m 1083 250 l 83 250 l 83 42 l 1083 42 l 1083 250 z "},"극":{"ha":1167,"x_min":83,"x_max":1083,"o":"m 794 833 l 794 697 l 1042 697 l 1056 1042 l 111 1042 l 111 833 l 794 833 m 83 628 l 83 419 l 1083 419 l 1083 628 l 83 628 m 1056 0 l 1056 347 l 111 347 l 111 139 l 794 139 l 794 0 l 1056 0 z "},"근":{"ha":1167,"x_min":83,"x_max":1083,"o":"m 794 833 l 794 697 l 1042 697 l 1056 1042 l 111 1042 l 111 833 l 794 833 m 83 628 l 83 419 l 1083 419 l 1083 628 l 83 628 m 111 347 l 111 0 l 1056 0 l 1056 208 l 372 208 l 372 347 l 111 347 z "},"귿":{"ha":1165,"x_min":83,"x_max":1082,"o":"m 794 846 l 794 753 l 1040 753 l 1054 1040 l 111 1040 l 111 846 l 794 846 m 83 693 l 83 500 l 1082 500 l 1082 693 l 83 693 m 111 438 l 111 0 l 1054 0 l 1054 194 l 371 194 l 371 246 l 1054 246 l 1054 438 l 111 438 z "},"글":{"ha":1167,"x_min":83,"x_max":1083,"o":"m 794 875 l 794 781 l 1042 781 l 1056 1042 l 111 1042 l 111 875 l 794 875 m 83 583 l 1083 583 l 1083 739 l 83 739 l 83 583 m 1056 194 l 1056 542 l 111 542 l 111 389 l 796 389 l 796 347 l 111 347 l 111 0 l 1069 0 l 1069 153 l 372 153 l 372 194 l 1056 194 z "},"긁":{"ha":1167,"x_min":83,"x_max":1083,"o":"m 794 875 l 794 781 l 1042 781 l 1056 1042 l 111 1042 l 111 875 l 794 875 m 83 583 l 1083 583 l 1083 739 l 83 739 l 83 583 m 590 194 l 590 542 l 111 542 l 111 389 l 351 389 l 351 347 l 111 347 l 111 0 l 590 0 l 590 153 l 351 153 l 351 194 l 590 194 m 638 542 l 638 368 l 799 368 l 799 0 l 1060 0 l 1060 542 l 638 542 z "},"금":{"ha":1167,"x_min":83,"x_max":1083,"o":"m 796 846 l 796 753 l 1042 753 l 1056 1040 l 111 1040 l 111 846 l 796 846 m 83 693 l 83 500 l 1083 500 l 1083 693 l 83 693 m 1056 435 l 111 435 l 111 0 l 1056 0 l 1056 435 m 794 247 l 794 188 l 372 188 l 372 247 l 794 247 z "},"급":{"ha":1167,"x_min":83,"x_max":1083,"o":"m 796 846 l 796 753 l 1042 753 l 1056 1040 l 111 1040 l 111 846 l 796 846 m 83 693 l 83 500 l 1083 500 l 1083 693 l 83 693 m 1056 0 l 1056 444 l 796 444 l 796 386 l 372 386 l 372 444 l 111 444 l 111 0 l 1056 0 m 796 219 l 796 167 l 372 167 l 372 219 l 796 219 z "},"긋":{"ha":1167,"x_min":83,"x_max":1083,"o":"m 794 697 l 794 833 l 111 833 l 111 1042 l 1056 1042 l 1042 697 l 794 697 m 83 628 l 1083 628 l 1083 419 l 83 419 l 83 628 m 714 363 q 765 258 719 292 q 881 217 811 225 q 1069 208 951 208 l 1042 0 q 583 110 733 0 q 125 0 433 0 l 97 208 q 285 217 215 208 q 401 258 356 225 q 453 363 447 292 l 714 363 z "},"긍":{"ha":1167,"x_min":83,"x_max":1083,"o":"m 796 846 l 796 753 l 1042 753 l 1056 1040 l 111 1040 l 111 846 l 796 846 m 83 686 l 83 493 l 1083 493 l 1083 686 l 83 686 m 1056 214 q 994 367 1056 307 q 838 428 932 428 l 329 428 q 173 367 235 428 q 111 214 111 307 q 173 60 111 121 q 329 0 235 0 l 838 0 q 994 60 932 0 q 1056 214 1056 121 m 768 240 q 787 233 779 240 q 794 214 794 225 q 787 195 794 203 q 768 188 779 188 l 399 188 q 380 195 388 188 q 372 214 372 203 q 380 233 372 225 q 399 240 388 240 l 768 240 z "},"긔":{"ha":1139,"x_min":83,"x_max":1056,"o":"m 1056 1056 l 794 1056 l 794 0 l 1056 0 l 1056 1056 m 417 833 l 417 417 l 663 417 l 676 1042 l 111 1042 l 111 833 l 417 833 m 753 42 l 83 42 l 83 250 l 753 250 l 753 42 z "},"기":{"ha":1139,"x_min":69,"x_max":1056,"o":"m 794 1056 l 794 0 l 1056 0 l 1056 1056 l 794 1056 m 97 42 q 399 139 268 42 q 603 416 531 236 q 676 836 676 596 l 676 1044 l 83 1044 l 83 836 l 415 836 q 360 490 415 621 q 225 304 304 358 q 69 250 146 250 l 97 42 z "},"긱":{"ha":1125,"x_min":69,"x_max":1042,"o":"m 1042 1058 l 781 1058 l 781 458 l 1042 458 l 1042 1058 m 97 458 q 421 505 293 458 q 619 679 549 551 q 690 1042 690 807 l 97 1042 l 97 836 l 406 836 q 308 712 406 757 q 69 667 211 667 l 97 458 m 781 188 l 781 0 l 1042 0 l 1042 396 l 97 396 l 97 188 l 781 188 z "},"긴":{"ha":1125,"x_min":69,"x_max":1042,"o":"m 1042 1058 l 781 1058 l 781 368 l 1042 368 l 1042 1058 m 97 458 q 421 505 293 458 q 619 679 549 551 q 690 1042 690 807 l 97 1042 l 97 836 l 406 836 q 308 712 406 757 q 69 667 211 667 l 97 458 m 358 208 l 358 396 l 97 396 l 97 0 l 1042 0 l 1042 208 l 358 208 z "},"긷":{"ha":1128,"x_min":69,"x_max":1044,"o":"m 1042 1056 l 781 1056 l 781 486 l 1042 486 l 1042 1056 m 97 486 q 424 526 299 486 q 619 686 549 565 q 690 1042 690 807 l 97 1042 l 97 836 l 406 836 q 69 694 406 694 l 97 486 m 1044 435 l 97 435 l 97 0 l 1044 0 l 1044 188 l 358 188 l 358 247 l 1044 247 l 1044 435 z "},"길":{"ha":1167,"x_min":69,"x_max":1083,"o":"m 1069 1056 l 810 1056 l 810 583 l 1069 583 l 1069 1056 m 97 583 q 433 608 315 583 q 620 731 550 632 q 690 1042 690 829 l 97 1042 l 97 864 l 406 864 q 311 778 406 806 q 69 750 217 750 l 97 583 m 1069 194 l 1069 542 l 125 542 l 125 389 l 810 389 l 810 347 l 125 347 l 125 0 l 1083 0 l 1083 153 l 386 153 l 386 194 l 1069 194 z "},"긺":{"ha":1157,"x_min":69,"x_max":1074,"o":"m 1069 1056 l 810 1056 l 810 583 l 1069 583 l 1069 1056 m 97 583 q 433 608 315 583 q 620 731 550 632 q 690 1042 690 829 l 97 1042 l 97 864 l 406 864 q 311 778 406 806 q 69 750 217 750 l 97 583 m 563 194 l 563 542 l 125 542 l 125 389 l 365 389 l 365 347 l 125 347 l 125 0 l 576 0 l 576 153 l 324 153 l 324 194 l 563 194 m 610 0 l 1074 0 l 1074 542 l 610 542 l 610 0 m 815 153 l 815 389 l 868 389 l 868 153 l 815 153 z "},"김":{"ha":1156,"x_min":69,"x_max":1072,"o":"m 1069 1056 l 808 1056 l 808 486 l 1069 486 l 1069 1056 m 97 486 q 424 526 299 486 q 619 686 549 565 q 690 1042 690 807 l 97 1042 l 97 836 l 406 836 q 69 694 406 694 l 97 486 m 1072 435 l 125 435 l 125 0 l 1072 0 l 1072 435 m 811 247 l 811 188 l 386 188 l 386 247 l 811 247 z "},"깁":{"ha":1153,"x_min":69,"x_max":1069,"o":"m 1069 1056 l 808 1056 l 808 486 l 1069 486 l 1069 1056 m 97 486 q 424 526 299 486 q 619 686 549 565 q 690 1042 690 807 l 97 1042 l 97 836 l 406 836 q 69 694 406 694 l 97 486 m 1069 0 l 1069 438 l 810 438 l 810 386 l 386 386 l 386 438 l 125 438 l 125 0 l 1069 0 m 810 219 l 810 167 l 386 167 l 386 219 l 810 219 z "},"깃":{"ha":1167,"x_min":69,"x_max":1083,"o":"m 1069 1056 l 1069 446 l 808 446 l 808 1056 l 1069 1056 m 690 1042 q 619 672 690 806 q 418 484 547 538 q 97 431 289 431 l 69 639 q 235 665 158 639 q 359 737 313 692 q 406 836 406 782 l 97 836 l 97 1042 l 690 1042 m 1056 0 q 794 37 911 0 q 597 143 676 74 q 401 37 518 74 q 139 0 283 0 l 111 208 q 361 260 264 208 q 467 418 458 313 l 728 418 q 833 260 736 313 q 1083 208 931 208 l 1056 0 z "},"깅":{"ha":1153,"x_min":69,"x_max":1069,"o":"m 1069 1056 l 808 1056 l 808 472 l 1069 472 l 1069 1056 m 97 472 q 422 515 296 472 q 619 683 549 558 q 690 1042 690 807 l 97 1042 l 97 836 l 406 836 q 310 719 406 757 q 69 681 215 681 l 97 472 m 1069 214 q 1008 367 1069 307 q 851 428 946 428 l 343 428 q 187 367 249 428 q 125 214 125 307 q 187 60 125 121 q 343 0 249 0 l 851 0 q 1008 60 946 0 q 1069 214 1069 121 m 782 240 q 801 233 793 240 q 808 214 808 225 q 801 195 808 203 q 782 188 793 188 l 413 188 q 394 195 401 188 q 386 214 386 203 q 394 233 386 225 q 413 240 401 240 l 782 240 z "},"깆":{"ha":1167,"x_min":69,"x_max":1083,"o":"m 1069 1056 l 1069 486 l 808 486 l 808 1056 l 1069 1056 m 690 1042 q 619 686 690 807 q 424 526 549 565 q 97 486 299 486 l 69 694 q 406 836 406 694 l 97 836 l 97 1042 l 690 1042 m 1056 0 q 597 115 744 0 q 139 0 450 0 l 111 181 q 299 195 225 181 q 415 254 372 210 l 125 254 l 125 428 l 1069 428 l 1069 254 l 779 254 q 896 195 822 210 q 1083 181 969 181 l 1056 0 z "},"깊":{"ha":1156,"x_min":69,"x_max":1072,"o":"m 1069 1056 l 808 1056 l 808 472 l 1069 472 l 1069 1056 m 97 486 q 424 526 299 486 q 619 686 549 565 q 690 1042 690 807 l 97 1042 l 97 836 l 406 836 q 69 694 406 694 l 97 486 m 1072 428 l 125 428 l 125 240 l 261 240 l 267 188 l 125 188 l 125 0 l 1072 0 l 1072 188 l 931 188 l 936 240 l 1072 240 l 1072 428 m 528 188 l 522 240 l 675 240 l 669 188 l 528 188 z "},"까":{"ha":1146,"x_min":42,"x_max":1146,"o":"m 1042 654 l 1146 654 l 1146 446 l 1042 446 l 1042 0 l 781 0 l 781 1056 l 1042 1056 l 1042 654 m 725 793 q 680 383 725 536 q 559 156 635 229 q 375 42 483 82 l 319 222 q 416 333 382 264 q 465 512 450 403 q 479 793 479 621 l 479 833 l 419 833 l 419 793 q 381 432 419 567 q 272 231 342 297 q 97 125 203 164 l 42 319 q 134 420 103 361 q 176 565 165 479 q 188 793 188 651 l 188 833 l 83 833 l 83 1042 l 725 1042 l 725 793 z "},"깍":{"ha":1160,"x_min":56,"x_max":1160,"o":"m 1056 857 l 1160 857 l 1160 647 l 1056 647 l 1056 458 l 794 458 l 794 1056 l 1056 1056 l 1056 857 m 343 582 q 83 472 260 472 l 56 681 q 159 715 131 681 q 188 833 188 750 l 83 833 l 83 1042 l 739 1042 l 739 885 q 361 444 739 444 l 343 582 m 418 833 q 383 657 411 728 q 466 710 439 668 q 493 833 493 751 l 418 833 m 111 188 l 111 396 l 1056 396 l 1056 0 l 794 0 l 794 188 l 111 188 z "},"깎":{"ha":1160,"x_min":56,"x_max":1160,"o":"m 1056 857 l 1160 857 l 1160 647 l 1056 647 l 1056 458 l 794 458 l 794 1056 l 1056 1056 l 1056 857 m 343 582 q 83 472 260 472 l 56 681 q 159 715 131 681 q 188 833 188 750 l 83 833 l 83 1042 l 739 1042 l 739 885 q 361 444 739 444 l 343 582 m 418 833 q 383 657 411 728 q 466 710 439 668 q 493 833 493 751 l 418 833 m 111 188 l 111 396 l 556 396 l 556 0 l 294 0 l 294 188 l 111 188 m 611 188 l 611 396 l 1056 396 l 1056 0 l 794 0 l 794 188 l 611 188 z "},"깐":{"ha":1160,"x_min":56,"x_max":1160,"o":"m 1056 815 l 1160 815 l 1160 606 l 1056 606 l 1056 354 l 794 354 l 794 1056 l 1056 1056 l 1056 815 m 343 582 q 83 472 260 472 l 56 681 q 159 715 131 681 q 188 833 188 750 l 83 833 l 83 1042 l 739 1042 l 739 885 q 361 444 739 444 l 343 582 m 418 833 q 383 657 411 728 q 466 710 439 668 q 493 833 493 751 l 418 833 m 372 396 l 372 208 l 1056 208 l 1056 0 l 111 0 l 111 396 l 372 396 z "},"깔":{"ha":1160,"x_min":56,"x_max":1160,"o":"m 1056 910 l 1160 910 l 1160 719 l 1056 719 l 1056 583 l 796 583 l 796 1056 l 1056 1056 l 1056 910 m 407 875 q 301 658 382 733 q 83 583 221 583 l 56 750 q 146 782 111 750 q 181 875 181 814 l 83 875 l 83 1042 l 739 1042 l 739 1024 q 662 697 739 810 q 417 583 585 583 l 389 750 q 472 781 443 750 q 500 875 500 813 l 407 875 m 372 194 l 372 153 l 1069 153 l 1069 0 l 111 0 l 111 347 l 796 347 l 796 389 l 111 389 l 111 542 l 1056 542 l 1056 194 l 372 194 z "},"깖":{"ha":1160,"x_min":56,"x_max":1160,"o":"m 1056 910 l 1160 910 l 1160 719 l 1056 719 l 1056 583 l 796 583 l 796 1056 l 1056 1056 l 1056 910 m 407 875 q 301 658 382 733 q 83 583 221 583 l 56 750 q 146 782 111 750 q 181 875 181 814 l 83 875 l 83 1042 l 739 1042 l 739 1024 q 662 697 739 810 q 417 583 585 583 l 389 750 q 472 781 443 750 q 500 875 500 813 l 407 875 m 310 194 l 310 153 l 563 153 l 563 0 l 111 0 l 111 347 l 351 347 l 351 389 l 111 389 l 111 542 l 549 542 l 549 194 l 310 194 m 596 0 l 596 542 l 1060 542 l 1060 0 l 596 0 m 801 389 l 801 153 l 854 153 l 854 389 l 801 389 z "},"깜":{"ha":1160,"x_min":56,"x_max":1160,"o":"m 1056 871 l 1160 871 l 1160 661 l 1056 661 l 1056 486 l 794 486 l 794 1056 l 1056 1056 l 1056 871 m 344 597 q 238 523 303 546 q 83 500 174 500 l 56 708 q 137 717 110 708 q 176 752 164 726 q 188 833 188 778 l 83 833 l 83 1042 l 739 1042 l 739 885 q 643 566 739 660 q 361 472 547 472 l 344 597 m 418 833 q 392 683 414 751 q 468 723 443 690 q 493 833 493 756 l 418 833 m 111 0 l 111 435 l 1058 435 l 1058 0 l 111 0 m 372 247 l 372 188 l 797 188 l 797 247 l 372 247 z "},"깝":{"ha":1160,"x_min":56,"x_max":1160,"o":"m 1056 871 l 1160 871 l 1160 661 l 1056 661 l 1056 486 l 794 486 l 794 1056 l 1056 1056 l 1056 871 m 344 597 q 238 523 303 546 q 83 500 174 500 l 56 708 q 137 717 110 708 q 176 752 164 726 q 188 833 188 778 l 83 833 l 83 1042 l 739 1042 l 739 885 q 643 566 739 660 q 361 472 547 472 l 344 597 m 418 833 q 392 683 414 751 q 468 723 443 690 q 493 833 493 756 l 418 833 m 796 386 l 796 438 l 1056 438 l 1056 0 l 111 0 l 111 438 l 372 438 l 372 386 l 796 386 m 796 167 l 796 219 l 372 219 l 372 167 l 796 167 z "},"깟":{"ha":1160,"x_min":56,"x_max":1160,"o":"m 1056 843 l 1160 843 l 1160 633 l 1056 633 l 1056 418 l 794 418 l 794 1056 l 1056 1056 l 1056 843 m 343 582 q 83 472 260 472 l 56 681 q 159 715 131 681 q 188 833 188 750 l 83 833 l 83 1042 l 739 1042 l 739 885 q 361 444 739 444 l 343 582 m 418 833 q 383 657 411 728 q 466 710 439 668 q 493 833 493 751 l 418 833 m 714 418 q 819 260 722 313 q 1069 208 917 208 l 1042 0 q 780 37 897 0 q 583 143 663 74 q 387 37 504 74 q 125 0 269 0 l 97 208 q 347 260 250 208 q 453 418 444 313 l 714 418 z "},"깠":{"ha":1160,"x_min":56,"x_max":1160,"o":"m 1056 843 l 1160 843 l 1160 633 l 1056 633 l 1056 431 l 794 431 l 794 1056 l 1056 1056 l 1056 843 m 344 543 q 238 458 303 485 q 83 431 174 431 l 56 639 q 137 653 110 639 q 176 709 164 668 q 188 833 188 750 l 83 833 l 83 1042 l 739 1042 l 739 885 q 694 603 739 706 q 567 458 650 500 q 361 417 485 417 l 344 543 m 418 833 q 386 628 414 711 q 467 679 442 636 q 493 833 493 722 l 418 833 m 958 382 q 997 249 958 303 q 1097 194 1036 194 l 1069 0 q 946 23 1006 0 q 838 88 886 46 q 737 23 793 46 q 621 0 681 0 l 597 94 l 574 0 q 458 23 514 0 q 357 88 401 46 q 249 23 308 46 q 125 0 189 0 l 97 194 q 197 249 158 194 q 236 382 236 303 l 483 382 q 515 260 483 311 q 597 197 546 208 q 680 260 649 208 q 711 382 711 311 l 958 382 z "},"깡":{"ha":1160,"x_min":56,"x_max":1160,"o":"m 1056 857 l 1160 857 l 1160 647 l 1056 647 l 1056 472 l 794 472 l 794 1056 l 1056 1056 l 1056 857 m 343 590 q 83 486 263 486 l 56 694 q 136 706 108 694 q 176 748 164 718 q 188 833 188 778 l 83 833 l 83 1042 l 739 1042 l 739 885 q 642 558 739 658 q 361 458 544 458 l 343 590 m 418 833 q 388 671 414 742 q 467 716 442 679 q 493 833 493 753 l 418 833 m 838 428 q 994 367 932 428 q 1056 214 1056 307 q 994 60 1056 121 q 838 0 932 0 l 329 0 q 173 60 235 0 q 111 214 111 121 q 173 367 111 307 q 329 428 235 428 l 838 428 m 768 188 q 787 195 779 188 q 794 214 794 203 q 787 233 794 225 q 768 240 779 240 l 399 240 q 380 233 388 240 q 372 214 372 225 q 380 195 372 203 q 399 188 388 188 l 768 188 z "},"깥":{"ha":1160,"x_min":56,"x_max":1160,"o":"m 1056 910 l 1160 910 l 1160 719 l 1056 719 l 1056 583 l 796 583 l 796 1056 l 1056 1056 l 1056 910 m 407 875 q 301 658 382 733 q 83 583 221 583 l 56 750 q 146 782 111 750 q 181 875 181 814 l 83 875 l 83 1042 l 739 1042 l 739 1024 q 662 697 739 810 q 417 583 585 583 l 389 750 q 472 781 443 750 q 500 875 500 813 l 407 875 m 111 0 l 111 547 l 1056 547 l 1056 397 l 372 397 l 372 344 l 1056 344 l 1056 201 l 372 201 l 372 150 l 1056 150 l 1056 0 l 111 0 z "},"깨":{"ha":1194,"x_min":42,"x_max":1111,"o":"m 892 1056 l 1111 1056 l 1111 0 l 892 0 l 892 431 l 849 431 l 849 14 l 629 14 l 629 1056 l 849 1056 l 849 639 l 892 639 l 892 1056 m 581 793 q 567 406 581 533 q 514 199 554 278 q 383 42 474 121 l 258 153 q 348 290 319 215 q 383 458 376 365 q 390 721 390 551 l 390 793 l 390 833 l 336 833 l 336 793 q 324 471 336 581 q 278 286 313 361 q 167 125 243 211 l 42 222 q 119 363 94 282 q 152 541 144 443 q 160 793 160 639 l 160 833 l 83 833 l 83 1042 l 581 1042 l 581 793 z "},"깩":{"ha":1194,"x_min":56,"x_max":1111,"o":"m 892 1056 l 1111 1056 l 1111 438 l 892 438 l 892 653 l 849 653 l 849 438 l 629 438 l 629 1056 l 849 1056 l 849 833 l 892 833 l 892 1056 m 56 542 q 127 665 108 596 q 146 849 146 735 l 146 861 l 83 861 l 83 1042 l 581 1042 l 581 849 q 568 658 581 732 q 528 534 556 585 q 453 431 501 483 l 300 500 q 372 633 353 554 q 390 849 390 713 l 390 861 l 336 861 l 336 849 q 320 669 336 736 q 277 562 304 601 q 194 458 250 522 l 56 542 m 167 188 l 167 396 l 1111 396 l 1111 0 l 850 0 l 850 188 l 167 188 z "},"깬":{"ha":1194,"x_min":56,"x_max":1111,"o":"m 892 1056 l 1111 1056 l 1111 340 l 892 340 l 892 625 l 849 625 l 849 368 l 629 368 l 629 1056 l 849 1056 l 849 806 l 892 806 l 892 1056 m 56 542 q 127 665 108 596 q 146 849 146 735 l 146 861 l 83 861 l 83 1042 l 581 1042 l 581 849 q 567 659 581 733 q 527 535 554 585 q 453 431 500 485 l 300 500 q 372 633 353 554 q 390 849 390 713 l 390 861 l 336 861 l 336 849 q 320 669 336 736 q 277 562 304 601 q 194 458 250 522 l 56 542 m 428 396 l 428 208 l 1111 208 l 1111 0 l 167 0 l 167 396 l 428 396 z "},"깰":{"ha":1208,"x_min":56,"x_max":1125,"o":"m 850 722 l 850 583 l 631 583 l 631 1056 l 850 1056 l 850 903 l 892 903 l 892 1056 l 1111 1056 l 1111 583 l 892 583 l 892 722 l 850 722 m 336 849 q 299 707 336 776 q 194 583 261 638 l 56 667 q 121 754 96 700 q 146 849 146 808 l 146 861 l 83 861 l 83 1042 l 581 1042 l 581 849 q 553 688 581 750 q 467 569 526 626 l 314 639 q 390 849 390 719 l 390 861 l 336 861 l 336 849 m 428 153 l 1125 153 l 1125 0 l 167 0 l 167 347 l 851 347 l 851 389 l 167 389 l 167 542 l 1111 542 l 1111 194 l 428 194 l 428 153 z "},"깸":{"ha":1197,"x_min":56,"x_max":1114,"o":"m 849 681 l 849 479 l 629 479 l 629 1056 l 849 1056 l 849 861 l 892 861 l 892 1056 l 1111 1056 l 1111 479 l 892 479 l 892 681 l 849 681 m 56 569 q 127 685 108 624 q 146 849 146 746 l 146 861 l 83 861 l 83 1042 l 579 1042 l 579 849 q 566 673 579 740 q 526 560 553 606 q 451 458 500 514 l 299 528 q 370 653 351 582 q 389 849 389 724 l 389 861 l 336 861 l 336 849 q 322 691 336 750 q 285 596 308 632 q 214 508 261 560 l 194 486 l 56 569 m 167 435 l 1114 435 l 1114 0 l 167 0 l 167 435 m 853 188 l 853 247 l 428 247 l 428 188 l 853 188 z "},"깹":{"ha":1194,"x_min":56,"x_max":1111,"o":"m 892 1056 l 1111 1056 l 1111 479 l 892 479 l 892 681 l 849 681 l 849 479 l 629 479 l 629 1056 l 849 1056 l 849 861 l 892 861 l 892 1056 m 56 569 q 127 685 108 624 q 146 849 146 746 l 146 861 l 83 861 l 83 1042 l 579 1042 l 579 849 q 566 673 579 740 q 526 560 553 606 q 451 458 500 514 l 299 528 q 370 653 351 582 q 389 849 389 724 l 389 861 l 336 861 l 336 849 q 322 691 336 750 q 285 596 308 632 q 214 508 261 560 l 194 486 l 56 569 m 851 386 l 851 438 l 1111 438 l 1111 0 l 167 0 l 167 438 l 428 438 l 428 386 l 851 386 m 851 167 l 851 219 l 428 219 l 428 167 l 851 167 z "},"깻":{"ha":1208,"x_min":56,"x_max":1125,"o":"m 850 667 l 850 460 l 631 460 l 631 1056 l 850 1056 l 850 847 l 892 847 l 892 1056 l 1111 1056 l 1111 418 l 892 418 l 892 667 l 850 667 m 56 556 q 126 677 107 610 q 146 849 146 744 l 146 861 l 83 861 l 83 1042 l 581 1042 l 581 849 q 567 669 581 740 q 527 547 554 597 q 453 444 500 497 l 300 514 q 371 645 351 568 q 390 849 390 722 l 390 861 l 336 861 l 336 849 q 320 678 336 743 q 278 575 304 614 q 194 472 251 536 l 56 556 m 1097 0 q 835 37 953 0 q 639 143 718 74 q 442 37 560 74 q 181 0 325 0 l 153 208 q 403 260 306 208 q 508 418 500 313 l 769 418 q 875 260 778 313 q 1125 208 972 208 l 1097 0 z "},"깼":{"ha":1250,"x_min":56,"x_max":1167,"o":"m 919 1056 l 1167 1056 l 1167 424 l 919 424 l 919 653 l 878 653 l 878 424 l 631 424 l 631 1056 l 878 1056 l 878 833 l 919 833 l 919 1056 m 56 528 q 127 653 108 582 q 146 849 146 724 l 146 861 l 83 861 l 83 1042 l 581 1042 l 581 849 q 569 650 581 725 q 530 524 557 575 q 453 417 503 474 l 300 486 q 372 622 353 540 q 390 849 390 703 l 390 861 l 336 861 l 336 849 q 320 659 336 729 q 277 549 304 589 q 194 444 250 508 l 56 528 m 1028 382 q 1067 249 1028 303 q 1167 194 1106 194 l 1139 0 q 1015 23 1075 0 q 907 88 956 46 q 806 23 863 46 q 690 0 750 0 l 667 94 l 643 0 q 527 23 583 0 q 426 88 471 46 q 318 23 378 46 q 194 0 258 0 l 167 194 q 267 249 228 194 q 306 382 306 303 l 553 382 q 584 260 553 311 q 667 197 615 208 q 749 260 718 208 q 781 382 781 311 l 1028 382 z "},"깽":{"ha":1208,"x_min":56,"x_max":1125,"o":"m 892 1056 l 1125 1056 l 1125 479 l 892 479 l 892 681 l 850 681 l 850 479 l 631 479 l 631 1056 l 850 1056 l 850 861 l 892 861 l 892 1056 m 56 569 q 127 685 108 624 q 146 849 146 746 l 146 861 l 83 861 l 83 1042 l 581 1042 l 581 849 q 567 673 581 740 q 528 560 554 606 q 453 458 501 514 l 300 528 q 372 653 353 582 q 390 849 390 724 l 390 861 l 336 861 l 336 849 q 322 691 336 750 q 285 596 308 632 q 214 508 261 560 l 194 486 l 56 569 m 907 428 q 1063 367 1001 428 q 1125 214 1125 307 q 1063 60 1125 121 q 907 0 1001 0 l 399 0 q 242 60 304 0 q 181 214 181 121 q 242 367 181 307 q 399 428 304 428 l 907 428 m 838 188 q 856 195 849 188 q 864 214 864 203 q 856 233 864 225 q 838 240 849 240 l 468 240 q 449 233 457 240 q 442 214 442 225 q 449 195 442 203 q 468 188 457 188 l 838 188 z "},"꺄":{"ha":1146,"x_min":42,"x_max":1146,"o":"m 1146 639 l 1042 639 l 1042 431 l 1146 431 l 1146 222 l 1042 222 l 1042 0 l 782 0 l 782 1056 l 1042 1056 l 1042 847 l 1146 847 l 1146 639 m 725 793 q 680 383 725 536 q 559 156 635 229 q 375 42 483 82 l 319 222 q 416 333 382 264 q 465 512 450 403 q 479 793 479 621 l 479 833 l 419 833 l 419 793 q 381 432 419 567 q 272 231 342 297 q 97 125 203 164 l 42 319 q 134 420 103 361 q 176 565 165 479 q 188 793 188 651 l 188 833 l 83 833 l 83 1042 l 725 1042 l 725 793 z "},"꺅":{"ha":1158,"x_min":56,"x_max":1158,"o":"m 1158 786 l 1054 786 l 1054 726 l 1158 726 l 1158 532 l 1054 532 l 1054 458 l 794 458 l 794 1056 l 1054 1056 l 1054 981 l 1158 981 l 1158 786 m 343 582 q 83 472 260 472 l 56 681 q 159 715 131 681 q 188 833 188 750 l 83 833 l 83 1042 l 739 1042 l 739 885 q 361 444 739 444 l 343 582 m 418 833 q 383 657 411 728 q 466 710 439 668 q 493 833 493 751 l 418 833 m 111 188 l 111 396 l 1056 396 l 1056 0 l 794 0 l 794 188 l 111 188 z "},"꺌":{"ha":1167,"x_min":56,"x_max":1167,"o":"m 1167 849 l 1063 849 l 1063 794 l 1167 794 l 1167 646 l 1056 646 l 1056 583 l 803 583 l 803 1056 l 1063 1056 l 1063 997 l 1167 997 l 1167 849 m 407 875 q 301 658 382 733 q 83 583 221 583 l 56 750 q 146 782 111 750 q 181 875 181 814 l 83 875 l 83 1042 l 739 1042 l 739 1024 q 662 697 739 810 q 417 583 585 583 l 389 750 q 472 781 443 750 q 500 875 500 813 l 407 875 m 372 194 l 372 153 l 1069 153 l 1069 0 l 111 0 l 111 347 l 796 347 l 796 389 l 111 389 l 111 542 l 1056 542 l 1056 194 l 372 194 z "},"꺼":{"ha":1125,"x_min":42,"x_max":1042,"o":"m 1042 1058 l 1042 0 l 781 0 l 781 446 l 694 446 q 577 176 657 265 q 375 42 497 86 l 319 222 q 416 333 382 264 q 465 512 450 403 q 479 793 479 621 l 479 833 l 419 833 l 419 793 q 381 432 419 567 q 272 231 342 297 q 97 125 203 164 l 42 319 q 134 420 103 361 q 176 565 165 479 q 188 793 188 651 l 188 833 l 83 833 l 83 1042 l 725 1042 l 725 793 q 721 654 725 719 l 781 654 l 781 1058 l 1042 1058 z "},"꺽":{"ha":1139,"x_min":56,"x_max":1056,"o":"m 1056 1056 l 1056 444 l 794 444 l 794 647 l 700 647 q 361 444 617 444 l 343 582 q 83 472 260 472 l 56 681 q 159 715 131 681 q 188 833 188 750 l 83 833 l 83 1042 l 739 1042 l 739 885 l 739 857 l 794 857 l 794 1056 l 1056 1056 m 383 657 q 466 710 439 668 q 493 833 493 751 l 418 833 q 383 657 411 728 m 111 188 l 111 396 l 1056 396 l 1056 0 l 794 0 l 794 188 l 111 188 z "},"꺾":{"ha":1139,"x_min":56,"x_max":1056,"o":"m 1056 1056 l 1056 444 l 794 444 l 794 647 l 700 647 q 361 444 617 444 l 343 582 q 83 472 260 472 l 56 681 q 159 715 131 681 q 188 833 188 750 l 83 833 l 83 1042 l 739 1042 l 739 885 l 739 857 l 794 857 l 794 1056 l 1056 1056 m 383 657 q 466 710 439 668 q 493 833 493 751 l 418 833 q 383 657 411 728 m 111 188 l 111 396 l 556 396 l 556 0 l 294 0 l 294 188 l 111 188 m 611 188 l 611 396 l 1056 396 l 1056 0 l 794 0 l 794 188 l 611 188 z "},"껀":{"ha":1139,"x_min":56,"x_max":1056,"o":"m 1056 1056 l 1056 368 l 794 368 l 794 606 l 679 606 q 361 444 590 444 l 343 582 q 83 472 260 472 l 56 681 q 159 715 131 681 q 188 833 188 750 l 83 833 l 83 1042 l 739 1042 l 739 885 q 736 815 739 860 l 794 815 l 794 1056 l 1056 1056 m 383 657 q 466 710 439 668 q 493 833 493 751 l 418 833 q 383 657 411 728 m 372 396 l 372 208 l 1056 208 l 1056 0 l 111 0 l 111 396 l 372 396 z "},"껄":{"ha":1153,"x_min":56,"x_max":1069,"o":"m 407 875 q 301 658 382 733 q 83 583 221 583 l 56 750 q 146 782 111 750 q 181 875 181 814 l 83 875 l 83 1042 l 739 1042 l 739 1024 q 733 910 739 958 l 796 910 l 796 1056 l 1056 1056 l 1056 583 l 796 583 l 796 719 l 719 719 l 719 832 q 417 583 661 583 l 389 750 q 472 781 443 750 q 500 875 500 813 l 407 875 m 372 153 l 1069 153 l 1069 0 l 111 0 l 111 347 l 796 347 l 796 389 l 111 389 l 111 542 l 1056 542 l 1056 194 l 372 194 l 372 153 z "},"껌":{"ha":1142,"x_min":56,"x_max":1058,"o":"m 1058 1056 l 1058 486 l 797 486 l 797 661 l 703 661 q 576 516 661 560 q 361 472 490 472 l 344 597 q 238 523 303 546 q 83 500 174 500 l 56 708 q 137 717 110 708 q 176 752 164 726 q 188 833 188 778 l 83 833 l 83 1042 l 739 1042 l 739 885 l 739 871 l 797 871 l 797 1056 l 1058 1056 m 392 683 q 468 723 443 690 q 493 833 493 756 l 418 833 q 392 683 414 751 m 111 0 l 111 435 l 1058 435 l 1058 0 l 111 0 m 372 247 l 372 188 l 797 188 l 797 247 l 372 247 z "},"껍":{"ha":1139,"x_min":56,"x_max":1056,"o":"m 1056 1056 l 1056 486 l 794 486 l 794 661 l 703 661 q 576 516 661 560 q 361 472 490 472 l 344 597 q 238 523 303 546 q 83 500 174 500 l 56 708 q 137 717 110 708 q 176 752 164 726 q 188 833 188 778 l 83 833 l 83 1042 l 739 1042 l 739 885 l 739 871 l 794 871 l 794 1056 l 1056 1056 m 392 683 q 468 723 443 690 q 493 833 493 756 l 418 833 q 392 683 414 751 m 796 386 l 796 438 l 1056 438 l 1056 0 l 111 0 l 111 438 l 372 438 l 372 386 l 796 386 m 796 167 l 796 219 l 372 219 l 372 167 l 796 167 z "},"껏":{"ha":1153,"x_min":56,"x_max":1069,"o":"m 343 582 q 83 472 260 472 l 56 681 q 159 715 131 681 q 188 833 188 750 l 83 833 l 83 1042 l 739 1042 l 739 885 q 738 843 739 857 l 794 843 l 794 1056 l 1056 1056 l 1056 418 l 794 418 l 794 633 l 694 633 q 361 444 607 444 l 343 582 m 418 833 q 383 657 411 728 q 466 710 439 668 q 493 833 493 751 l 418 833 m 1042 0 q 780 37 897 0 q 583 143 663 74 q 387 37 504 74 q 125 0 269 0 l 97 208 q 347 260 250 208 q 453 418 444 313 l 714 418 q 819 260 722 313 q 1069 208 917 208 l 1042 0 z "},"껐":{"ha":1167,"x_min":56,"x_max":1083,"o":"m 56 653 q 136 667 108 653 q 176 719 164 681 q 188 833 188 757 l 83 833 l 83 1042 l 739 1042 l 739 885 q 738 843 739 857 l 794 843 l 794 1056 l 1056 1056 l 1056 431 l 794 431 l 794 633 l 703 633 q 577 477 663 524 q 361 431 492 431 l 344 556 q 238 471 303 497 q 83 444 174 444 l 56 653 m 418 833 q 388 642 414 724 q 468 690 443 650 q 493 833 493 731 l 418 833 m 1056 0 q 932 23 992 0 q 824 88 872 46 q 723 23 779 46 q 607 0 667 0 l 583 94 l 560 0 q 444 23 500 0 q 343 88 388 46 q 235 23 294 46 q 111 0 175 0 l 83 194 q 183 249 144 194 q 222 382 222 303 l 469 382 q 501 260 469 311 q 583 197 532 208 q 666 260 635 208 q 697 382 697 311 l 944 382 q 983 249 944 303 q 1083 194 1022 194 l 1056 0 z "},"껑":{"ha":1139,"x_min":56,"x_max":1056,"o":"m 1056 1056 l 1056 472 l 794 472 l 794 647 l 699 647 q 572 503 657 549 q 361 458 486 458 l 343 590 q 83 486 263 486 l 56 694 q 136 706 108 694 q 176 748 164 718 q 188 833 188 778 l 83 833 l 83 1042 l 739 1042 l 739 885 l 739 857 l 794 857 l 794 1056 l 1056 1056 m 388 671 q 467 716 442 679 q 493 833 493 753 l 418 833 q 388 671 414 742 m 838 428 q 994 367 932 428 q 1056 214 1056 307 q 994 60 1056 121 q 838 0 932 0 l 329 0 q 173 60 235 0 q 111 214 111 121 q 173 367 111 307 q 329 428 235 428 l 838 428 m 768 188 q 787 195 779 188 q 794 214 794 203 q 787 233 794 225 q 768 240 779 240 l 399 240 q 380 233 388 240 q 372 214 372 225 q 380 195 372 203 q 399 188 388 188 l 768 188 z "},"께":{"ha":1194,"x_min":42,"x_max":1111,"o":"m 631 1056 l 850 1056 l 850 14 l 631 14 l 631 431 l 569 431 q 540 264 560 331 q 483 147 519 197 q 383 42 446 96 l 258 153 q 348 290 319 215 q 383 458 376 365 q 390 721 390 551 l 390 793 l 390 833 l 336 833 l 336 793 q 324 471 336 581 q 278 286 313 361 q 167 125 243 211 l 42 222 q 119 363 94 282 q 152 541 144 443 q 160 793 160 639 l 160 833 l 83 833 l 83 1042 l 581 1042 l 581 793 q 579 639 581 686 l 631 639 l 631 1056 m 892 1056 l 1111 1056 l 1111 0 l 892 0 l 892 1056 z "},"껙":{"ha":1194,"x_min":56,"x_max":1111,"o":"m 56 542 q 127 665 108 596 q 146 849 146 735 l 146 861 l 83 861 l 83 1042 l 579 1042 l 579 849 l 579 847 l 629 847 l 629 1056 l 849 1056 l 849 438 l 629 438 l 629 667 l 567 667 q 528 539 556 590 q 451 431 501 488 l 299 500 q 370 633 351 554 q 389 849 389 713 l 389 861 l 336 861 l 336 849 q 320 669 336 736 q 277 562 304 601 q 194 458 250 522 l 56 542 m 892 1056 l 1111 1056 l 1111 438 l 892 438 l 892 1056 m 167 188 l 167 396 l 1111 396 l 1111 0 l 850 0 l 850 188 l 167 188 z "},"껜":{"ha":1194,"x_min":56,"x_max":1111,"o":"m 56 542 q 127 665 108 596 q 146 849 146 735 l 146 861 l 83 861 l 83 1042 l 579 1042 l 579 849 l 579 847 l 629 847 l 629 1056 l 849 1056 l 849 368 l 629 368 l 629 667 l 567 667 q 528 539 556 590 q 451 431 501 488 l 299 500 q 370 633 351 554 q 389 849 389 713 l 389 861 l 336 861 l 336 849 q 320 669 336 736 q 277 562 304 601 q 194 458 250 522 l 56 542 m 892 1056 l 1111 1056 l 1111 326 l 892 326 l 892 1056 m 428 396 l 428 208 l 1111 208 l 1111 0 l 167 0 l 167 396 l 428 396 z "},"껨":{"ha":1197,"x_min":56,"x_max":1114,"o":"m 56 569 q 127 685 108 624 q 146 849 146 746 l 146 861 l 83 861 l 83 1042 l 579 1042 l 579 861 l 629 861 l 629 1056 l 849 1056 l 849 479 l 629 479 l 629 681 l 567 681 q 529 564 556 611 q 451 458 503 517 l 299 528 q 370 653 351 582 q 389 849 389 724 l 389 861 l 336 861 l 336 849 q 322 691 336 750 q 285 596 308 632 q 214 508 261 560 l 194 486 l 56 569 m 1111 1056 l 1111 479 l 892 479 l 892 1056 l 1111 1056 m 167 435 l 1114 435 l 1114 0 l 167 0 l 167 435 m 853 188 l 853 247 l 428 247 l 428 188 l 853 188 z "},"껫":{"ha":1208,"x_min":56,"x_max":1125,"o":"m 56 556 q 126 677 107 610 q 146 849 146 744 l 146 861 l 83 861 l 83 1042 l 579 1042 l 579 849 l 579 847 l 629 847 l 629 1056 l 849 1056 l 849 460 l 629 460 l 629 667 l 565 667 q 526 547 553 597 q 451 444 499 497 l 299 514 q 369 645 350 568 q 389 849 389 722 l 389 861 l 336 861 l 336 849 q 320 678 336 743 q 278 575 304 614 q 194 472 251 536 l 56 556 m 1111 1056 l 1111 418 l 892 418 l 892 1056 l 1111 1056 m 1097 0 q 835 37 953 0 q 639 143 718 74 q 442 37 560 74 q 181 0 325 0 l 153 208 q 403 260 306 208 q 508 418 500 313 l 769 418 q 875 260 778 313 q 1125 208 972 208 l 1097 0 z "},"껭":{"ha":1194,"x_min":56,"x_max":1111,"o":"m 56 569 q 127 685 108 624 q 146 849 146 746 l 146 861 l 83 861 l 83 1042 l 579 1042 l 579 861 l 629 861 l 629 1056 l 849 1056 l 849 479 l 629 479 l 629 681 l 567 681 q 529 564 556 611 q 451 458 503 517 l 299 528 q 370 653 351 582 q 389 849 389 724 l 389 861 l 336 861 l 336 849 q 322 691 336 750 q 285 596 308 632 q 214 508 261 560 l 194 486 l 56 569 m 892 1056 l 1111 1056 l 1111 479 l 892 479 l 892 1056 m 893 428 q 1049 367 988 428 q 1111 214 1111 307 q 1049 60 1111 121 q 893 0 988 0 l 385 0 q 228 60 290 0 q 167 214 167 121 q 228 367 167 307 q 385 428 290 428 l 893 428 m 824 188 q 842 195 835 188 q 850 214 850 203 q 842 233 850 225 q 824 240 835 240 l 454 240 q 435 233 443 240 q 428 214 428 225 q 435 195 428 203 q 454 188 443 188 l 824 188 z "},"껴":{"ha":1125,"x_min":42,"x_max":1042,"o":"m 1042 1058 l 1042 0 l 781 0 l 781 222 l 663 222 l 663 331 q 547 143 618 208 q 375 42 476 78 l 319 222 q 416 333 382 264 q 465 512 450 403 q 479 793 479 621 l 479 833 l 419 833 l 419 793 q 381 432 419 567 q 272 231 342 297 q 97 125 203 164 l 42 319 q 134 420 103 361 q 176 565 165 479 q 188 793 188 651 l 188 833 l 83 833 l 83 1042 l 725 1042 l 725 849 l 781 849 l 781 1058 l 1042 1058 m 781 640 l 721 640 q 692 432 713 521 l 781 432 l 781 640 z "},"껸":{"ha":1139,"x_min":56,"x_max":1056,"o":"m 1056 1056 l 1056 368 l 796 368 l 796 511 l 664 511 l 664 581 q 361 444 569 444 l 343 582 q 83 472 260 472 l 56 681 q 159 715 131 681 q 188 833 188 750 l 83 833 l 83 1042 l 739 1042 l 739 946 l 796 946 l 796 1056 l 1056 1056 m 383 657 q 466 710 439 668 q 493 833 493 751 l 418 833 q 383 657 411 728 m 796 765 l 731 765 q 715 692 722 715 l 796 692 l 796 765 m 372 396 l 372 208 l 1056 208 l 1056 0 l 111 0 l 111 396 l 372 396 z "},"껼":{"ha":1153,"x_min":56,"x_max":1069,"o":"m 407 875 q 301 658 382 733 q 83 583 221 583 l 56 750 q 146 782 111 750 q 181 875 181 814 l 83 875 l 83 1042 l 739 1042 l 739 1024 l 739 997 l 796 997 l 796 1056 l 1056 1056 l 1056 583 l 803 583 l 803 646 l 678 646 l 678 722 q 417 583 600 583 l 389 750 q 472 781 443 750 q 500 875 500 813 l 407 875 m 724 849 q 710 794 726 858 l 796 794 l 796 849 l 724 849 m 372 153 l 1069 153 l 1069 0 l 111 0 l 111 347 l 796 347 l 796 389 l 111 389 l 111 542 l 1056 542 l 1056 194 l 372 194 l 372 153 z "},"꼇":{"ha":1153,"x_min":56,"x_max":1069,"o":"m 343 582 q 83 472 260 472 l 56 681 q 159 715 131 681 q 188 833 188 750 l 83 833 l 83 1042 l 739 1042 l 739 960 l 799 960 l 799 1056 l 1058 1056 l 1058 431 l 799 431 l 799 525 l 681 525 l 681 607 q 361 444 592 444 l 343 582 m 418 833 q 383 657 411 728 q 466 710 439 668 q 493 833 493 751 l 418 833 m 799 779 l 733 779 q 719 706 725 731 l 799 706 l 799 779 m 1042 0 q 780 37 897 0 q 583 143 663 74 q 387 37 504 74 q 125 0 269 0 l 97 208 q 347 260 250 208 q 453 418 444 313 l 714 418 q 819 260 722 313 q 1069 208 917 208 l 1042 0 z "},"꼈":{"ha":1169,"x_min":56,"x_max":1086,"o":"m 344 543 q 238 458 303 485 q 83 431 174 431 l 56 639 q 137 653 110 639 q 176 709 164 668 q 188 833 188 750 l 83 833 l 83 1042 l 739 1042 l 739 946 l 799 946 l 799 1056 l 1058 1056 l 1058 424 l 799 424 l 799 511 l 694 511 l 694 603 q 569 459 651 501 q 361 417 486 417 l 344 543 m 418 833 q 386 628 414 711 q 467 679 442 636 q 493 833 493 722 l 418 833 m 799 765 l 733 765 q 721 692 729 725 l 799 692 l 799 765 m 1058 0 q 935 23 994 0 q 826 88 875 46 q 726 23 782 46 q 610 0 669 0 l 586 94 l 563 0 q 447 23 503 0 q 346 88 390 46 q 238 23 297 46 q 114 0 178 0 l 86 194 q 186 249 147 194 q 225 382 225 303 l 472 382 q 503 260 472 311 q 586 197 535 208 q 669 260 638 208 q 700 382 700 311 l 947 382 q 986 249 947 303 q 1086 194 1025 194 l 1058 0 z "},"꼍":{"ha":1139,"x_min":56,"x_max":1056,"o":"m 1056 1056 l 1056 583 l 803 583 l 803 646 l 678 646 l 678 722 q 417 583 600 583 l 389 750 q 472 781 443 750 q 500 875 500 813 l 407 875 q 301 658 382 733 q 83 583 221 583 l 56 750 q 146 782 111 750 q 181 875 181 814 l 83 875 l 83 1042 l 739 1042 l 739 1024 l 739 997 l 796 997 l 796 1056 l 1056 1056 m 796 849 l 724 849 q 710 794 726 858 l 796 794 l 796 849 m 111 0 l 111 547 l 1056 547 l 1056 397 l 372 397 l 372 344 l 1056 344 l 1056 201 l 372 201 l 372 150 l 1056 150 l 1056 0 l 111 0 z "},"꼐":{"ha":1194,"x_min":42,"x_max":1111,"o":"m 629 1056 l 849 1056 l 849 14 l 629 14 l 629 222 l 554 222 l 554 326 q 497 169 536 232 q 382 42 457 107 l 257 153 q 347 290 318 215 q 382 458 375 365 q 389 721 389 551 l 389 793 l 389 833 l 336 833 l 336 793 q 324 471 336 581 q 278 286 313 361 q 167 125 243 211 l 42 222 q 119 363 94 282 q 152 541 144 443 q 160 793 160 639 l 160 833 l 83 833 l 83 1042 l 579 1042 l 579 847 l 629 847 l 629 1056 m 892 1056 l 1111 1056 l 1111 0 l 892 0 l 892 1056 m 629 639 l 578 639 q 568 431 575 510 l 629 431 l 629 639 z "},"꼬":{"ha":1167,"x_min":83,"x_max":1083,"o":"m 714 250 l 1083 250 l 1083 42 l 83 42 l 83 250 l 453 250 l 453 431 l 285 431 l 285 833 l 111 833 l 111 1042 l 544 1042 l 535 625 l 714 625 l 714 250 m 796 431 l 796 833 l 614 833 l 614 1042 l 1056 1042 l 1042 431 l 796 431 z "},"꼭":{"ha":1167,"x_min":83,"x_max":1083,"o":"m 706 621 l 1083 621 l 1083 413 l 83 413 l 83 621 l 444 621 l 444 690 l 281 690 l 281 833 l 111 833 l 111 1042 l 542 1042 l 531 757 l 706 757 l 706 621 m 794 690 l 794 833 l 611 833 l 611 1042 l 1056 1042 l 1042 690 l 794 690 m 111 132 l 111 340 l 1056 340 l 1056 0 l 794 0 l 794 132 l 111 132 z "},"꼰":{"ha":1167,"x_min":83,"x_max":1083,"o":"m 706 621 l 1083 621 l 1083 413 l 83 413 l 83 621 l 444 621 l 444 690 l 281 690 l 281 833 l 111 833 l 111 1042 l 542 1042 l 531 757 l 706 757 l 706 621 m 794 690 l 794 833 l 611 833 l 611 1042 l 1056 1042 l 1042 690 l 794 690 m 372 340 l 372 208 l 1056 208 l 1056 0 l 111 0 l 111 340 l 372 340 z "},"꼲":{"ha":1167,"x_min":83,"x_max":1083,"o":"m 714 635 l 1083 635 l 1083 440 l 83 440 l 83 635 l 453 635 l 453 704 l 281 704 l 281 847 l 111 847 l 111 1042 l 542 1042 l 531 771 l 714 771 l 714 635 m 794 704 l 794 847 l 611 847 l 611 1042 l 1056 1042 l 1042 704 l 794 704 m 954 361 l 1083 361 l 1083 201 l 1051 201 q 1056 160 1056 183 q 997 39 1056 78 q 838 0 939 0 l 810 0 q 650 39 708 0 q 592 160 592 78 q 596 201 592 183 l 564 201 l 564 361 l 693 361 l 693 410 l 954 410 l 954 361 m 344 375 l 344 167 l 556 167 l 556 0 l 111 0 l 111 375 l 344 375 m 824 136 q 847 143 838 136 q 856 160 856 150 q 847 178 856 171 q 824 185 838 185 q 801 178 810 185 q 793 160 793 171 q 801 142 793 149 q 824 136 810 136 z "},"꼴":{"ha":1167,"x_min":83,"x_max":1083,"o":"m 714 739 l 1083 739 l 1083 583 l 83 583 l 83 739 l 453 739 l 453 781 l 281 781 l 281 875 l 111 875 l 111 1042 l 556 1042 l 543 819 l 714 819 l 714 739 m 781 781 l 781 875 l 611 875 l 611 1042 l 1056 1042 l 1042 781 l 781 781 m 358 194 l 358 153 l 1069 153 l 1069 0 l 111 0 l 111 347 l 796 347 l 796 389 l 111 389 l 111 542 l 1056 542 l 1056 194 l 358 194 z "},"꼼":{"ha":1167,"x_min":83,"x_max":1083,"o":"m 715 685 l 1083 685 l 1083 490 l 83 490 l 83 685 l 454 685 l 454 740 l 281 740 l 281 847 l 111 847 l 111 1042 l 542 1042 l 529 785 l 715 785 l 715 685 m 794 740 l 794 847 l 611 847 l 611 1042 l 1056 1042 l 1042 740 l 794 740 m 111 0 l 111 435 l 1056 435 l 1056 0 l 111 0 m 372 247 l 372 188 l 794 188 l 794 247 l 372 247 z "},"꼽":{"ha":1167,"x_min":83,"x_max":1083,"o":"m 714 685 l 1083 685 l 1083 490 l 83 490 l 83 685 l 453 685 l 453 740 l 281 740 l 281 847 l 111 847 l 111 1042 l 542 1042 l 529 785 l 714 785 l 714 685 m 794 740 l 794 847 l 611 847 l 611 1042 l 1056 1042 l 1042 740 l 794 740 m 796 386 l 796 444 l 1056 444 l 1056 0 l 111 0 l 111 444 l 372 444 l 372 386 l 796 386 m 796 167 l 796 219 l 372 219 l 372 167 l 796 167 z "},"꼿":{"ha":1167,"x_min":83,"x_max":1083,"o":"m 714 621 l 1083 621 l 1083 413 l 83 413 l 83 621 l 453 621 l 453 690 l 281 690 l 281 833 l 111 833 l 111 1042 l 542 1042 l 531 757 l 714 757 l 714 621 m 794 690 l 794 833 l 611 833 l 611 1042 l 1056 1042 l 1042 690 l 794 690 m 714 363 q 765 258 719 292 q 881 217 811 225 q 1069 208 951 208 l 1042 0 q 583 110 733 0 q 125 0 433 0 l 97 208 q 285 217 215 208 q 401 258 356 225 q 453 363 447 292 l 714 363 z "},"꽁":{"ha":1167,"x_min":83,"x_max":1083,"o":"m 714 685 l 1083 685 l 1083 490 l 83 490 l 83 685 l 453 685 l 453 740 l 281 740 l 281 847 l 111 847 l 111 1042 l 542 1042 l 529 785 l 714 785 l 714 685 m 794 740 l 794 847 l 611 847 l 611 1042 l 1056 1042 l 1042 740 l 794 740 m 838 428 q 994 367 932 428 q 1056 214 1056 307 q 994 60 1056 121 q 838 0 932 0 l 329 0 q 173 60 235 0 q 111 214 111 121 q 173 367 111 307 q 329 428 235 428 l 838 428 m 768 188 q 787 195 779 188 q 794 214 794 203 q 787 233 794 225 q 768 240 779 240 l 399 240 q 380 233 388 240 q 372 214 372 225 q 380 195 372 203 q 399 188 388 188 l 768 188 z "},"꽂":{"ha":1167,"x_min":83,"x_max":1083,"o":"m 714 685 l 1083 685 l 1083 490 l 83 490 l 83 685 l 453 685 l 453 740 l 281 740 l 281 847 l 111 847 l 111 1042 l 542 1042 l 529 785 l 714 785 l 714 685 m 794 740 l 794 847 l 611 847 l 611 1042 l 1056 1042 l 1042 740 l 794 740 m 765 254 q 882 195 808 210 q 1069 181 956 181 l 1042 0 q 583 115 731 0 q 125 0 436 0 l 97 181 q 285 195 211 181 q 401 254 358 210 l 111 254 l 111 428 l 1056 428 l 1056 254 l 765 254 z "},"꽃":{"ha":1167,"x_min":83,"x_max":1083,"o":"m 714 699 l 1083 699 l 1083 518 l 83 518 l 83 699 l 453 699 l 453 754 l 281 754 l 281 861 l 111 861 l 111 1042 l 542 1042 l 531 799 l 714 799 l 714 699 m 794 754 l 794 861 l 611 861 l 611 1042 l 1056 1042 l 1042 754 l 794 754 m 760 254 q 878 195 801 210 q 1069 181 954 181 l 1042 0 q 583 115 731 0 q 125 0 436 0 l 97 181 q 289 195 213 181 q 407 254 365 210 l 111 254 l 111 428 l 439 428 l 439 490 l 728 490 l 728 428 l 1056 428 l 1056 254 l 760 254 z "},"꽈":{"ha":1160,"x_min":83,"x_max":1160,"o":"m 1056 1056 l 796 1056 l 796 0 l 1056 0 l 1056 417 l 1160 417 l 1160 625 l 1056 625 l 1056 1056 m 713 1042 l 111 1042 l 111 833 l 181 833 l 181 472 l 399 472 l 413 833 l 479 833 l 479 472 l 699 472 l 713 1042 m 542 417 l 282 417 l 282 250 l 83 250 l 83 42 l 754 42 l 754 250 l 542 250 l 542 417 z "},"꽉":{"ha":1160,"x_min":83,"x_max":1160,"o":"m 1056 806 l 1160 806 l 1160 597 l 1056 597 l 1056 340 l 796 340 l 796 1056 l 1056 1056 l 1056 806 m 189 671 l 189 833 l 111 833 l 111 1042 l 740 1042 l 726 601 l 494 601 l 494 833 l 426 833 l 421 671 l 189 671 m 754 546 l 754 354 l 83 354 l 83 546 l 206 546 l 206 629 l 439 629 l 439 546 l 754 546 m 111 104 l 111 299 l 1056 299 l 1056 0 l 794 0 l 794 104 l 111 104 z "},"꽐":{"ha":1160,"x_min":83,"x_max":1160,"o":"m 1056 910 l 1160 910 l 1160 719 l 1056 719 l 1056 583 l 796 583 l 796 1056 l 1056 1056 l 1056 910 m 189 808 l 189 889 l 111 889 l 111 1042 l 740 1042 l 726 781 l 494 781 l 494 889 l 425 889 l 421 808 l 189 808 m 754 739 l 754 583 l 83 583 l 83 739 l 219 739 l 219 781 l 453 781 l 453 739 l 754 739 m 372 194 l 372 153 l 1069 153 l 1069 0 l 111 0 l 111 347 l 796 347 l 796 389 l 111 389 l 111 542 l 1056 542 l 1056 194 l 372 194 z "},"꽜":{"ha":1160,"x_min":83,"x_max":1160,"o":"m 1056 819 l 1160 819 l 1160 611 l 1056 611 l 1056 396 l 796 396 l 796 1056 l 1056 1056 l 1056 819 m 189 713 l 189 847 l 111 847 l 111 1042 l 740 1042 l 726 643 l 494 643 l 494 847 l 426 847 l 421 713 l 189 713 m 754 588 l 754 410 l 83 410 l 83 588 l 206 588 l 206 671 l 439 671 l 439 588 l 754 588 m 958 368 q 994 221 958 261 q 1097 181 1031 181 l 1069 0 q 843 71 935 0 q 635 0 757 0 l 597 108 l 560 0 q 351 71 438 0 q 125 0 260 0 l 97 181 q 200 221 164 181 q 236 368 236 261 l 483 368 q 513 230 483 272 q 597 182 543 188 q 681 230 651 188 q 711 368 711 272 l 958 368 z "},"꽝":{"ha":1160,"x_min":83,"x_max":1160,"o":"m 1056 847 l 1160 847 l 1160 639 l 1056 639 l 1056 428 l 796 428 l 796 1056 l 1056 1056 l 1056 847 m 189 744 l 189 847 l 111 847 l 111 1042 l 740 1042 l 726 675 l 494 675 l 494 847 l 425 847 l 421 744 l 189 744 m 754 619 l 754 442 l 83 442 l 83 619 l 206 619 l 206 703 l 439 703 l 439 619 l 754 619 m 851 400 q 1001 347 947 400 q 1056 200 1056 294 q 1001 53 1056 106 q 851 0 947 0 l 315 0 q 165 53 219 0 q 111 200 111 106 q 165 347 111 294 q 315 400 219 400 l 851 400 m 768 174 q 794 200 794 174 q 768 226 794 226 l 399 226 q 372 200 372 226 q 399 174 372 174 l 768 174 z "},"꽤":{"ha":1194,"x_min":83,"x_max":1111,"o":"m 1111 1056 l 896 1056 l 896 611 l 854 611 l 854 1056 l 646 1056 l 646 14 l 854 14 l 854 431 l 896 431 l 896 0 l 1111 0 l 1111 1056 m 590 1042 l 111 1042 l 111 861 l 160 861 l 160 472 l 326 472 l 340 861 l 396 861 l 396 472 l 576 472 l 590 1042 m 431 417 l 243 417 l 243 222 l 83 222 l 83 42 l 604 42 l 604 222 l 431 222 l 431 417 z "},"꽥":{"ha":1194,"x_min":83,"x_max":1111,"o":"m 1111 1056 l 896 1056 l 896 792 l 854 792 l 854 1056 l 646 1056 l 646 361 l 854 361 l 854 611 l 896 611 l 896 361 l 1111 361 l 1111 1056 m 590 1042 l 83 1042 l 83 861 l 146 861 l 146 694 l 326 694 l 340 861 l 396 861 l 396 611 l 576 611 l 590 1042 m 333 639 l 146 639 l 146 556 l 83 556 l 83 375 l 604 375 l 604 556 l 333 556 l 333 639 m 167 132 l 850 132 l 850 0 l 1111 0 l 1111 326 l 167 326 l 167 132 z "},"꽹":{"ha":1194,"x_min":83,"x_max":1111,"o":"m 1111 1056 l 896 1056 l 896 826 l 854 826 l 854 1056 l 646 1056 l 646 431 l 854 431 l 854 646 l 896 646 l 896 431 l 1111 431 l 1111 1056 m 590 1042 l 83 1042 l 83 861 l 146 861 l 146 750 l 326 750 l 340 861 l 396 861 l 396 667 l 576 667 l 590 1042 m 333 694 l 146 694 l 146 611 l 83 611 l 83 444 l 604 444 l 604 611 l 333 611 l 333 694 m 1111 200 q 1057 347 1111 294 q 907 400 1003 400 l 371 400 q 221 347 275 400 q 167 200 167 294 q 221 53 167 106 q 371 0 275 0 l 907 0 q 1057 53 1003 0 q 1111 200 1111 106 m 824 226 q 850 200 850 226 q 824 174 850 174 l 454 174 q 428 200 428 174 q 454 226 428 226 l 824 226 z "},"꾀":{"ha":1139,"x_min":83,"x_max":1056,"o":"m 1056 1056 l 796 1056 l 796 0 l 1056 0 l 1056 1056 m 713 1042 l 111 1042 l 111 833 l 181 833 l 181 472 l 399 472 l 413 833 l 479 833 l 479 472 l 699 472 l 713 1042 m 542 417 l 282 417 l 282 250 l 83 250 l 83 42 l 754 42 l 754 250 l 542 250 l 542 417 z "},"꾄":{"ha":1139,"x_min":83,"x_max":1056,"o":"m 796 1056 l 1056 1056 l 1056 285 l 796 285 l 796 1056 m 189 671 l 189 833 l 111 833 l 111 1042 l 740 1042 l 726 601 l 494 601 l 494 833 l 426 833 l 421 671 l 189 671 m 754 546 l 754 354 l 83 354 l 83 546 l 206 546 l 206 629 l 439 629 l 439 546 l 754 546 m 372 299 l 372 194 l 1056 194 l 1056 0 l 111 0 l 111 299 l 372 299 z "},"꾈":{"ha":1153,"x_min":83,"x_max":1069,"o":"m 1056 1056 l 1056 583 l 796 583 l 796 1056 l 1056 1056 m 189 808 l 189 889 l 111 889 l 111 1042 l 740 1042 l 726 781 l 494 781 l 494 889 l 425 889 l 421 808 l 189 808 m 754 739 l 754 583 l 83 583 l 83 739 l 219 739 l 219 781 l 453 781 l 453 739 l 754 739 m 372 153 l 1069 153 l 1069 0 l 111 0 l 111 347 l 796 347 l 796 389 l 111 389 l 111 542 l 1056 542 l 1056 194 l 372 194 l 372 153 z "},"꾐":{"ha":1142,"x_min":83,"x_max":1058,"o":"m 1056 1056 l 1056 428 l 796 428 l 796 1056 l 1056 1056 m 189 744 l 189 847 l 111 847 l 111 1042 l 740 1042 l 726 675 l 494 675 l 494 847 l 425 847 l 421 744 l 189 744 m 754 619 l 754 442 l 83 442 l 83 619 l 206 619 l 206 703 l 439 703 l 439 619 l 754 619 m 111 400 l 1058 400 l 1058 0 l 111 0 l 111 400 m 797 174 l 797 226 l 372 226 l 372 174 l 797 174 z "},"꾑":{"ha":1139,"x_min":83,"x_max":1056,"o":"m 796 1056 l 1056 1056 l 1056 428 l 796 428 l 796 1056 m 189 744 l 189 847 l 111 847 l 111 1042 l 740 1042 l 726 675 l 494 675 l 494 847 l 425 847 l 421 744 l 189 744 m 754 619 l 754 442 l 83 442 l 83 619 l 206 619 l 206 703 l 439 703 l 439 619 l 754 619 m 796 349 l 796 400 l 1056 400 l 1056 -1 l 111 -1 l 111 400 l 372 400 l 372 349 l 796 349 m 796 151 l 796 196 l 372 196 l 372 151 l 796 151 z "},"꾕":{"ha":1139,"x_min":83,"x_max":1056,"o":"m 796 1056 l 1056 1056 l 1056 428 l 796 428 l 796 1056 m 189 744 l 189 847 l 111 847 l 111 1042 l 740 1042 l 726 675 l 494 675 l 494 847 l 425 847 l 421 744 l 189 744 m 754 619 l 754 442 l 83 442 l 83 619 l 206 619 l 206 703 l 439 703 l 439 619 l 754 619 m 851 400 q 1001 347 947 400 q 1056 200 1056 294 q 1001 53 1056 106 q 851 0 947 0 l 315 0 q 165 53 219 0 q 111 200 111 106 q 165 347 111 294 q 315 400 219 400 l 851 400 m 768 174 q 794 200 794 174 q 768 226 794 226 l 399 226 q 372 200 372 226 q 399 174 372 174 l 768 174 z "},"꾜":{"ha":1167,"x_min":83,"x_max":1083,"o":"m 285 500 l 285 833 l 111 833 l 111 1042 l 544 1042 l 531 500 l 285 500 m 796 500 l 796 833 l 614 833 l 614 1042 l 1056 1042 l 1042 500 l 796 500 m 922 250 l 1083 250 l 1083 42 l 83 42 l 83 250 l 244 250 l 244 444 l 506 444 l 506 250 l 661 250 l 661 444 l 922 444 l 922 250 z "},"꾸":{"ha":1167,"x_min":83,"x_max":1083,"o":"m 531 538 l 544 1042 l 111 1042 l 111 833 l 285 833 l 285 538 l 531 538 m 1042 538 l 1056 1042 l 614 1042 l 614 833 l 796 833 l 796 538 l 1042 538 m 1083 468 l 83 468 l 83 260 l 453 260 l 453 0 l 714 0 l 714 260 l 1083 260 l 1083 468 z "},"꾹":{"ha":1167,"x_min":83,"x_max":1083,"o":"m 281 690 l 281 833 l 111 833 l 111 1042 l 542 1042 l 528 690 l 281 690 m 794 690 l 794 833 l 611 833 l 611 1042 l 1056 1042 l 1042 690 l 794 690 m 1083 413 l 714 413 l 714 340 l 1056 340 l 1056 0 l 794 0 l 794 132 l 111 132 l 111 340 l 453 340 l 453 413 l 83 413 l 83 621 l 1083 621 l 1083 413 z "},"꾼":{"ha":1167,"x_min":83,"x_max":1083,"o":"m 281 690 l 281 833 l 111 833 l 111 1042 l 542 1042 l 528 690 l 281 690 m 794 690 l 794 833 l 611 833 l 611 1042 l 1056 1042 l 1042 690 l 794 690 m 83 621 l 1083 621 l 1083 413 l 714 413 l 714 278 l 453 278 l 453 413 l 83 413 l 83 621 m 372 340 l 372 208 l 1056 208 l 1056 0 l 111 0 l 111 340 l 372 340 z "},"꿀":{"ha":1167,"x_min":83,"x_max":1083,"o":"m 281 781 l 281 875 l 111 875 l 111 1042 l 556 1042 l 542 781 l 281 781 m 781 781 l 781 875 l 611 875 l 611 1042 l 1056 1042 l 1042 781 l 781 781 m 1083 583 l 714 583 l 714 542 l 1056 542 l 1056 194 l 358 194 l 358 153 l 1069 153 l 1069 0 l 111 0 l 111 347 l 796 347 l 796 389 l 111 389 l 111 542 l 453 542 l 453 583 l 83 583 l 83 739 l 1083 739 l 1083 583 z "},"꿇":{"ha":1169,"x_min":83,"x_max":1086,"o":"m 281 781 l 281 875 l 111 875 l 111 1042 l 556 1042 l 542 781 l 281 781 m 781 781 l 781 875 l 611 875 l 611 1042 l 1056 1042 l 1042 781 l 781 781 m 1086 585 l 714 585 l 714 500 l 742 500 l 742 549 l 961 549 l 961 500 l 1069 500 l 1069 340 l 592 340 l 592 389 l 549 389 l 549 194 l 344 194 l 344 153 l 569 153 l 569 0 l 111 0 l 111 347 l 338 347 l 338 389 l 111 389 l 111 542 l 454 542 l 454 585 l 83 585 l 83 739 l 1086 739 l 1086 585 m 844 319 q 1004 281 946 319 q 1063 160 1063 242 q 1004 39 1063 78 q 844 0 946 0 l 817 0 q 657 39 715 0 q 599 160 599 78 q 657 281 599 242 q 817 319 715 319 l 844 319 m 831 136 q 853 143 844 136 q 863 160 863 150 q 853 178 863 171 q 831 185 844 185 q 808 178 817 185 q 800 160 800 171 q 808 142 800 149 q 831 136 817 136 z "},"꿈":{"ha":1167,"x_min":83,"x_max":1083,"o":"m 281 740 l 281 847 l 111 847 l 111 1042 l 542 1042 l 528 740 l 281 740 m 794 740 l 794 847 l 611 847 l 611 1042 l 1056 1042 l 1042 740 l 794 740 m 1083 490 l 714 490 l 714 435 l 1056 435 l 1056 0 l 111 0 l 111 435 l 453 435 l 453 490 l 83 490 l 83 685 l 1083 685 l 1083 490 m 794 188 l 794 247 l 372 247 l 372 188 l 794 188 z "},"꿉":{"ha":1167,"x_min":83,"x_max":1083,"o":"m 281 740 l 281 847 l 111 847 l 111 1042 l 542 1042 l 528 740 l 281 740 m 794 740 l 794 847 l 611 847 l 611 1042 l 1056 1042 l 1042 740 l 794 740 m 83 685 l 1083 685 l 1083 490 l 714 490 l 714 428 l 453 428 l 453 490 l 83 490 l 83 685 m 796 386 l 796 444 l 1056 444 l 1056 0 l 111 0 l 111 444 l 372 444 l 372 386 l 796 386 m 796 167 l 796 219 l 372 219 l 372 167 l 796 167 z "},"꿋":{"ha":1167,"x_min":83,"x_max":1083,"o":"m 281 717 l 281 833 l 111 833 l 111 1042 l 542 1042 l 528 717 l 281 717 m 794 717 l 794 833 l 611 833 l 611 1042 l 1056 1042 l 1042 717 l 794 717 m 83 675 l 1083 675 l 1083 468 l 713 468 l 713 406 l 451 406 l 451 468 l 83 468 l 83 675 m 714 363 q 765 258 719 292 q 881 217 811 225 q 1069 208 951 208 l 1042 0 q 583 110 733 0 q 125 0 433 0 l 97 208 q 285 217 215 208 q 401 258 356 225 q 453 363 447 292 l 714 363 z "},"꿍":{"ha":1167,"x_min":83,"x_max":1083,"o":"m 281 740 l 281 847 l 111 847 l 111 1042 l 542 1042 l 528 740 l 281 740 m 794 740 l 794 847 l 611 847 l 611 1042 l 1056 1042 l 1042 740 l 794 740 m 714 490 l 714 428 l 838 428 q 994 367 932 428 q 1056 214 1056 307 q 994 60 1056 121 q 838 0 932 0 l 329 0 q 173 60 235 0 q 111 214 111 121 q 173 367 111 307 q 329 428 235 428 l 453 428 l 453 490 l 83 490 l 83 685 l 1083 685 l 1083 490 l 714 490 m 794 214 q 787 233 794 225 q 768 240 779 240 l 399 240 q 380 233 388 240 q 372 214 372 225 q 380 195 372 203 q 399 188 388 188 l 768 188 q 787 195 779 188 q 794 214 794 203 z "},"꿎":{"ha":1167,"x_min":83,"x_max":1083,"o":"m 281 740 l 281 847 l 111 847 l 111 1042 l 542 1042 l 528 740 l 281 740 m 794 740 l 794 847 l 611 847 l 611 1042 l 1056 1042 l 1042 740 l 794 740 m 83 699 l 1083 699 l 1083 504 l 714 504 l 714 456 l 453 456 l 453 504 l 83 504 l 83 699 m 765 254 q 882 195 808 210 q 1069 181 956 181 l 1042 0 q 583 115 731 0 q 125 0 436 0 l 97 181 q 285 195 211 181 q 401 254 358 210 l 111 254 l 111 428 l 1056 428 l 1056 254 l 765 254 z "},"꿔":{"ha":1142,"x_min":83,"x_max":1058,"o":"m 797 1056 l 1058 1056 l 1058 0 l 797 0 l 797 118 l 631 118 l 631 311 l 797 311 l 797 1056 m 175 639 l 175 847 l 111 847 l 111 1042 l 726 1042 l 713 639 l 481 639 l 481 847 l 414 847 l 407 639 l 175 639 m 756 576 l 756 367 l 511 367 l 497 14 l 250 14 l 250 367 l 83 367 l 83 576 l 756 576 z "},"꿜":{"ha":1153,"x_min":83,"x_max":1069,"o":"m 796 583 l 796 801 l 713 801 l 722 992 l 796 992 l 796 1056 l 1056 1056 l 1056 583 l 796 583 m 175 781 l 175 889 l 111 889 l 111 1042 l 685 1042 l 671 781 l 453 781 l 453 889 l 399 889 l 393 781 l 175 781 m 372 153 l 1069 153 l 1069 0 l 111 0 l 111 347 l 796 347 l 796 389 l 111 389 l 111 542 l 289 542 l 289 583 l 83 583 l 83 739 l 754 739 l 754 583 l 550 583 l 550 542 l 1056 542 l 1056 194 l 372 194 l 372 153 z "},"꿨":{"ha":1167,"x_min":83,"x_max":1083,"o":"m 796 396 l 796 754 l 713 754 l 721 946 l 796 946 l 796 1056 l 1056 1056 l 1056 396 l 796 396 m 175 699 l 175 861 l 111 861 l 111 1042 l 685 1042 l 671 699 l 453 699 l 453 861 l 400 861 l 393 699 l 175 699 m 275 396 l 275 479 l 83 479 l 83 657 l 754 657 l 754 479 l 536 479 l 536 396 l 275 396 m 1056 0 q 824 69 917 0 q 607 0 738 0 l 583 81 l 560 0 q 343 69 429 0 q 111 0 250 0 l 83 167 q 186 207 150 167 q 222 354 222 247 l 469 354 q 499 216 469 258 q 583 168 529 174 q 667 216 638 174 q 697 354 697 258 l 944 354 q 981 207 944 247 q 1083 167 1017 167 l 1056 0 z "},"꿩":{"ha":1139,"x_min":83,"x_max":1056,"o":"m 796 1056 l 1056 1056 l 1056 438 l 796 438 l 796 754 l 713 754 l 721 946 l 796 946 l 796 1056 m 175 699 l 175 861 l 111 861 l 111 1042 l 685 1042 l 671 699 l 453 699 l 453 861 l 400 861 l 393 699 l 175 699 m 275 424 l 275 479 l 83 479 l 83 657 l 754 657 l 754 479 l 536 479 l 536 424 l 275 424 m 851 400 q 1001 347 947 400 q 1056 200 1056 294 q 1001 53 1056 106 q 851 0 947 0 l 315 0 q 165 53 219 0 q 111 200 111 106 q 165 347 111 294 q 315 400 219 400 l 851 400 m 768 174 q 794 200 794 174 q 768 226 794 226 l 399 226 q 372 200 372 226 q 399 174 372 174 l 768 174 z "},"꿰":{"ha":1194,"x_min":83,"x_max":1111,"o":"m 847 1056 l 632 1056 l 632 313 l 461 313 l 461 118 l 632 118 l 632 0 l 847 0 l 847 1056 m 1111 1056 l 889 1056 l 889 0 l 1111 0 l 1111 1056 m 160 833 l 160 611 l 333 611 l 347 833 l 389 833 l 389 611 l 569 611 l 583 1042 l 111 1042 l 111 833 l 160 833 m 589 558 l 83 558 l 83 364 l 201 364 l 201 0 l 396 0 l 410 364 l 589 364 l 589 558 z "},"꿱":{"ha":1194,"x_min":83,"x_max":1111,"o":"m 160 667 l 160 833 l 111 833 l 111 1042 l 583 1042 l 579 938 l 632 938 l 632 1056 l 847 1056 l 847 368 l 632 368 l 632 743 l 572 743 l 569 667 l 389 667 l 389 833 l 347 833 l 333 667 l 160 667 m 889 1056 l 1111 1056 l 1111 368 l 889 368 l 889 1056 m 232 361 l 232 433 l 83 433 l 83 628 l 589 628 l 589 433 l 440 433 l 440 361 l 232 361 m 167 132 l 167 326 l 1111 326 l 1111 0 l 850 0 l 850 132 l 167 132 z "},"꿴":{"ha":1194,"x_min":83,"x_max":1111,"o":"m 160 667 l 160 833 l 111 833 l 111 1042 l 583 1042 l 579 938 l 632 938 l 632 1056 l 847 1056 l 847 299 l 632 299 l 632 743 l 572 743 l 569 667 l 389 667 l 389 833 l 347 833 l 333 667 l 160 667 m 889 1056 l 1111 1056 l 1111 271 l 889 271 l 889 1056 m 232 361 l 232 433 l 83 433 l 83 628 l 589 628 l 589 433 l 440 433 l 440 361 l 232 361 m 428 326 l 428 194 l 1111 194 l 1111 0 l 167 0 l 167 326 l 428 326 z "},"꿸":{"ha":1208,"x_min":83,"x_max":1125,"o":"m 160 781 l 160 889 l 111 889 l 111 1042 l 583 1042 l 581 979 l 632 979 l 632 1056 l 847 1056 l 847 583 l 632 583 l 632 840 l 572 840 l 569 781 l 389 781 l 389 889 l 347 889 l 333 781 l 160 781 m 1111 1056 l 1111 583 l 889 583 l 889 1056 l 1111 1056 m 428 153 l 1125 153 l 1125 0 l 167 0 l 167 347 l 851 347 l 851 389 l 167 389 l 167 542 l 232 542 l 232 583 l 83 583 l 83 739 l 589 739 l 589 583 l 440 583 l 440 542 l 1111 542 l 1111 194 l 428 194 l 428 153 z "},"뀀":{"ha":1194,"x_min":83,"x_max":1111,"o":"m 160 681 l 160 847 l 111 847 l 111 1042 l 583 1042 l 581 951 l 632 951 l 632 1056 l 847 1056 l 847 447 l 632 447 l 632 757 l 572 757 l 569 681 l 389 681 l 389 847 l 347 847 l 333 681 l 160 681 m 889 1056 l 1111 1056 l 1111 447 l 889 447 l 889 1056 m 440 461 l 440 407 l 1111 407 l 1111 0 l 167 0 l 167 407 l 232 407 l 232 461 l 83 461 l 83 642 l 589 642 l 589 461 l 440 461 m 850 174 l 850 233 l 428 233 l 428 174 l 850 174 z "},"뀁":{"ha":1194,"x_min":83,"x_max":1111,"o":"m 160 681 l 160 847 l 111 847 l 111 1042 l 583 1042 l 581 951 l 632 951 l 632 1056 l 847 1056 l 847 447 l 632 447 l 632 757 l 572 757 l 569 681 l 389 681 l 389 847 l 347 847 l 333 681 l 160 681 m 889 1056 l 1111 1056 l 1111 447 l 889 447 l 889 1056 m 851 358 l 851 417 l 1111 417 l 1111 0 l 167 0 l 167 417 l 301 417 l 301 461 l 83 461 l 83 642 l 589 642 l 589 461 l 510 461 l 510 400 l 428 400 l 428 358 l 851 358 m 851 153 l 851 206 l 428 206 l 428 153 l 851 153 z "},"뀄":{"ha":1222,"x_min":83,"x_max":1139,"o":"m 160 681 l 160 847 l 111 847 l 111 1042 l 583 1042 l 581 951 l 632 951 l 632 1056 l 847 1056 l 847 389 l 632 389 l 632 757 l 572 757 l 569 681 l 389 681 l 389 847 l 347 847 l 333 681 l 160 681 m 1111 1056 l 1111 389 l 889 389 l 889 1056 l 1111 1056 m 222 389 l 222 461 l 83 461 l 83 642 l 589 642 l 589 461 l 431 461 l 431 389 l 222 389 m 1111 0 q 879 69 972 0 q 663 0 793 0 l 639 81 l 615 0 q 399 69 485 0 q 167 0 306 0 l 139 167 q 242 207 206 167 q 278 354 278 247 l 525 354 q 555 216 525 258 q 639 168 585 174 q 723 216 693 174 q 753 354 753 258 l 1000 354 q 1036 207 1000 247 q 1139 167 1072 167 l 1111 0 z "},"뀌":{"ha":1142,"x_min":83,"x_max":1058,"o":"m 797 1056 l 1058 1056 l 1058 0 l 797 0 l 797 1056 m 175 535 l 175 847 l 111 847 l 111 1042 l 726 1042 l 713 535 l 481 535 l 481 847 l 415 847 l 407 535 l 175 535 m 83 256 l 83 465 l 756 465 l 756 256 l 511 256 l 497 14 l 250 14 l 250 256 l 83 256 z "},"뀐":{"ha":1139,"x_min":83,"x_max":1056,"o":"m 796 1056 l 1056 1056 l 1056 285 l 796 285 l 796 1056 m 189 629 l 189 833 l 111 833 l 111 1042 l 740 1042 l 726 629 l 494 629 l 494 833 l 428 833 l 421 629 l 189 629 m 372 250 l 372 194 l 1056 194 l 1056 0 l 111 0 l 111 299 l 289 299 l 289 368 l 83 368 l 83 560 l 754 560 l 754 368 l 550 368 l 550 250 l 372 250 z "},"뀔":{"ha":1153,"x_min":83,"x_max":1069,"o":"m 1056 1056 l 1056 583 l 796 583 l 796 1056 l 1056 1056 m 189 781 l 189 889 l 111 889 l 111 1042 l 740 1042 l 726 781 l 494 781 l 494 889 l 426 889 l 421 781 l 189 781 m 372 153 l 1069 153 l 1069 0 l 111 0 l 111 347 l 796 347 l 796 389 l 111 389 l 111 542 l 289 542 l 289 583 l 83 583 l 83 739 l 754 739 l 754 583 l 550 583 l 550 542 l 1056 542 l 1056 194 l 372 194 l 372 153 z "},"뀜":{"ha":1142,"x_min":83,"x_max":1058,"o":"m 1056 1056 l 1056 442 l 796 442 l 796 1056 l 1056 1056 m 189 675 l 189 847 l 111 847 l 111 1042 l 740 1042 l 726 675 l 494 675 l 494 847 l 428 847 l 421 675 l 189 675 m 550 400 l 1058 400 l 1058 0 l 111 0 l 111 400 l 289 400 l 289 456 l 83 456 l 83 633 l 754 633 l 754 456 l 550 456 l 550 400 m 797 174 l 797 226 l 372 226 l 372 174 l 797 174 z "},"뀝":{"ha":1139,"x_min":83,"x_max":1056,"o":"m 796 1056 l 1056 1056 l 1056 442 l 796 442 l 796 1056 m 189 675 l 189 847 l 111 847 l 111 1042 l 740 1042 l 726 675 l 494 675 l 494 847 l 428 847 l 421 675 l 189 675 m 796 358 l 796 417 l 1056 417 l 1056 0 l 111 0 l 111 417 l 289 417 l 289 456 l 83 456 l 83 633 l 754 633 l 754 456 l 550 456 l 550 400 l 372 400 l 372 358 l 796 358 m 796 153 l 796 206 l 372 206 l 372 153 l 796 153 z "},"뀨":{"ha":1167,"x_min":83,"x_max":1083,"o":"m 531 535 l 544 1042 l 111 1042 l 111 833 l 285 833 l 285 535 l 531 535 m 1042 535 l 1056 1042 l 614 1042 l 614 833 l 796 833 l 796 535 l 1042 535 m 1083 465 l 83 465 l 83 257 l 244 257 l 244 0 l 492 0 l 506 257 l 663 257 l 663 0 l 922 0 l 922 257 l 1083 257 l 1083 465 z "},"끄":{"ha":1167,"x_min":83,"x_max":1083,"o":"m 531 431 l 544 1042 l 111 1042 l 111 833 l 285 833 l 285 431 l 531 431 m 1042 431 l 1056 1042 l 614 1042 l 614 833 l 796 833 l 796 431 l 1042 431 m 83 250 l 83 42 l 1083 42 l 1083 250 l 83 250 z "},"끅":{"ha":1167,"x_min":83,"x_max":1083,"o":"m 281 833 l 281 690 l 528 690 l 542 1042 l 111 1042 l 111 833 l 281 833 m 794 833 l 794 690 l 1042 690 l 1056 1042 l 611 1042 l 611 833 l 794 833 m 83 621 l 83 413 l 1083 413 l 1083 621 l 83 621 m 1056 0 l 1056 340 l 111 340 l 111 132 l 794 132 l 794 0 l 1056 0 z "},"끈":{"ha":1167,"x_min":83,"x_max":1083,"o":"m 281 833 l 281 690 l 528 690 l 542 1042 l 111 1042 l 111 833 l 281 833 m 794 833 l 794 690 l 1042 690 l 1056 1042 l 611 1042 l 611 833 l 794 833 m 83 621 l 83 413 l 1083 413 l 1083 621 l 83 621 m 111 340 l 111 0 l 1056 0 l 1056 208 l 372 208 l 372 340 l 111 340 z "},"끊":{"ha":1167,"x_min":83,"x_max":1083,"o":"m 281 704 l 281 847 l 111 847 l 111 1042 l 542 1042 l 528 704 l 281 704 m 794 704 l 794 847 l 611 847 l 611 1042 l 1056 1042 l 1042 704 l 794 704 m 83 635 l 1083 635 l 1083 440 l 83 440 l 83 635 m 954 361 l 1083 361 l 1083 201 l 1051 201 q 1056 160 1056 183 q 997 39 1056 78 q 838 0 939 0 l 810 0 q 650 39 708 0 q 592 160 592 78 q 596 201 592 183 l 564 201 l 564 361 l 693 361 l 693 410 l 954 410 l 954 361 m 344 375 l 344 167 l 556 167 l 556 0 l 111 0 l 111 375 l 344 375 m 824 136 q 847 143 838 136 q 856 160 856 150 q 847 178 856 171 q 824 185 838 185 q 801 178 810 185 q 793 160 793 171 q 801 142 793 149 q 824 136 810 136 z "},"끌":{"ha":1167,"x_min":83,"x_max":1083,"o":"m 281 875 l 281 781 l 542 781 l 556 1042 l 111 1042 l 111 875 l 281 875 m 781 875 l 781 781 l 1042 781 l 1056 1042 l 611 1042 l 611 875 l 781 875 m 83 583 l 1083 583 l 1083 739 l 83 739 l 83 583 m 1056 194 l 1056 542 l 111 542 l 111 389 l 796 389 l 796 347 l 111 347 l 111 0 l 1069 0 l 1069 153 l 358 153 l 358 194 l 1056 194 z "},"끎":{"ha":1167,"x_min":83,"x_max":1083,"o":"m 281 875 l 281 781 l 542 781 l 556 1042 l 111 1042 l 111 875 l 281 875 m 781 875 l 781 781 l 1042 781 l 1056 1042 l 611 1042 l 611 875 l 781 875 m 83 583 l 1083 583 l 1083 739 l 83 739 l 83 583 m 569 194 l 569 542 l 111 542 l 111 389 l 338 389 l 338 347 l 111 347 l 111 0 l 583 0 l 583 153 l 344 153 l 344 194 l 569 194 m 1056 542 l 611 542 l 611 0 l 1057 0 l 1056 542 m 864 389 l 864 153 l 806 153 l 806 389 l 864 389 z "},"끓":{"ha":1169,"x_min":83,"x_max":1086,"o":"m 281 781 l 281 875 l 111 875 l 111 1042 l 556 1042 l 542 781 l 281 781 m 781 781 l 781 875 l 611 875 l 611 1042 l 1056 1042 l 1042 781 l 781 781 m 83 739 l 1086 739 l 1086 585 l 83 585 l 83 739 m 961 549 l 961 500 l 1069 500 l 1069 340 l 592 340 l 592 500 l 700 500 l 700 549 l 961 549 m 344 194 l 344 153 l 569 153 l 569 0 l 111 0 l 111 347 l 338 347 l 338 389 l 111 389 l 111 542 l 549 542 l 549 194 l 344 194 m 844 319 q 1004 281 946 319 q 1063 160 1063 242 q 1004 39 1063 78 q 844 0 946 0 l 817 0 q 657 39 715 0 q 599 160 599 78 q 657 281 599 242 q 817 319 715 319 l 844 319 m 831 136 q 853 143 844 136 q 863 160 863 150 q 853 178 863 171 q 831 185 844 185 q 808 178 817 185 q 800 160 800 171 q 808 142 800 149 q 831 136 817 136 z "},"끔":{"ha":1167,"x_min":83,"x_max":1083,"o":"m 281 847 l 281 740 l 528 740 l 542 1042 l 111 1042 l 111 847 l 281 847 m 794 847 l 794 740 l 1042 740 l 1056 1042 l 611 1042 l 611 847 l 794 847 m 83 685 l 83 490 l 1083 490 l 1083 685 l 83 685 m 1056 435 l 111 435 l 111 0 l 1056 0 l 1056 435 m 794 247 l 794 188 l 372 188 l 372 247 l 794 247 z "},"끕":{"ha":1167,"x_min":83,"x_max":1083,"o":"m 281 847 l 281 740 l 528 740 l 542 1042 l 111 1042 l 111 847 l 281 847 m 794 847 l 794 740 l 1042 740 l 1056 1042 l 611 1042 l 611 847 l 794 847 m 83 685 l 83 490 l 1083 490 l 1083 685 l 83 685 m 1056 0 l 1056 444 l 796 444 l 796 386 l 372 386 l 372 444 l 111 444 l 111 0 l 1056 0 m 796 219 l 796 167 l 372 167 l 372 219 l 796 219 z "},"끗":{"ha":1167,"x_min":83,"x_max":1083,"o":"m 281 690 l 281 833 l 111 833 l 111 1042 l 542 1042 l 528 690 l 281 690 m 794 690 l 794 833 l 611 833 l 611 1042 l 1056 1042 l 1042 690 l 794 690 m 83 621 l 1083 621 l 1083 413 l 83 413 l 83 621 m 714 363 q 765 258 719 292 q 881 217 811 225 q 1069 208 951 208 l 1042 0 q 583 110 733 0 q 125 0 433 0 l 97 208 q 285 217 215 208 q 401 258 356 225 q 453 363 447 292 l 714 363 z "},"끙":{"ha":1167,"x_min":83,"x_max":1083,"o":"m 281 847 l 281 740 l 528 740 l 542 1042 l 111 1042 l 111 847 l 281 847 m 794 847 l 794 740 l 1042 740 l 1056 1042 l 611 1042 l 611 847 l 794 847 m 83 685 l 83 490 l 1083 490 l 1083 685 l 83 685 m 1056 214 q 994 367 1056 307 q 838 428 932 428 l 329 428 q 173 367 235 428 q 111 214 111 307 q 173 60 111 121 q 329 0 235 0 l 838 0 q 994 60 932 0 q 1056 214 1056 121 m 768 240 q 787 233 779 240 q 794 214 794 225 q 787 195 794 203 q 768 188 779 188 l 399 188 q 380 195 388 188 q 372 214 372 203 q 380 233 372 225 q 399 240 388 240 l 768 240 z "},"끝":{"ha":1167,"x_min":83,"x_max":1083,"o":"m 281 875 l 281 781 l 542 781 l 556 1042 l 111 1042 l 111 875 l 281 875 m 781 875 l 781 781 l 1042 781 l 1056 1042 l 611 1042 l 611 875 l 781 875 m 83 583 l 1083 583 l 1083 739 l 83 739 l 83 583 m 372 389 l 1056 389 l 1056 542 l 111 542 l 111 0 l 1056 0 l 1056 153 l 372 153 l 372 194 l 1042 194 l 1042 347 l 372 347 l 372 389 z "},"끼":{"ha":1125,"x_min":42,"x_max":1042,"o":"m 781 1056 l 1042 1056 l 1042 0 l 781 0 l 781 1056 m 725 793 q 680 383 725 536 q 559 156 635 229 q 375 42 483 82 l 319 222 q 416 333 382 264 q 465 512 450 403 q 479 793 479 621 l 479 833 l 419 833 l 419 793 q 381 432 419 567 q 272 231 342 297 q 97 125 203 164 l 42 319 q 134 420 103 361 q 176 565 165 479 q 188 793 188 651 l 188 833 l 83 833 l 83 1042 l 725 1042 l 725 793 z "},"끽":{"ha":1139,"x_min":56,"x_max":1056,"o":"m 794 1056 l 1056 1056 l 1056 458 l 794 458 l 794 1056 m 343 582 q 83 472 260 472 l 56 681 q 159 715 131 681 q 188 833 188 750 l 83 833 l 83 1042 l 739 1042 l 739 885 q 361 444 739 444 l 343 582 m 418 833 q 383 657 411 728 q 466 710 439 668 q 493 833 493 751 l 418 833 m 111 188 l 111 396 l 1056 396 l 1056 0 l 794 0 l 794 188 l 111 188 z "},"낀":{"ha":1139,"x_min":56,"x_max":1056,"o":"m 794 1056 l 1056 1056 l 1056 354 l 794 354 l 794 1056 m 343 582 q 83 472 260 472 l 56 681 q 159 715 131 681 q 188 833 188 750 l 83 833 l 83 1042 l 739 1042 l 739 885 q 361 444 739 444 l 343 582 m 418 833 q 383 657 411 728 q 466 710 439 668 q 493 833 493 751 l 418 833 m 372 396 l 372 208 l 1056 208 l 1056 0 l 111 0 l 111 396 l 372 396 z "},"낄":{"ha":1153,"x_min":56,"x_max":1069,"o":"m 1056 1056 l 1056 583 l 796 583 l 796 1056 l 1056 1056 m 407 875 q 301 658 382 733 q 83 583 221 583 l 56 750 q 146 782 111 750 q 181 875 181 814 l 83 875 l 83 1042 l 739 1042 l 739 1024 q 662 697 739 810 q 417 583 585 583 l 389 750 q 472 781 443 750 q 500 875 500 813 l 407 875 m 372 153 l 1069 153 l 1069 0 l 111 0 l 111 347 l 796 347 l 796 389 l 111 389 l 111 542 l 1056 542 l 1056 194 l 372 194 l 372 153 z "},"낌":{"ha":1142,"x_min":56,"x_max":1058,"o":"m 1056 1056 l 1056 486 l 794 486 l 794 1056 l 1056 1056 m 344 597 q 238 523 303 546 q 83 500 174 500 l 56 708 q 137 717 110 708 q 176 752 164 726 q 188 833 188 778 l 83 833 l 83 1042 l 739 1042 l 739 885 q 643 566 739 660 q 361 472 547 472 l 344 597 m 418 833 q 392 683 414 751 q 468 723 443 690 q 493 833 493 756 l 418 833 m 111 435 l 1058 435 l 1058 0 l 111 0 l 111 435 m 797 188 l 797 247 l 372 247 l 372 188 l 797 188 z "},"낍":{"ha":1139,"x_min":56,"x_max":1056,"o":"m 794 1056 l 1056 1056 l 1056 486 l 794 486 l 794 1056 m 344 597 q 238 523 303 546 q 83 500 174 500 l 56 708 q 137 717 110 708 q 176 752 164 726 q 188 833 188 778 l 83 833 l 83 1042 l 739 1042 l 739 885 q 643 566 739 660 q 361 472 547 472 l 344 597 m 418 833 q 392 683 414 751 q 468 723 443 690 q 493 833 493 756 l 418 833 m 796 386 l 796 438 l 1056 438 l 1056 0 l 111 0 l 111 438 l 372 438 l 372 386 l 796 386 m 796 167 l 796 219 l 372 219 l 372 167 l 796 167 z "},"낏":{"ha":1153,"x_min":56,"x_max":1069,"o":"m 1056 1056 l 1056 418 l 794 418 l 794 1056 l 1056 1056 m 343 582 q 83 472 260 472 l 56 681 q 159 715 131 681 q 188 833 188 750 l 83 833 l 83 1042 l 739 1042 l 739 885 q 361 444 739 444 l 343 582 m 418 833 q 383 657 411 728 q 466 710 439 668 q 493 833 493 751 l 418 833 m 1042 0 q 780 37 897 0 q 583 143 663 74 q 387 37 504 74 q 125 0 269 0 l 97 208 q 347 260 250 208 q 453 418 444 313 l 714 418 q 819 260 722 313 q 1069 208 917 208 l 1042 0 z "},"낑":{"ha":1139,"x_min":56,"x_max":1056,"o":"m 794 1056 l 1056 1056 l 1056 472 l 794 472 l 794 1056 m 343 590 q 83 486 263 486 l 56 694 q 136 706 108 694 q 176 748 164 718 q 188 833 188 778 l 83 833 l 83 1042 l 739 1042 l 739 885 q 642 558 739 658 q 361 458 544 458 l 343 590 m 418 833 q 388 671 414 742 q 467 716 442 679 q 493 833 493 753 l 418 833 m 838 428 q 994 367 932 428 q 1056 214 1056 307 q 994 60 1056 121 q 838 0 932 0 l 329 0 q 173 60 235 0 q 111 214 111 121 q 173 367 111 307 q 329 428 235 428 l 838 428 m 768 188 q 787 195 779 188 q 794 214 794 203 q 787 233 794 225 q 768 240 779 240 l 399 240 q 380 233 388 240 q 372 214 372 225 q 380 195 372 203 q 399 188 388 188 l 768 188 z "},"나":{"ha":1160,"x_min":83,"x_max":1160,"o":"m 1056 1056 l 794 1056 l 794 0 l 1056 0 l 1056 446 l 1160 446 l 1160 654 l 1056 654 l 1056 1056 m 83 42 l 703 42 l 703 250 l 344 250 l 344 1042 l 83 1042 l 83 42 z "},"낙":{"ha":1160,"x_min":83,"x_max":1160,"o":"m 1056 1056 l 794 1056 l 794 451 l 1056 451 l 1056 647 l 1160 647 l 1160 857 l 1056 857 l 1056 1056 m 344 689 l 344 1044 l 83 1044 l 83 481 l 675 481 l 675 689 l 344 689 m 111 188 l 794 188 l 794 0 l 1056 0 l 1056 396 l 111 396 l 111 188 z "},"낚":{"ha":1160,"x_min":83,"x_max":1160,"o":"m 1056 1056 l 794 1056 l 794 467 l 1056 467 l 1056 647 l 1160 647 l 1160 857 l 1056 857 l 1056 1056 m 344 689 l 344 1044 l 83 1044 l 83 481 l 675 481 l 675 689 l 344 689 m 556 0 l 556 418 l 108 418 l 108 208 l 294 208 l 294 0 l 556 0 m 1056 0 l 1056 418 l 608 418 l 608 208 l 794 208 l 794 0 l 1056 0 z "},"난":{"ha":1160,"x_min":83,"x_max":1160,"o":"m 1056 1056 l 794 1056 l 794 368 l 1056 368 l 1056 606 l 1160 606 l 1160 815 l 1056 815 l 1056 1056 m 344 675 l 344 1044 l 83 1044 l 83 467 l 675 467 l 675 675 l 344 675 m 1056 208 l 372 208 l 372 396 l 111 396 l 111 0 l 1056 0 l 1056 208 z "},"낟":{"ha":1160,"x_min":83,"x_max":1160,"o":"m 1056 1056 l 794 1056 l 794 486 l 1056 486 l 1056 661 l 1160 661 l 1160 871 l 1056 871 l 1056 1056 m 343 694 l 343 1040 l 83 1040 l 83 507 l 674 507 l 674 694 l 343 694 m 1056 435 l 111 435 l 111 0 l 1056 0 l 1056 188 l 372 188 l 372 247 l 1056 247 l 1056 435 z "},"날":{"ha":1160,"x_min":83,"x_max":1160,"o":"m 1056 1056 l 796 1056 l 796 583 l 1056 583 l 1056 719 l 1160 719 l 1160 910 l 1056 910 l 1056 1056 m 344 785 l 344 1042 l 83 1042 l 83 597 l 674 597 l 674 785 l 344 785 m 1056 194 l 1056 542 l 111 542 l 111 389 l 796 389 l 796 347 l 111 347 l 111 0 l 1069 0 l 1069 153 l 372 153 l 372 194 l 1056 194 z "},"낡":{"ha":1160,"x_min":83,"x_max":1160,"o":"m 1056 1056 l 796 1056 l 796 583 l 1056 583 l 1056 719 l 1160 719 l 1160 910 l 1056 910 l 1056 1056 m 344 785 l 344 1042 l 83 1042 l 83 597 l 674 597 l 674 785 l 344 785 m 576 194 l 576 542 l 111 542 l 111 389 l 351 389 l 351 347 l 111 347 l 111 0 l 590 0 l 590 153 l 338 153 l 338 194 l 576 194 m 624 542 l 624 368 l 799 368 l 799 0 l 1056 0 l 1056 542 l 624 542 z "},"낢":{"ha":1160,"x_min":83,"x_max":1160,"o":"m 1056 1056 l 796 1056 l 796 583 l 1056 583 l 1056 719 l 1160 719 l 1160 910 l 1056 910 l 1056 1056 m 344 785 l 344 1042 l 83 1042 l 83 597 l 674 597 l 674 785 l 344 785 m 549 194 l 549 542 l 111 542 l 111 389 l 351 389 l 351 347 l 111 347 l 111 0 l 563 0 l 563 153 l 310 153 l 310 194 l 549 194 m 596 0 l 1060 0 l 1060 542 l 596 542 l 596 0 m 801 153 l 801 389 l 854 389 l 854 153 l 801 153 z "},"남":{"ha":1160,"x_min":83,"x_max":1160,"o":"m 1056 1056 l 794 1056 l 794 486 l 1056 486 l 1056 661 l 1160 661 l 1160 871 l 1056 871 l 1056 1056 m 343 694 l 343 1040 l 83 1040 l 83 507 l 674 507 l 674 694 l 343 694 m 1058 435 l 111 435 l 111 0 l 1058 0 l 1058 435 m 797 247 l 797 188 l 372 188 l 372 247 l 797 247 z "},"납":{"ha":1160,"x_min":83,"x_max":1160,"o":"m 1056 1056 l 794 1056 l 794 486 l 1056 486 l 1056 661 l 1160 661 l 1160 871 l 1056 871 l 1056 1056 m 343 694 l 343 1040 l 83 1040 l 83 507 l 674 507 l 674 694 l 343 694 m 1056 0 l 1056 438 l 796 438 l 796 386 l 372 386 l 372 438 l 111 438 l 111 0 l 1056 0 m 796 219 l 796 167 l 372 167 l 372 219 l 796 219 z "},"낫":{"ha":1160,"x_min":83,"x_max":1160,"o":"m 1056 857 l 1160 857 l 1160 647 l 1056 647 l 1056 418 l 794 418 l 794 1056 l 1056 1056 l 1056 857 m 675 696 l 675 488 l 83 488 l 83 1044 l 344 1044 l 344 696 l 675 696 m 714 418 q 819 260 722 313 q 1069 208 917 208 l 1042 0 q 780 37 897 0 q 583 143 663 74 q 387 37 504 74 q 125 0 269 0 l 97 208 q 347 260 250 208 q 453 418 444 313 l 714 418 z "},"났":{"ha":1160,"x_min":83,"x_max":1160,"o":"m 1056 857 l 1160 857 l 1160 647 l 1056 647 l 1056 432 l 794 432 l 794 1056 l 1056 1056 l 1056 857 m 675 654 l 675 446 l 83 446 l 83 1044 l 344 1044 l 344 654 l 675 654 m 986 382 q 1025 249 986 303 q 1125 194 1064 194 l 1097 0 q 974 23 1033 0 q 865 88 914 46 q 765 23 821 46 q 649 0 708 0 l 625 94 l 601 0 q 485 23 542 0 q 385 88 429 46 q 276 23 336 46 q 153 0 217 0 l 125 194 q 225 249 186 194 q 264 382 264 303 l 511 382 q 542 260 511 311 q 625 197 574 208 q 708 260 676 208 q 739 382 739 311 l 986 382 z "},"낭":{"ha":1160,"x_min":83,"x_max":1160,"o":"m 1056 1056 l 794 1056 l 794 472 l 1056 472 l 1056 661 l 1160 661 l 1160 871 l 1056 871 l 1056 1056 m 343 694 l 343 1040 l 83 1040 l 83 507 l 674 507 l 674 694 l 343 694 m 1056 214 q 994 367 1056 307 q 838 428 932 428 l 329 428 q 173 367 235 428 q 111 214 111 307 q 173 60 111 121 q 329 0 235 0 l 838 0 q 994 60 932 0 q 1056 214 1056 121 m 768 240 q 787 233 779 240 q 794 214 794 225 q 787 195 794 203 q 768 188 779 188 l 399 188 q 380 195 388 188 q 372 214 372 203 q 380 233 372 225 q 399 240 388 240 l 768 240 z "},"낮":{"ha":1160,"x_min":83,"x_max":1160,"o":"m 1056 871 l 1160 871 l 1160 661 l 1056 661 l 1056 472 l 794 472 l 794 1056 l 1056 1056 l 1056 871 m 674 694 l 674 507 l 83 507 l 83 1040 l 343 1040 l 343 694 l 674 694 m 765 254 q 882 195 808 210 q 1069 181 956 181 l 1042 0 q 583 115 731 0 q 125 0 436 0 l 97 181 q 285 195 211 181 q 401 254 358 210 l 111 254 l 111 428 l 1056 428 l 1056 254 l 765 254 z "},"낯":{"ha":1160,"x_min":83,"x_max":1160,"o":"m 1056 885 l 1160 885 l 1160 675 l 1056 675 l 1056 500 l 794 500 l 794 1056 l 1056 1056 l 1056 885 m 674 757 l 674 569 l 83 569 l 83 1040 l 343 1040 l 343 757 l 674 757 m 765 254 q 882 195 808 210 q 1069 181 956 181 l 1042 0 q 583 115 731 0 q 125 0 436 0 l 97 181 q 285 195 211 181 q 401 254 358 210 l 111 254 l 111 428 l 439 428 l 439 514 l 728 514 l 728 428 l 1056 428 l 1056 254 l 765 254 z "},"낱":{"ha":1160,"x_min":83,"x_max":1160,"o":"m 1056 1056 l 796 1056 l 796 583 l 1056 583 l 1056 719 l 1160 719 l 1160 910 l 1056 910 l 1056 1056 m 344 785 l 344 1042 l 83 1042 l 83 597 l 674 597 l 674 785 l 344 785 m 111 547 l 111 0 l 1056 0 l 1056 150 l 372 150 l 372 201 l 1056 201 l 1056 344 l 372 344 l 372 397 l 1056 397 l 1056 547 l 111 547 z "},"낳":{"ha":1160,"x_min":83,"x_max":1160,"o":"m 1056 926 l 1160 926 l 1160 717 l 1056 717 l 1056 583 l 794 583 l 794 1056 l 1056 1056 l 1056 926 m 674 813 l 674 625 l 83 625 l 83 1040 l 343 1040 l 343 813 l 674 813 m 728 583 l 728 535 l 1056 535 l 1056 375 l 111 375 l 111 535 l 439 535 l 439 583 l 728 583 m 824 333 q 983 293 924 333 q 1042 167 1042 253 q 983 40 1042 81 q 824 0 924 0 l 343 0 q 184 40 243 0 q 125 167 125 81 q 184 293 125 253 q 343 333 243 333 l 824 333 m 796 146 q 815 151 807 146 q 822 167 822 157 q 815 182 822 176 q 796 188 807 188 l 371 188 q 352 182 360 188 q 344 167 344 176 q 352 151 344 157 q 371 146 360 146 l 796 146 z "},"내":{"ha":1167,"x_min":83,"x_max":1083,"o":"m 836 1056 l 1083 1056 l 1083 0 l 836 0 l 836 431 l 786 431 l 786 14 l 539 14 l 539 1056 l 786 1056 l 786 639 l 836 639 l 836 1056 m 331 1042 l 331 250 l 483 250 l 483 42 l 83 42 l 83 1042 l 331 1042 z "},"낵":{"ha":1167,"x_min":83,"x_max":1083,"o":"m 836 1056 l 1083 1056 l 1083 444 l 836 444 l 836 653 l 792 653 l 792 444 l 544 444 l 544 1056 l 792 1056 l 792 861 l 836 861 l 836 1056 m 496 681 l 496 472 l 83 472 l 83 1042 l 331 1042 l 331 681 l 496 681 m 139 188 l 139 396 l 1083 396 l 1083 0 l 822 0 l 822 188 l 139 188 z "},"낸":{"ha":1167,"x_min":83,"x_max":1083,"o":"m 836 1056 l 1083 1056 l 1083 354 l 836 354 l 836 611 l 792 611 l 792 382 l 544 382 l 544 1056 l 792 1056 l 792 819 l 836 819 l 836 1056 m 496 667 l 496 458 l 83 458 l 83 1042 l 331 1042 l 331 667 l 496 667 m 400 396 l 400 208 l 1083 208 l 1083 0 l 139 0 l 139 396 l 400 396 z "},"낼":{"ha":1181,"x_min":83,"x_max":1097,"o":"m 792 715 l 792 583 l 544 583 l 544 1056 l 792 1056 l 792 910 l 836 910 l 836 1056 l 1083 1056 l 1083 583 l 836 583 l 836 715 l 792 715 m 496 806 l 496 597 l 83 597 l 83 1042 l 331 1042 l 331 806 l 496 806 m 400 153 l 1097 153 l 1097 0 l 139 0 l 139 347 l 824 347 l 824 389 l 139 389 l 139 542 l 1083 542 l 1083 194 l 400 194 l 400 153 z "},"냄":{"ha":1169,"x_min":83,"x_max":1086,"o":"m 792 667 l 792 486 l 544 486 l 544 1056 l 792 1056 l 792 875 l 836 875 l 836 1056 l 1083 1056 l 1083 486 l 836 486 l 836 667 l 792 667 m 496 708 l 496 500 l 83 500 l 83 1042 l 331 1042 l 331 708 l 496 708 m 139 435 l 1086 435 l 1086 0 l 139 0 l 139 435 m 825 188 l 825 247 l 400 247 l 400 188 l 825 188 z "},"냅":{"ha":1167,"x_min":83,"x_max":1083,"o":"m 836 1056 l 1083 1056 l 1083 486 l 836 486 l 836 681 l 792 681 l 792 486 l 544 486 l 544 1056 l 792 1056 l 792 889 l 836 889 l 836 1056 m 496 708 l 496 500 l 83 500 l 83 1042 l 331 1042 l 331 708 l 496 708 m 824 386 l 824 438 l 1083 438 l 1083 0 l 139 0 l 139 438 l 400 438 l 400 386 l 824 386 m 824 167 l 824 219 l 400 219 l 400 167 l 824 167 z "},"냇":{"ha":1181,"x_min":83,"x_max":1097,"o":"m 792 653 l 792 467 l 544 467 l 544 1056 l 792 1056 l 792 861 l 836 861 l 836 1056 l 1083 1056 l 1083 418 l 836 418 l 836 653 l 792 653 m 496 708 l 496 488 l 83 488 l 83 1042 l 331 1042 l 331 708 l 496 708 m 742 418 q 847 260 750 313 q 1097 208 944 208 l 1069 0 q 808 37 925 0 q 611 143 690 74 q 415 37 532 74 q 153 0 297 0 l 125 208 q 375 260 278 208 q 481 418 472 313 l 742 418 z "},"냈":{"ha":1194,"x_min":83,"x_max":1111,"o":"m 792 639 l 792 431 l 544 431 l 544 1056 l 792 1056 l 792 847 l 836 847 l 836 1056 l 1083 1056 l 1083 431 l 836 431 l 836 639 l 792 639 m 496 653 l 496 444 l 83 444 l 83 1042 l 331 1042 l 331 653 l 496 653 m 1083 0 q 960 23 1019 0 q 851 88 900 46 q 751 23 807 46 q 635 0 694 0 l 611 94 l 588 0 q 472 23 528 0 q 371 88 415 46 q 263 23 322 46 q 139 0 203 0 l 111 194 q 211 249 172 194 q 250 382 250 303 l 497 382 q 528 260 497 311 q 611 197 560 208 q 694 260 663 208 q 725 382 725 311 l 972 382 q 1011 249 972 303 q 1111 194 1050 194 l 1083 0 z "},"냉":{"ha":1167,"x_min":83,"x_max":1083,"o":"m 836 1056 l 1083 1056 l 1083 472 l 836 472 l 836 667 l 792 667 l 792 472 l 544 472 l 544 1056 l 792 1056 l 792 875 l 836 875 l 836 1056 m 496 694 l 496 486 l 83 486 l 83 1042 l 331 1042 l 331 694 l 496 694 m 865 428 q 1022 367 960 428 q 1083 214 1083 307 q 1022 60 1083 121 q 865 0 960 0 l 357 0 q 201 60 263 0 q 139 214 139 121 q 201 367 139 307 q 357 428 263 428 l 865 428 m 796 188 q 815 195 807 188 q 822 214 822 203 q 815 233 822 225 q 796 240 807 240 l 426 240 q 408 233 415 240 q 400 214 400 225 q 408 195 400 203 q 426 188 415 188 l 796 188 z "},"냐":{"ha":1174,"x_min":83,"x_max":1174,"o":"m 1069 1056 l 810 1056 l 810 0 l 1069 0 l 1069 222 l 1174 222 l 1174 431 l 1069 431 l 1069 639 l 1174 639 l 1174 847 l 1069 847 l 1069 1056 m 83 42 l 703 42 l 703 250 l 344 250 l 344 1044 l 83 1044 l 83 42 z "},"냑":{"ha":1160,"x_min":83,"x_max":1160,"o":"m 796 458 l 1056 458 l 1056 532 l 1160 532 l 1160 726 l 1056 726 l 1056 786 l 1160 786 l 1160 981 l 1056 981 l 1056 1056 l 796 1056 l 796 458 m 344 689 l 344 1044 l 83 1044 l 83 481 l 675 481 l 675 689 l 344 689 m 111 188 l 794 188 l 794 0 l 1056 0 l 1056 396 l 111 396 l 111 188 z "},"냔":{"ha":1160,"x_min":83,"x_max":1160,"o":"m 1056 1056 l 796 1056 l 796 396 l 1056 396 l 1056 497 l 1160 497 l 1160 692 l 1057 692 l 1056 765 l 1160 765 l 1160 960 l 1056 960 l 1056 1056 m 344 675 l 344 1044 l 83 1044 l 83 467 l 675 467 l 675 675 l 344 675 m 1056 208 l 372 208 l 372 396 l 111 396 l 111 0 l 1056 0 l 1056 208 z "},"냘":{"ha":1167,"x_min":83,"x_max":1167,"o":"m 1063 1056 l 803 1056 l 803 583 l 1056 583 l 1056 646 l 1167 646 l 1167 794 l 1063 794 l 1063 849 l 1167 849 l 1167 997 l 1063 997 l 1063 1056 m 344 785 l 344 1042 l 83 1042 l 83 597 l 674 597 l 674 785 l 344 785 m 1056 194 l 1056 542 l 111 542 l 111 389 l 796 389 l 796 347 l 111 347 l 111 0 l 1069 0 l 1069 153 l 372 153 l 372 194 l 1056 194 z "},"냠":{"ha":1158,"x_min":83,"x_max":1158,"o":"m 1054 1056 l 794 1056 l 794 486 l 1054 486 l 1054 560 l 1158 560 l 1158 740 l 1054 740 l 1054 800 l 1158 800 l 1158 981 l 1054 981 l 1054 1056 m 343 694 l 343 1040 l 83 1040 l 83 507 l 674 507 l 674 694 l 343 694 m 1058 435 l 111 435 l 111 0 l 1058 0 l 1058 435 m 797 247 l 797 188 l 372 188 l 372 247 l 797 247 z "},"냥":{"ha":1158,"x_min":83,"x_max":1158,"o":"m 1054 1056 l 794 1056 l 794 472 l 1054 472 l 1054 546 l 1158 546 l 1158 726 l 1054 726 l 1054 800 l 1158 800 l 1158 981 l 1054 981 l 1054 1056 m 343 694 l 343 1040 l 83 1040 l 83 507 l 674 507 l 674 694 l 343 694 m 1056 214 q 994 367 1056 307 q 838 428 932 428 l 329 428 q 173 367 235 428 q 111 214 111 307 q 173 60 111 121 q 329 0 235 0 l 838 0 q 994 60 932 0 q 1056 214 1056 121 m 768 240 q 787 233 779 240 q 794 214 794 225 q 787 195 794 203 q 768 188 779 188 l 399 188 q 380 195 388 188 q 372 214 372 203 q 380 233 372 225 q 399 240 388 240 l 768 240 z "},"너":{"ha":1153,"x_min":83,"x_max":1069,"o":"m 808 1058 l 808 654 l 642 654 l 642 446 l 808 446 l 808 0 l 1069 0 l 1069 1058 l 808 1058 m 83 42 l 703 42 l 703 250 l 344 250 l 344 1044 l 83 1044 l 83 42 z "},"넉":{"ha":1139,"x_min":83,"x_max":1056,"o":"m 794 1056 l 794 913 l 628 913 l 628 703 l 794 703 l 794 438 l 1056 438 l 1056 1056 l 794 1056 m 344 661 l 344 1044 l 83 1044 l 83 453 l 675 453 l 675 661 l 344 661 m 111 188 l 794 188 l 794 0 l 1056 0 l 1056 396 l 111 396 l 111 188 z "},"넋":{"ha":1194,"x_min":83,"x_max":1111,"o":"m 794 438 l 794 703 l 628 703 l 628 913 l 794 913 l 794 1056 l 1056 1056 l 1056 438 l 794 438 m 675 661 l 675 453 l 83 453 l 83 1044 l 344 1044 l 344 661 l 675 661 m 111 188 l 111 396 l 556 396 l 556 0 l 294 0 l 294 188 l 111 188 m 1083 0 q 954 22 1014 0 q 849 85 894 43 q 743 22 803 43 q 614 0 683 0 l 586 208 q 661 222 632 208 q 708 276 690 235 q 725 396 725 317 l 972 396 q 990 276 972 317 q 1036 222 1007 235 q 1111 208 1065 208 l 1083 0 z "},"넌":{"ha":1139,"x_min":83,"x_max":1056,"o":"m 794 1056 l 794 913 l 628 913 l 628 703 l 794 703 l 794 368 l 1056 368 l 1056 1056 l 794 1056 m 344 661 l 344 1044 l 83 1044 l 83 453 l 675 453 l 675 661 l 344 661 m 1056 208 l 372 208 l 372 396 l 111 396 l 111 0 l 1056 0 l 1056 208 z "},"널":{"ha":1153,"x_min":83,"x_max":1069,"o":"m 796 1056 l 796 957 l 629 957 l 629 781 l 796 781 l 796 581 l 1056 581 l 1056 1056 l 796 1056 m 344 753 l 344 1044 l 83 1044 l 83 579 l 676 579 l 676 753 l 344 753 m 1056 194 l 1056 542 l 111 542 l 111 389 l 796 389 l 796 347 l 111 347 l 111 0 l 1069 0 l 1069 153 l 372 153 l 372 194 l 1056 194 z "},"넒":{"ha":1139,"x_min":83,"x_max":1056,"o":"m 796 1056 l 796 957 l 629 957 l 629 781 l 796 781 l 796 581 l 1056 581 l 1056 1056 l 796 1056 m 344 753 l 344 1044 l 83 1044 l 83 579 l 676 579 l 676 753 l 344 753 m 549 194 l 549 542 l 111 542 l 111 389 l 351 389 l 351 347 l 111 347 l 111 0 l 563 0 l 563 153 l 310 153 l 310 194 l 549 194 m 596 0 l 1056 0 l 1056 542 l 596 542 l 596 0 m 797 153 l 797 389 l 850 389 l 850 153 l 797 153 z "},"넓":{"ha":1139,"x_min":83,"x_max":1056,"o":"m 796 1056 l 796 957 l 629 957 l 629 781 l 796 781 l 796 581 l 1056 581 l 1056 1056 l 796 1056 m 344 753 l 344 1044 l 83 1044 l 83 579 l 676 579 l 676 753 l 344 753 m 549 194 l 549 542 l 111 542 l 111 389 l 351 389 l 351 347 l 111 347 l 111 0 l 563 0 l 563 153 l 310 153 l 310 194 l 549 194 m 1056 0 l 1056 542 l 851 542 l 851 442 l 803 442 l 803 542 l 597 542 l 597 0 l 1056 0 m 851 275 l 851 167 l 803 167 l 803 275 l 851 275 z "},"넘":{"ha":1142,"x_min":83,"x_max":1058,"o":"m 794 1056 l 794 926 l 628 926 l 628 731 l 794 731 l 794 479 l 1056 479 l 1056 1056 l 794 1056 m 344 689 l 344 1044 l 83 1044 l 83 494 l 675 494 l 675 689 l 344 689 m 1058 435 l 111 435 l 111 0 l 1058 0 l 1058 435 m 797 247 l 797 188 l 372 188 l 372 247 l 797 247 z "},"넙":{"ha":1139,"x_min":83,"x_max":1056,"o":"m 794 1056 l 794 926 l 628 926 l 628 731 l 794 731 l 794 479 l 1056 479 l 1056 1056 l 794 1056 m 344 689 l 344 1044 l 83 1044 l 83 494 l 675 494 l 675 689 l 344 689 m 1056 0 l 1056 438 l 796 438 l 796 386 l 372 386 l 372 438 l 111 438 l 111 0 l 1056 0 m 796 219 l 796 167 l 372 167 l 372 219 l 796 219 z "},"넛":{"ha":1153,"x_min":83,"x_max":1069,"o":"m 794 418 l 794 717 l 628 717 l 628 926 l 794 926 l 794 1056 l 1056 1056 l 1056 418 l 794 418 m 675 675 l 675 467 l 83 467 l 83 1044 l 344 1044 l 344 675 l 675 675 m 1042 0 q 780 37 897 0 q 583 143 663 74 q 387 37 504 74 q 125 0 269 0 l 97 208 q 347 260 250 208 q 453 418 444 313 l 714 418 q 819 260 722 313 q 1069 208 917 208 l 1042 0 z "},"넜":{"ha":1167,"x_min":83,"x_max":1083,"o":"m 794 438 l 794 689 l 628 689 l 628 885 l 794 885 l 794 1069 l 1056 1069 l 1056 438 l 794 438 m 675 647 l 675 451 l 83 451 l 83 1044 l 344 1044 l 344 647 l 675 647 m 1056 0 q 932 23 992 0 q 824 88 872 46 q 723 23 779 46 q 607 0 667 0 l 583 94 l 560 0 q 444 23 500 0 q 343 88 388 46 q 235 23 294 46 q 111 0 175 0 l 83 194 q 183 249 144 194 q 222 382 222 303 l 469 382 q 501 260 469 311 q 583 197 532 208 q 666 260 635 208 q 697 382 697 311 l 944 382 q 983 249 944 303 q 1083 194 1022 194 l 1056 0 z "},"넝":{"ha":1139,"x_min":83,"x_max":1056,"o":"m 794 1056 l 794 926 l 628 926 l 628 731 l 794 731 l 794 479 l 1056 479 l 1056 1056 l 794 1056 m 344 689 l 344 1044 l 83 1044 l 83 494 l 675 494 l 675 689 l 344 689 m 1056 214 q 994 367 1056 307 q 838 428 932 428 l 329 428 q 173 367 235 428 q 111 214 111 307 q 173 60 111 121 q 329 0 235 0 l 838 0 q 994 60 932 0 q 1056 214 1056 121 m 768 240 q 787 233 779 240 q 794 214 794 225 q 787 195 794 203 q 768 188 779 188 l 399 188 q 380 195 388 188 q 372 214 372 203 q 380 233 372 225 q 399 240 388 240 l 768 240 z "},"넣":{"ha":1139,"x_min":83,"x_max":1056,"o":"m 794 1056 l 1056 1056 l 1056 583 l 794 583 l 794 731 l 656 731 l 656 913 l 794 913 l 794 1056 m 611 799 l 611 625 l 83 625 l 83 1040 l 343 1040 l 343 799 l 611 799 m 728 583 l 728 535 l 1056 535 l 1056 375 l 111 375 l 111 535 l 439 535 l 439 583 l 728 583 m 824 333 q 983 293 924 333 q 1042 167 1042 253 q 983 40 1042 81 q 824 0 924 0 l 343 0 q 184 40 243 0 q 125 167 125 81 q 184 293 125 253 q 343 333 243 333 l 824 333 m 796 146 q 815 151 807 146 q 822 167 822 157 q 815 182 822 176 q 796 188 807 188 l 371 188 q 352 182 360 188 q 344 167 344 176 q 352 151 344 157 q 371 146 360 146 l 796 146 z "},"네":{"ha":1167,"x_min":83,"x_max":1083,"o":"m 793 1056 l 546 1056 l 546 681 l 421 681 l 421 472 l 546 472 l 546 14 l 793 14 l 793 1056 m 1083 1056 l 836 1056 l 836 0 l 1083 0 l 1083 1056 m 83 42 l 490 42 l 490 250 l 331 250 l 331 1042 l 83 1042 l 83 42 z "},"넥":{"ha":1167,"x_min":83,"x_max":1083,"o":"m 792 1056 l 544 1056 l 544 917 l 440 917 l 440 708 l 544 708 l 544 444 l 792 444 l 792 1056 m 1083 1056 l 836 1056 l 836 444 l 1083 444 l 1083 1056 m 83 458 l 496 458 l 496 667 l 331 667 l 331 1042 l 83 1042 l 83 458 m 822 188 l 822 0 l 1083 0 l 1083 396 l 139 396 l 139 188 l 822 188 z "},"넨":{"ha":1167,"x_min":83,"x_max":1083,"o":"m 792 1056 l 544 1056 l 544 917 l 440 917 l 440 708 l 544 708 l 544 368 l 792 368 l 792 1056 m 1083 1056 l 836 1056 l 836 340 l 1083 340 l 1083 1056 m 83 458 l 496 458 l 496 667 l 331 667 l 331 1042 l 83 1042 l 83 458 m 400 208 l 400 396 l 139 396 l 139 0 l 1083 0 l 1083 208 l 400 208 z "},"넬":{"ha":1181,"x_min":83,"x_max":1097,"o":"m 792 1056 l 544 1056 l 544 972 l 438 972 l 438 806 l 544 806 l 544 583 l 792 583 l 792 1056 m 1083 1056 l 836 1056 l 836 583 l 1083 583 l 1083 1056 m 83 597 l 496 597 l 496 764 l 331 764 l 331 1042 l 83 1042 l 83 597 m 1083 194 l 1083 542 l 139 542 l 139 389 l 824 389 l 824 347 l 139 347 l 139 0 l 1097 0 l 1097 153 l 400 153 l 400 194 l 1083 194 z "},"넴":{"ha":1169,"x_min":83,"x_max":1086,"o":"m 792 1056 l 544 1056 l 544 931 l 438 931 l 438 736 l 544 736 l 544 486 l 792 486 l 792 1056 m 1083 1056 l 836 1056 l 836 486 l 1083 486 l 1083 1056 m 83 500 l 496 500 l 496 694 l 331 694 l 331 1042 l 83 1042 l 83 500 m 1086 435 l 139 435 l 139 0 l 1086 0 l 1086 435 m 825 247 l 825 188 l 400 188 l 400 247 l 825 247 z "},"넵":{"ha":1167,"x_min":83,"x_max":1083,"o":"m 792 1056 l 544 1056 l 544 931 l 438 931 l 438 736 l 544 736 l 544 486 l 792 486 l 792 1056 m 1083 1056 l 836 1056 l 836 486 l 1083 486 l 1083 1056 m 83 500 l 496 500 l 496 694 l 331 694 l 331 1042 l 83 1042 l 83 500 m 1083 0 l 1083 438 l 824 438 l 824 386 l 400 386 l 400 438 l 139 438 l 139 0 l 1083 0 m 824 219 l 824 167 l 400 167 l 400 219 l 824 219 z "},"넷":{"ha":1181,"x_min":83,"x_max":1097,"o":"m 792 1056 l 544 1056 l 544 944 l 440 944 l 440 736 l 544 736 l 544 472 l 792 472 l 792 1056 m 1083 1056 l 836 1056 l 836 418 l 1083 418 l 1083 1056 m 83 486 l 496 486 l 496 694 l 331 694 l 331 1042 l 83 1042 l 83 486 m 153 0 q 415 37 297 0 q 611 143 532 74 q 808 37 690 74 q 1069 0 925 0 l 1097 208 q 847 260 944 208 q 742 418 750 313 l 481 418 q 375 260 472 313 q 125 208 278 208 l 153 0 z "},"넸":{"ha":1194,"x_min":83,"x_max":1111,"o":"m 544 431 l 544 681 l 438 681 l 438 875 l 544 875 l 544 1056 l 792 1056 l 792 431 l 544 431 m 1083 1056 l 1083 431 l 836 431 l 836 1056 l 1083 1056 m 496 639 l 496 444 l 83 444 l 83 1042 l 331 1042 l 331 639 l 496 639 m 1083 0 q 960 23 1019 0 q 851 88 900 46 q 751 23 807 46 q 635 0 694 0 l 611 94 l 588 0 q 472 23 528 0 q 371 88 415 46 q 263 23 322 46 q 139 0 203 0 l 111 194 q 211 249 172 194 q 250 382 250 303 l 497 382 q 528 260 497 311 q 611 197 560 208 q 694 260 663 208 q 725 382 725 311 l 972 382 q 1011 249 972 303 q 1111 194 1050 194 l 1083 0 z "},"넹":{"ha":1167,"x_min":83,"x_max":1083,"o":"m 792 1056 l 544 1056 l 544 910 l 438 910 l 438 715 l 544 715 l 544 465 l 792 465 l 792 1056 m 1083 1056 l 836 1056 l 836 465 l 1083 465 l 1083 1056 m 83 479 l 496 479 l 496 674 l 331 674 l 331 1042 l 83 1042 l 83 479 m 1083 214 q 1022 367 1083 307 q 865 428 960 428 l 357 428 q 201 367 263 428 q 139 214 139 307 q 201 60 139 121 q 357 0 263 0 l 865 0 q 1022 60 960 0 q 1083 214 1083 121 m 796 240 q 815 233 807 240 q 822 214 822 225 q 815 195 822 203 q 796 188 807 188 l 426 188 q 408 195 415 188 q 400 214 400 203 q 408 233 400 225 q 426 240 415 240 l 796 240 z "},"녀":{"ha":1139,"x_min":83,"x_max":1056,"o":"m 1056 1058 l 794 1058 l 794 892 l 628 892 l 628 682 l 794 682 l 794 529 l 628 529 l 628 319 l 794 319 l 794 0 l 1056 0 l 1056 1058 m 83 42 l 703 42 l 703 250 l 344 250 l 344 1044 l 83 1044 l 83 42 z "},"녁":{"ha":1139,"x_min":83,"x_max":1056,"o":"m 796 1056 l 796 960 l 664 960 l 664 779 l 796 779 l 796 706 l 664 706 l 664 525 l 796 525 l 796 444 l 1056 444 l 1056 1056 l 796 1056 m 344 667 l 344 1044 l 83 1044 l 83 458 l 619 458 l 619 667 l 344 667 m 794 188 l 794 0 l 1056 0 l 1056 396 l 111 396 l 111 188 l 794 188 z "},"년":{"ha":1139,"x_min":83,"x_max":1056,"o":"m 796 1056 l 796 960 l 664 960 l 664 779 l 796 779 l 796 678 l 664 678 l 664 497 l 796 497 l 796 368 l 1056 368 l 1056 1056 l 796 1056 m 344 667 l 344 1044 l 83 1044 l 83 458 l 619 458 l 619 667 l 344 667 m 1056 208 l 372 208 l 372 396 l 111 396 l 111 0 l 1056 0 l 1056 208 z "},"녈":{"ha":1153,"x_min":83,"x_max":1069,"o":"m 796 1056 l 796 990 l 664 990 l 664 842 l 796 842 l 796 788 l 664 788 l 664 639 l 803 639 l 803 583 l 1056 583 l 1056 1056 l 796 1056 m 344 753 l 344 1044 l 83 1044 l 83 579 l 621 579 l 621 753 l 344 753 m 1056 194 l 1056 542 l 111 542 l 111 389 l 796 389 l 796 347 l 111 347 l 111 0 l 1069 0 l 1069 153 l 372 153 l 372 194 l 1056 194 z "},"념":{"ha":1142,"x_min":83,"x_max":1058,"o":"m 799 1056 l 799 974 l 665 974 l 665 793 l 799 793 l 799 733 l 665 733 l 665 553 l 799 553 l 799 486 l 1058 486 l 1058 1056 l 799 1056 m 344 694 l 344 1044 l 83 1044 l 83 500 l 624 500 l 624 694 l 344 694 m 1058 435 l 111 435 l 111 0 l 1058 0 l 1058 435 m 797 247 l 797 188 l 372 188 l 372 247 l 797 247 z "},"녑":{"ha":1142,"x_min":83,"x_max":1058,"o":"m 799 1056 l 799 974 l 665 974 l 665 793 l 799 793 l 799 733 l 665 733 l 665 553 l 799 553 l 799 486 l 1058 486 l 1058 1056 l 799 1056 m 344 694 l 344 1044 l 83 1044 l 83 500 l 624 500 l 624 694 l 344 694 m 1056 0 l 1056 438 l 796 438 l 796 386 l 372 386 l 372 438 l 111 438 l 111 0 l 1056 0 m 796 219 l 796 167 l 372 167 l 372 219 l 796 219 z "},"녔":{"ha":1167,"x_min":83,"x_max":1083,"o":"m 796 431 l 796 518 l 664 518 l 664 699 l 796 699 l 796 786 l 664 786 l 664 967 l 796 967 l 796 1056 l 1056 1056 l 1056 431 l 796 431 m 619 653 l 619 444 l 83 444 l 83 1044 l 344 1044 l 344 653 l 619 653 m 1056 0 q 932 23 992 0 q 824 88 872 46 q 723 23 779 46 q 607 0 667 0 l 583 94 l 560 0 q 444 23 500 0 q 343 88 388 46 q 235 23 294 46 q 111 0 175 0 l 83 194 q 183 249 144 194 q 222 382 222 303 l 469 382 q 501 260 469 311 q 583 197 532 208 q 666 260 635 208 q 697 382 697 311 l 944 382 q 983 249 944 303 q 1083 194 1022 194 l 1056 0 z "},"녕":{"ha":1142,"x_min":83,"x_max":1058,"o":"m 799 1056 l 799 974 l 665 974 l 665 793 l 799 793 l 799 733 l 665 733 l 665 553 l 799 553 l 799 472 l 1058 472 l 1058 1056 l 799 1056 m 344 681 l 344 1044 l 83 1044 l 83 486 l 624 486 l 624 681 l 344 681 m 1056 214 q 994 367 1056 307 q 838 428 932 428 l 329 428 q 173 367 235 428 q 111 214 111 307 q 173 60 111 121 q 329 0 235 0 l 838 0 q 994 60 932 0 q 1056 214 1056 121 m 768 240 q 787 233 779 240 q 794 214 794 225 q 787 195 794 203 q 768 188 779 188 l 399 188 q 380 195 388 188 q 372 214 372 203 q 380 233 372 225 q 399 240 388 240 l 768 240 z "},"녘":{"ha":1142,"x_min":83,"x_max":1058,"o":"m 799 1056 l 799 981 l 665 981 l 665 814 l 799 814 l 799 740 l 665 740 l 665 574 l 799 574 l 799 500 l 1058 500 l 1058 1056 l 799 1056 m 344 708 l 344 1044 l 83 1044 l 83 514 l 624 514 l 624 708 l 344 708 m 111 451 l 111 285 l 796 285 l 796 232 l 111 232 l 111 72 l 796 72 l 796 0 l 1056 0 l 1056 451 l 111 451 z "},"녜":{"ha":1167,"x_min":83,"x_max":1083,"o":"m 793 1058 l 547 1058 l 547 849 l 442 849 l 442 640 l 547 640 l 547 515 l 442 515 l 442 306 l 547 306 l 547 14 l 793 14 l 793 1058 m 1083 1058 l 836 1058 l 836 0 l 1083 0 l 1083 1058 m 83 42 l 490 42 l 490 250 l 331 250 l 331 1042 l 83 1042 l 83 42 z "},"녠":{"ha":1167,"x_min":83,"x_max":1083,"o":"m 517 510 l 517 417 l 83 417 l 83 1042 l 331 1042 l 331 625 l 454 625 l 454 704 l 572 704 l 572 781 l 454 781 l 454 975 l 572 975 l 572 1058 l 806 1058 l 806 368 l 572 368 l 572 510 l 517 510 m 850 1058 l 1083 1058 l 1083 340 l 850 340 l 850 1058 m 400 354 l 400 208 l 1083 208 l 1083 0 l 139 0 l 139 354 l 400 354 z "},"노":{"ha":1167,"x_min":83,"x_max":1083,"o":"m 371 694 l 371 1042 l 111 1042 l 111 486 l 1056 486 l 1056 694 l 371 694 m 714 250 l 714 417 l 453 417 l 453 250 l 83 250 l 83 42 l 1083 42 l 1083 250 l 714 250 z "},"녹":{"ha":1167,"x_min":83,"x_max":1083,"o":"m 725 676 l 1056 676 l 1056 885 l 371 885 l 371 1042 l 111 1042 l 111 676 l 464 676 l 464 599 l 83 599 l 83 404 l 1083 404 l 1083 599 l 725 599 l 725 676 m 1056 0 l 1056 326 l 111 326 l 111 118 l 794 118 l 794 0 l 1056 0 z "},"논":{"ha":1167,"x_min":83,"x_max":1083,"o":"m 725 676 l 1056 676 l 1056 885 l 371 885 l 371 1042 l 111 1042 l 111 676 l 464 676 l 464 585 l 83 585 l 83 390 l 1083 390 l 1083 585 l 725 585 l 725 676 m 111 326 l 111 0 l 1056 0 l 1056 208 l 372 208 l 372 326 l 111 326 z "},"놀":{"ha":1167,"x_min":83,"x_max":1083,"o":"m 714 739 l 1083 739 l 1083 583 l 83 583 l 83 739 l 453 739 l 453 781 l 111 781 l 111 1042 l 386 1042 l 386 947 l 1056 947 l 1056 781 l 714 781 l 714 739 m 358 194 l 358 153 l 1069 153 l 1069 0 l 111 0 l 111 347 l 796 347 l 796 389 l 111 389 l 111 542 l 1056 542 l 1056 194 l 358 194 z "},"놂":{"ha":1167,"x_min":83,"x_max":1083,"o":"m 714 739 l 1083 739 l 1083 583 l 83 583 l 83 739 l 453 739 l 453 781 l 111 781 l 111 1042 l 386 1042 l 386 947 l 1056 947 l 1056 781 l 714 781 l 714 739 m 344 194 l 344 153 l 583 153 l 583 0 l 111 0 l 111 347 l 338 347 l 338 389 l 111 389 l 111 542 l 569 542 l 569 194 l 344 194 m 611 542 l 1056 542 l 1057 0 l 611 0 l 611 542 m 864 153 l 864 389 l 806 389 l 806 153 l 864 153 z "},"놈":{"ha":1167,"x_min":83,"x_max":1083,"o":"m 713 693 l 1083 693 l 1083 500 l 83 500 l 83 693 l 453 693 l 453 753 l 111 753 l 111 1040 l 371 1040 l 371 947 l 1056 947 l 1056 753 l 713 753 l 713 693 m 111 0 l 111 435 l 1056 435 l 1056 0 l 111 0 m 372 247 l 372 188 l 794 188 l 794 247 l 372 247 z "},"놉":{"ha":1167,"x_min":83,"x_max":1083,"o":"m 713 693 l 1083 693 l 1083 500 l 83 500 l 83 693 l 453 693 l 453 753 l 111 753 l 111 1040 l 371 1040 l 371 947 l 1056 947 l 1056 753 l 713 753 l 713 693 m 796 386 l 796 444 l 1056 444 l 1056 0 l 111 0 l 111 444 l 372 444 l 372 386 l 796 386 m 796 167 l 796 219 l 372 219 l 372 167 l 796 167 z "},"놋":{"ha":1167,"x_min":83,"x_max":1083,"o":"m 714 621 l 1083 621 l 1083 413 l 83 413 l 83 621 l 453 621 l 453 690 l 111 690 l 111 1042 l 372 1042 l 372 899 l 1056 899 l 1056 690 l 714 690 l 714 621 m 714 363 q 765 258 719 292 q 881 217 811 225 q 1069 208 951 208 l 1042 0 q 583 110 733 0 q 125 0 433 0 l 97 208 q 285 217 215 208 q 401 258 356 225 q 453 363 447 292 l 714 363 z "},"농":{"ha":1167,"x_min":83,"x_max":1083,"o":"m 713 679 l 1083 679 l 1083 486 l 83 486 l 83 679 l 453 679 l 453 739 l 111 739 l 111 1040 l 371 1040 l 371 933 l 1056 933 l 1056 739 l 713 739 l 713 679 m 838 428 q 994 367 932 428 q 1056 214 1056 307 q 994 60 1056 121 q 838 0 932 0 l 329 0 q 173 60 235 0 q 111 214 111 121 q 173 367 111 307 q 329 428 235 428 l 838 428 m 768 188 q 787 195 779 188 q 794 214 794 203 q 787 233 794 225 q 768 240 779 240 l 399 240 q 380 233 388 240 q 372 214 372 225 q 380 195 372 203 q 399 188 388 188 l 768 188 z "},"높":{"ha":1167,"x_min":83,"x_max":1083,"o":"m 713 693 l 1083 693 l 1083 500 l 83 500 l 83 693 l 453 693 l 453 753 l 111 753 l 111 1040 l 371 1040 l 371 947 l 1056 947 l 1056 753 l 713 753 l 713 693 m 111 254 l 111 442 l 1058 442 l 1058 254 l 922 254 l 917 188 l 1058 188 l 1058 0 l 111 0 l 111 188 l 253 188 l 247 254 l 111 254 m 661 254 l 508 254 l 514 188 l 656 188 l 661 254 z "},"놓":{"ha":1167,"x_min":83,"x_max":1083,"o":"m 714 739 l 1083 739 l 1083 583 l 83 583 l 83 739 l 453 739 l 453 781 l 111 781 l 111 1042 l 386 1042 l 386 947 l 1056 947 l 1056 781 l 714 781 l 714 739 m 728 556 l 728 521 l 1056 521 l 1056 361 l 111 361 l 111 521 l 439 521 l 439 556 l 728 556 m 824 333 q 983 293 924 333 q 1042 167 1042 253 q 983 40 1042 81 q 824 0 924 0 l 343 0 q 184 40 243 0 q 125 167 125 81 q 184 293 125 253 q 343 333 243 333 l 824 333 m 796 146 q 815 151 807 146 q 822 167 822 157 q 815 182 822 176 q 796 188 807 188 l 371 188 q 352 182 360 188 q 344 167 344 176 q 352 151 344 157 q 371 146 360 146 l 796 146 z "},"놔":{"ha":1161,"x_min":83,"x_max":1161,"o":"m 1057 639 l 1161 639 l 1161 431 l 1057 431 l 1057 0 l 797 0 l 797 1056 l 1057 1056 l 1057 639 m 686 668 l 686 460 l 111 460 l 111 1044 l 372 1044 l 372 668 l 686 668 m 551 418 l 551 250 l 756 250 l 756 42 l 83 42 l 83 250 l 288 250 l 288 418 l 551 418 z "},"놘":{"ha":1160,"x_min":83,"x_max":1160,"o":"m 1056 776 l 1160 776 l 1160 568 l 1056 568 l 1056 299 l 794 299 l 794 1056 l 1056 1056 l 1056 776 m 753 600 l 753 392 l 83 392 l 83 600 l 274 600 l 274 667 l 111 667 l 111 1042 l 371 1042 l 371 875 l 683 875 l 683 667 l 535 667 l 535 600 l 753 600 m 371 326 l 371 208 l 1056 208 l 1056 0 l 111 0 l 111 326 l 371 326 z "},"놜":{"ha":1161,"x_min":83,"x_max":1161,"o":"m 1057 907 l 1161 907 l 1161 729 l 1056 729 l 1056 600 l 796 600 l 796 1056 l 1057 1056 l 1057 907 m 754 767 l 754 611 l 83 611 l 83 767 l 289 767 l 289 814 l 111 814 l 111 1042 l 369 1042 l 369 967 l 685 967 l 685 814 l 550 814 l 550 767 l 754 767 m 371 203 l 371 158 l 1068 158 l 1068 0 l 111 0 l 111 361 l 794 361 l 794 406 l 111 406 l 111 564 l 1054 564 l 1054 203 l 371 203 z "},"놨":{"ha":1160,"x_min":83,"x_max":1160,"o":"m 1056 832 l 1160 832 l 1160 624 l 1056 624 l 1056 396 l 794 396 l 794 1056 l 1056 1056 l 1056 832 m 753 614 l 753 406 l 83 406 l 83 614 l 274 614 l 274 681 l 111 681 l 111 1042 l 371 1042 l 371 889 l 683 889 l 683 681 l 535 681 l 535 614 l 753 614 m 944 347 q 962 258 944 288 q 1008 218 979 228 q 1083 208 1038 208 l 1056 0 q 930 19 989 0 q 824 75 871 39 q 607 0 733 0 l 583 101 l 560 0 q 343 75 433 0 q 237 19 296 39 q 111 0 178 0 l 83 208 q 158 218 129 208 q 205 258 188 228 q 222 347 222 288 l 469 347 q 498 241 469 269 q 583 208 526 213 q 669 241 640 213 q 697 347 697 269 l 944 347 z "},"뇌":{"ha":1140,"x_min":83,"x_max":1057,"o":"m 797 1056 l 1057 1056 l 1057 0 l 797 0 l 797 1056 m 686 668 l 686 460 l 111 460 l 111 1044 l 372 1044 l 372 668 l 686 668 m 551 418 l 551 250 l 756 250 l 756 42 l 83 42 l 83 250 l 288 250 l 288 418 l 551 418 z "},"뇐":{"ha":1139,"x_min":83,"x_max":1056,"o":"m 794 1056 l 1056 1056 l 1056 299 l 794 299 l 794 1056 m 753 600 l 753 392 l 83 392 l 83 600 l 274 600 l 274 667 l 111 667 l 111 1042 l 371 1042 l 371 875 l 683 875 l 683 667 l 535 667 l 535 600 l 753 600 m 371 326 l 371 208 l 1056 208 l 1056 0 l 111 0 l 111 326 l 371 326 z "},"뇔":{"ha":1151,"x_min":83,"x_max":1068,"o":"m 1056 656 l 1054 600 l 796 600 l 796 1056 l 1056 1056 l 1056 656 m 754 767 l 754 611 l 83 611 l 83 767 l 289 767 l 289 814 l 111 814 l 111 1042 l 369 1042 l 369 967 l 685 967 l 685 814 l 550 814 l 550 767 l 754 767 m 371 158 l 1068 158 l 1068 0 l 111 0 l 111 361 l 794 361 l 794 406 l 111 406 l 111 564 l 1054 564 l 1054 203 l 371 203 l 371 158 z "},"뇜":{"ha":1139,"x_min":83,"x_max":1056,"o":"m 794 1056 l 1056 1056 l 1056 447 l 794 447 l 794 1056 m 753 653 l 753 458 l 83 458 l 83 653 l 274 653 l 274 708 l 111 708 l 111 1042 l 371 1042 l 371 917 l 683 917 l 683 708 l 535 708 l 535 653 l 753 653 m 111 0 l 111 407 l 1056 407 l 1056 0 l 111 0 m 372 233 l 372 174 l 794 174 l 794 233 l 372 233 z "},"뇝":{"ha":1139,"x_min":83,"x_max":1056,"o":"m 794 1056 l 1056 1056 l 1056 454 l 794 454 l 794 1056 m 753 660 l 753 465 l 83 465 l 83 660 l 274 660 l 274 715 l 111 715 l 111 1042 l 371 1042 l 371 924 l 683 924 l 683 715 l 535 715 l 535 660 l 753 660 m 796 358 l 796 417 l 1056 417 l 1056 0 l 111 0 l 111 417 l 372 417 l 372 358 l 796 358 m 796 153 l 796 206 l 372 206 l 372 153 l 796 153 z "},"뇟":{"ha":1153,"x_min":83,"x_max":1069,"o":"m 1056 1056 l 1056 335 l 794 335 l 794 1056 l 1056 1056 m 753 600 l 753 392 l 83 392 l 83 600 l 274 600 l 274 667 l 111 667 l 111 1042 l 371 1042 l 371 875 l 683 875 l 683 667 l 535 667 l 535 600 l 753 600 m 1042 0 q 583 100 731 0 q 125 0 436 0 l 97 208 l 158 208 q 315 216 256 208 q 411 251 374 224 q 453 335 449 278 l 714 335 q 756 251 718 278 q 852 216 793 224 q 1008 208 911 208 l 1069 208 l 1042 0 z "},"뇨":{"ha":1167,"x_min":83,"x_max":1083,"o":"m 371 694 l 371 1042 l 111 1042 l 111 486 l 1056 486 l 1056 694 l 371 694 m 1083 42 l 1083 250 l 925 250 l 925 444 l 665 444 l 665 250 l 501 250 l 501 444 l 240 444 l 240 250 l 83 250 l 83 42 l 1083 42 z "},"뇩":{"ha":1167,"x_min":83,"x_max":1083,"o":"m 908 614 l 1083 614 l 1083 406 l 83 406 l 83 614 l 258 614 l 258 690 l 111 690 l 111 1042 l 372 1042 l 372 899 l 1056 899 l 1056 690 l 908 690 l 908 614 m 506 614 l 661 614 l 661 690 l 506 690 l 506 614 m 111 125 l 111 333 l 1056 333 l 1056 0 l 794 0 l 794 125 l 111 125 z "},"뇬":{"ha":1167,"x_min":83,"x_max":1083,"o":"m 908 614 l 1083 614 l 1083 406 l 83 406 l 83 614 l 258 614 l 258 690 l 111 690 l 111 1042 l 372 1042 l 372 899 l 1056 899 l 1056 690 l 908 690 l 908 614 m 506 614 l 661 614 l 661 690 l 506 690 l 506 614 m 372 333 l 372 208 l 1056 208 l 1056 0 l 111 0 l 111 333 l 372 333 z "},"뇰":{"ha":1167,"x_min":83,"x_max":1083,"o":"m 908 739 l 1083 739 l 1083 583 l 83 583 l 83 739 l 258 739 l 258 781 l 111 781 l 111 1042 l 386 1042 l 386 947 l 1056 947 l 1056 781 l 908 781 l 908 739 m 506 739 l 661 739 l 661 781 l 506 781 l 506 739 m 358 194 l 358 153 l 1069 153 l 1069 0 l 111 0 l 111 347 l 796 347 l 796 389 l 111 389 l 111 542 l 1056 542 l 1056 194 l 358 194 z "},"뇹":{"ha":1167,"x_min":83,"x_max":1083,"o":"m 908 692 l 1083 692 l 1083 500 l 83 500 l 83 692 l 258 692 l 258 753 l 111 753 l 111 1040 l 371 1040 l 371 947 l 1056 947 l 1056 753 l 908 753 l 908 692 m 506 692 l 661 692 l 661 753 l 506 753 l 506 692 m 796 386 l 796 444 l 1056 444 l 1056 0 l 111 0 l 111 444 l 372 444 l 372 386 l 796 386 m 796 167 l 796 219 l 372 219 l 372 167 l 796 167 z "},"뇻":{"ha":1167,"x_min":83,"x_max":1083,"o":"m 908 614 l 1083 614 l 1083 406 l 83 406 l 83 614 l 258 614 l 258 690 l 111 690 l 111 1042 l 372 1042 l 372 899 l 1056 899 l 1056 690 l 908 690 l 908 614 m 506 614 l 661 614 l 661 690 l 506 690 l 506 614 m 714 363 q 765 258 719 292 q 881 217 811 225 q 1069 208 951 208 l 1042 0 q 583 110 733 0 q 125 0 433 0 l 97 208 q 285 217 215 208 q 401 258 356 225 q 453 363 447 292 l 714 363 z "},"뇽":{"ha":1167,"x_min":83,"x_max":1083,"o":"m 908 678 l 1083 678 l 1083 486 l 83 486 l 83 678 l 258 678 l 258 746 l 111 746 l 111 1040 l 371 1040 l 371 940 l 1056 940 l 1056 746 l 908 746 l 908 678 m 506 678 l 661 678 l 661 746 l 506 746 l 506 678 m 838 428 q 994 367 932 428 q 1056 214 1056 307 q 994 60 1056 121 q 838 0 932 0 l 329 0 q 173 60 235 0 q 111 214 111 121 q 173 367 111 307 q 329 428 235 428 l 838 428 m 768 188 q 787 195 779 188 q 794 214 794 203 q 787 233 794 225 q 768 240 779 240 l 399 240 q 380 233 388 240 q 372 214 372 225 q 380 195 372 203 q 399 188 388 188 l 768 188 z "},"누":{"ha":1167,"x_min":83,"x_max":1083,"o":"m 371 781 l 371 1042 l 111 1042 l 111 572 l 1056 572 l 1056 781 l 371 781 m 714 260 l 714 0 l 453 0 l 453 260 l 83 260 l 83 468 l 1083 468 l 1083 260 l 714 260 z "},"눅":{"ha":1165,"x_min":83,"x_max":1082,"o":"m 371 913 l 371 1040 l 111 1040 l 111 704 l 1054 704 l 1054 913 l 371 913 m 1082 638 l 83 638 l 83 431 l 451 431 l 451 340 l 111 340 l 111 132 l 794 132 l 794 0 l 1054 0 l 1054 340 l 713 340 l 713 431 l 1082 431 l 1082 638 z "},"눈":{"ha":1165,"x_min":83,"x_max":1082,"o":"m 372 899 l 372 1042 l 111 1042 l 111 690 l 1056 690 l 1056 899 l 372 899 m 740 413 l 740 281 l 479 281 l 479 413 l 83 413 l 83 619 l 1082 619 l 1082 413 l 740 413 m 111 340 l 111 0 l 1056 0 l 1056 208 l 372 208 l 372 340 l 111 340 z "},"눋":{"ha":1167,"x_min":83,"x_max":1083,"o":"m 371 933 l 371 1042 l 111 1042 l 111 753 l 1056 753 l 1056 933 l 371 933 m 1083 700 l 83 700 l 83 507 l 453 507 l 453 440 l 111 440 l 111 0 l 1056 0 l 1056 194 l 371 194 l 371 246 l 1056 246 l 1056 440 l 714 440 l 714 507 l 1083 507 l 1083 700 z "},"눌":{"ha":1169,"x_min":83,"x_max":1086,"o":"m 1058 949 l 1058 781 l 111 781 l 111 1044 l 372 1044 l 372 949 l 1058 949 m 1086 585 l 714 585 l 714 542 l 1056 542 l 1056 194 l 372 194 l 372 153 l 1069 153 l 1069 0 l 111 0 l 111 347 l 796 347 l 796 389 l 111 389 l 111 542 l 454 542 l 454 585 l 83 585 l 83 739 l 1086 739 l 1086 585 z "},"눔":{"ha":1167,"x_min":83,"x_max":1083,"o":"m 1056 947 l 1056 753 l 111 753 l 111 1042 l 372 1042 l 372 947 l 1056 947 m 1083 500 l 713 500 l 713 435 l 1056 435 l 1056 0 l 111 0 l 111 435 l 453 435 l 453 500 l 83 500 l 83 693 l 1083 693 l 1083 500 m 794 188 l 794 246 l 372 246 l 372 188 l 794 188 z "},"눕":{"ha":1167,"x_min":83,"x_max":1083,"o":"m 372 947 l 372 1042 l 111 1042 l 111 753 l 1056 753 l 1056 947 l 372 947 m 1083 693 l 83 693 l 83 500 l 453 500 l 453 428 l 713 428 l 713 500 l 1083 500 l 1083 693 m 1056 0 l 1056 444 l 796 444 l 796 386 l 372 386 l 372 444 l 111 444 l 111 0 l 1056 0 m 796 219 l 796 167 l 372 167 l 372 219 l 796 219 z "},"눗":{"ha":1165,"x_min":83,"x_max":1082,"o":"m 1056 913 l 1056 718 l 111 718 l 111 1042 l 372 1042 l 372 913 l 1056 913 m 83 675 l 1082 675 l 1082 468 l 713 468 l 713 406 l 451 406 l 451 468 l 83 468 l 83 675 m 714 363 q 765 258 719 292 q 881 217 811 225 q 1069 208 951 208 l 1042 0 q 583 110 733 0 q 125 0 433 0 l 97 208 q 285 217 215 208 q 401 258 356 225 q 453 363 447 292 l 714 363 z "},"눙":{"ha":1167,"x_min":83,"x_max":1083,"o":"m 1054 933 l 1056 739 l 111 739 l 111 1042 l 372 1042 l 371 933 l 1054 933 m 713 486 l 713 428 l 838 428 q 994 367 932 428 q 1056 214 1056 307 q 994 60 1056 121 q 838 0 932 0 l 329 0 q 173 60 235 0 q 111 214 111 121 q 173 367 111 307 q 329 428 235 428 l 453 428 l 453 486 l 83 486 l 83 679 l 1083 679 l 1083 486 l 713 486 m 794 214 q 787 233 794 225 q 768 240 779 240 l 399 240 q 380 233 388 240 q 372 214 372 225 q 380 195 372 203 q 399 188 388 188 l 768 188 q 787 195 779 188 q 794 214 794 203 z "},"눠":{"ha":1142,"x_min":83,"x_max":1058,"o":"m 1058 1056 l 797 1056 l 797 311 l 631 311 l 631 118 l 797 118 l 797 0 l 1058 0 l 1058 1056 m 372 861 l 372 1044 l 111 1044 l 111 653 l 658 653 l 658 861 l 372 861 m 511 367 l 497 14 l 250 14 l 250 367 l 83 367 l 83 576 l 756 576 l 756 367 l 511 367 z "},"눴":{"ha":1167,"x_min":83,"x_max":1083,"o":"m 794 396 l 794 742 l 690 742 l 690 950 l 794 950 l 794 1056 l 1056 1056 l 1056 396 l 794 396 m 628 917 l 628 722 l 111 722 l 111 1042 l 371 1042 l 371 917 l 628 917 m 274 382 l 274 461 l 83 461 l 83 656 l 753 656 l 753 461 l 535 461 l 535 382 l 274 382 m 1056 0 q 824 69 919 0 q 607 0 735 0 l 583 94 l 560 0 q 343 69 432 0 q 111 0 247 0 l 83 194 q 158 204 129 194 q 205 244 188 214 q 222 333 222 274 l 469 333 q 498 227 469 256 q 583 194 526 199 q 669 227 640 199 q 697 333 697 256 l 944 333 q 962 244 944 274 q 1008 204 979 214 q 1083 194 1038 194 l 1056 0 z "},"눼":{"ha":1194,"x_min":83,"x_max":1111,"o":"m 840 1056 l 614 1056 l 614 311 l 443 311 l 438 118 l 614 118 l 614 0 l 840 0 l 840 1056 m 1111 1056 l 885 1056 l 885 0 l 1111 0 l 1111 1056 m 111 618 l 524 618 l 524 799 l 331 799 l 331 1042 l 111 1042 l 111 618 m 385 0 l 399 354 l 572 354 l 572 549 l 83 549 l 83 354 l 186 354 l 186 0 l 385 0 z "},"뉘":{"ha":1140,"x_min":83,"x_max":1057,"o":"m 1057 1056 l 796 1056 l 796 0 l 1057 0 l 1057 1056 m 372 765 l 372 1042 l 111 1042 l 111 556 l 685 556 l 685 765 l 372 765 m 539 243 l 525 0 l 278 0 l 278 243 l 83 243 l 83 451 l 754 451 l 754 243 l 539 243 z "},"뉜":{"ha":1139,"x_min":83,"x_max":1056,"o":"m 794 1056 l 1056 1056 l 1056 299 l 794 299 l 794 1056 m 683 875 l 683 667 l 111 667 l 111 1042 l 371 1042 l 371 875 l 683 875 m 371 278 l 371 208 l 1056 208 l 1056 0 l 111 0 l 111 326 l 288 326 l 288 392 l 83 392 l 83 600 l 753 600 l 753 392 l 549 392 l 549 278 l 371 278 z "},"뉠":{"ha":1151,"x_min":83,"x_max":1068,"o":"m 1056 656 l 1054 600 l 796 600 l 796 1056 l 1056 1056 l 1056 656 m 685 967 l 685 814 l 111 814 l 111 1042 l 369 1042 l 369 967 l 685 967 m 371 158 l 1068 158 l 1068 0 l 111 0 l 111 361 l 794 361 l 794 406 l 111 406 l 111 564 l 289 564 l 289 611 l 83 611 l 83 767 l 754 767 l 754 611 l 550 611 l 550 564 l 1054 564 l 1054 203 l 371 203 l 371 158 z "},"뉨":{"ha":1139,"x_min":83,"x_max":1056,"o":"m 794 1056 l 1056 1056 l 1056 447 l 794 447 l 794 1056 m 683 931 l 683 722 l 111 722 l 111 1042 l 371 1042 l 371 931 l 683 931 m 535 472 l 535 407 l 1056 407 l 1056 0 l 111 0 l 111 407 l 274 407 l 274 472 l 83 472 l 83 667 l 753 667 l 753 472 l 535 472 m 794 174 l 794 233 l 372 233 l 372 174 l 794 174 z "},"뉩":{"ha":1139,"x_min":83,"x_max":1056,"o":"m 794 1056 l 1056 1056 l 1056 454 l 794 454 l 794 1056 m 683 938 l 683 729 l 111 729 l 111 1042 l 371 1042 l 371 938 l 683 938 m 796 358 l 796 417 l 1056 417 l 1056 0 l 111 0 l 111 417 l 274 417 l 274 479 l 83 479 l 83 674 l 753 674 l 753 479 l 535 479 l 535 414 l 372 414 l 372 358 l 796 358 m 796 153 l 796 206 l 372 206 l 372 153 l 796 153 z "},"뉴":{"ha":1167,"x_min":83,"x_max":1083,"o":"m 371 781 l 371 1042 l 111 1042 l 111 572 l 1056 572 l 1056 781 l 371 781 m 1083 468 l 83 468 l 83 260 l 233 260 l 233 0 l 481 0 l 494 260 l 672 260 l 672 0 l 932 0 l 932 260 l 1083 260 l 1083 468 z "},"뉵":{"ha":1167,"x_min":83,"x_max":1083,"o":"m 1056 899 l 1056 690 l 111 690 l 111 1042 l 372 1042 l 372 899 l 1056 899 m 1083 410 l 908 410 l 908 333 l 1056 333 l 1056 0 l 794 0 l 794 125 l 111 125 l 111 333 l 258 333 l 258 410 l 83 410 l 83 618 l 1083 618 l 1083 410 m 506 333 l 661 333 l 661 410 l 506 410 l 506 333 z "},"뉼":{"ha":1167,"x_min":83,"x_max":1083,"o":"m 1056 947 l 1056 781 l 111 781 l 111 1042 l 386 1042 l 386 947 l 1056 947 m 1083 583 l 908 583 l 908 542 l 1056 542 l 1056 194 l 358 194 l 358 153 l 1069 153 l 1069 0 l 111 0 l 111 347 l 796 347 l 796 389 l 111 389 l 111 542 l 258 542 l 258 583 l 83 583 l 83 739 l 1083 739 l 1083 583 m 506 542 l 661 542 l 661 583 l 506 583 l 506 542 z "},"늄":{"ha":1167,"x_min":83,"x_max":1083,"o":"m 1056 947 l 1056 753 l 111 753 l 111 1040 l 371 1040 l 371 947 l 1056 947 m 1083 500 l 908 500 l 908 435 l 1056 435 l 1056 0 l 111 0 l 111 435 l 258 435 l 258 500 l 83 500 l 83 692 l 1083 692 l 1083 500 m 506 435 l 661 435 l 661 500 l 506 500 l 506 435 m 794 188 l 794 247 l 372 247 l 372 188 l 794 188 z "},"늅":{"ha":1167,"x_min":83,"x_max":1083,"o":"m 371 947 l 371 1040 l 111 1040 l 111 767 l 1056 767 l 1056 947 l 371 947 m 908 540 l 1083 540 l 1083 718 l 83 718 l 83 540 l 258 540 l 258 472 l 506 472 l 506 540 l 661 540 l 661 472 l 908 472 l 908 540 m 1056 0 l 1056 444 l 796 444 l 796 386 l 372 386 l 372 444 l 111 444 l 111 0 l 1056 0 m 796 219 l 796 167 l 372 167 l 372 219 l 796 219 z "},"늉":{"ha":1167,"x_min":83,"x_max":1083,"o":"m 1056 947 l 1056 753 l 111 753 l 111 1040 l 371 1040 l 371 947 l 1056 947 m 908 500 l 908 418 q 1015 342 975 397 q 1056 214 1056 288 q 994 60 1056 121 q 838 0 932 0 l 329 0 q 173 60 235 0 q 111 214 111 121 q 151 342 111 288 q 258 418 192 397 l 258 500 l 83 500 l 83 692 l 1083 692 l 1083 500 l 908 500 m 661 500 l 506 500 l 506 428 l 661 428 l 661 500 m 768 188 q 787 195 779 188 q 794 214 794 203 q 787 233 794 225 q 768 240 779 240 l 399 240 q 380 233 388 240 q 372 214 372 225 q 380 195 372 203 q 399 188 388 188 l 768 188 z "},"느":{"ha":1167,"x_min":83,"x_max":1083,"o":"m 371 694 l 371 1042 l 111 1042 l 111 486 l 1056 486 l 1056 694 l 371 694 m 83 250 l 83 42 l 1083 42 l 1083 250 l 83 250 z "},"늑":{"ha":1165,"x_min":83,"x_max":1082,"o":"m 371 892 l 371 1040 l 111 1040 l 111 683 l 1054 683 l 1054 892 l 371 892 m 1082 401 l 83 401 l 83 608 l 1082 608 l 1082 401 m 1056 0 l 1056 326 l 111 326 l 111 118 l 794 118 l 794 0 l 1056 0 z "},"는":{"ha":1165,"x_min":83,"x_max":1082,"o":"m 371 892 l 371 1040 l 111 1040 l 111 683 l 1054 683 l 1054 892 l 371 892 m 1082 401 l 83 401 l 83 608 l 1082 608 l 1082 401 m 111 326 l 111 0 l 1056 0 l 1056 208 l 372 208 l 372 326 l 111 326 z "},"늘":{"ha":1167,"x_min":83,"x_max":1083,"o":"m 386 947 l 386 1042 l 111 1042 l 111 781 l 1056 781 l 1056 947 l 386 947 m 83 583 l 1083 583 l 1083 739 l 83 739 l 83 583 m 1056 194 l 1056 542 l 111 542 l 111 389 l 796 389 l 796 347 l 111 347 l 111 0 l 1069 0 l 1069 153 l 358 153 l 358 194 l 1056 194 z "},"늙":{"ha":1167,"x_min":83,"x_max":1083,"o":"m 386 947 l 386 1042 l 111 1042 l 111 781 l 1056 781 l 1056 947 l 386 947 m 83 583 l 1083 583 l 1083 739 l 83 739 l 83 583 m 590 194 l 590 542 l 111 542 l 111 389 l 351 389 l 351 347 l 111 347 l 111 0 l 604 0 l 604 153 l 351 153 l 351 194 l 590 194 m 638 542 l 638 368 l 799 368 l 799 0 l 1060 0 l 1060 542 l 638 542 z "},"늚":{"ha":1167,"x_min":83,"x_max":1083,"o":"m 386 947 l 386 1042 l 111 1042 l 111 781 l 1056 781 l 1056 947 l 386 947 m 83 583 l 1083 583 l 1083 739 l 83 739 l 83 583 m 569 194 l 569 542 l 111 542 l 111 389 l 338 389 l 338 347 l 111 347 l 111 0 l 583 0 l 583 153 l 344 153 l 344 194 l 569 194 m 1056 542 l 611 542 l 611 0 l 1057 0 l 1056 542 m 864 389 l 864 153 l 806 153 l 806 389 l 864 389 z "},"늠":{"ha":1167,"x_min":83,"x_max":1083,"o":"m 371 947 l 371 1040 l 111 1040 l 111 753 l 1056 753 l 1056 947 l 371 947 m 83 693 l 83 500 l 1083 500 l 1083 693 l 83 693 m 1056 435 l 111 435 l 111 0 l 1056 0 l 1056 435 m 794 247 l 794 188 l 372 188 l 372 247 l 794 247 z "},"늡":{"ha":1167,"x_min":83,"x_max":1083,"o":"m 371 947 l 371 1040 l 111 1040 l 111 753 l 1056 753 l 1056 947 l 371 947 m 83 693 l 83 500 l 1083 500 l 1083 693 l 83 693 m 1056 0 l 1056 444 l 796 444 l 796 386 l 372 386 l 372 444 l 111 444 l 111 0 l 1056 0 m 796 219 l 796 167 l 372 167 l 372 219 l 796 219 z "},"늣":{"ha":1167,"x_min":83,"x_max":1083,"o":"m 1056 899 l 1056 690 l 111 690 l 111 1042 l 372 1042 l 372 899 l 1056 899 m 83 621 l 1083 621 l 1083 413 l 83 413 l 83 621 m 714 363 q 765 258 719 292 q 881 217 811 225 q 1069 208 951 208 l 1042 0 q 583 110 733 0 q 125 0 433 0 l 97 208 q 285 217 215 208 q 401 258 356 225 q 453 363 447 292 l 714 363 z "},"능":{"ha":1167,"x_min":83,"x_max":1083,"o":"m 371 933 l 371 1040 l 111 1040 l 111 739 l 1056 739 l 1056 933 l 371 933 m 83 679 l 83 486 l 1083 486 l 1083 679 l 83 679 m 1056 214 q 994 367 1056 307 q 838 428 932 428 l 329 428 q 173 367 235 428 q 111 214 111 307 q 173 60 111 121 q 329 0 235 0 l 838 0 q 994 60 932 0 q 1056 214 1056 121 m 768 240 q 787 233 779 240 q 794 214 794 225 q 787 195 794 203 q 768 188 779 188 l 399 188 q 380 195 388 188 q 372 214 372 203 q 380 233 372 225 q 399 240 388 240 l 768 240 z "},"늦":{"ha":1167,"x_min":83,"x_max":1083,"o":"m 1056 926 l 1056 746 l 111 746 l 111 1040 l 371 1040 l 371 926 l 1056 926 m 83 686 l 1083 686 l 1083 507 l 83 507 l 83 686 m 757 268 q 874 198 799 215 q 1069 181 949 181 l 1042 0 q 583 118 729 0 q 125 0 438 0 l 97 181 q 293 198 218 181 q 410 268 368 215 l 111 268 l 111 449 l 1056 449 l 1056 268 l 757 268 z "},"늪":{"ha":1167,"x_min":83,"x_max":1083,"o":"m 371 947 l 371 1040 l 111 1040 l 111 753 l 1056 753 l 1056 947 l 371 947 m 83 693 l 83 500 l 1083 500 l 1083 693 l 83 693 m 1058 442 l 111 442 l 111 254 l 247 254 l 253 188 l 111 188 l 111 0 l 1058 0 l 1058 188 l 917 188 l 922 254 l 1058 254 l 1058 442 m 514 188 l 508 254 l 661 254 l 656 188 l 514 188 z "},"늬":{"ha":1142,"x_min":83,"x_max":1058,"o":"m 1058 1058 l 797 1058 l 797 0 l 1058 0 l 1058 1058 m 372 626 l 372 1044 l 111 1044 l 111 418 l 658 418 l 658 626 l 372 626 m 756 42 l 83 42 l 83 250 l 756 250 l 756 42 z "},"늰":{"ha":1139,"x_min":83,"x_max":1056,"o":"m 1056 1056 l 794 1056 l 794 299 l 1056 299 l 1056 1056 m 371 875 l 371 1042 l 111 1042 l 111 667 l 683 667 l 683 875 l 371 875 m 753 392 l 83 392 l 83 600 l 753 600 l 753 392 m 111 326 l 111 0 l 1056 0 l 1056 208 l 371 208 l 371 326 l 111 326 z "},"늴":{"ha":1151,"x_min":83,"x_max":1068,"o":"m 1056 1056 l 796 1056 l 796 600 l 1054 600 l 1056 656 l 1056 1056 m 111 814 l 685 814 l 685 967 l 369 967 l 369 1042 l 111 1042 l 111 814 m 83 611 l 754 611 l 754 767 l 83 767 l 83 611 m 1054 203 l 1054 564 l 111 564 l 111 406 l 794 406 l 794 361 l 111 361 l 111 0 l 1068 0 l 1068 158 l 371 158 l 371 203 l 1054 203 z "},"니":{"ha":1142,"x_min":83,"x_max":1058,"o":"m 797 1058 l 797 0 l 1058 0 l 1058 1058 l 797 1058 m 83 42 l 675 42 l 675 250 l 344 250 l 344 1044 l 83 1044 l 83 42 z "},"닉":{"ha":1139,"x_min":83,"x_max":1056,"o":"m 1056 1056 l 794 1056 l 794 451 l 1056 451 l 1056 1056 m 344 689 l 344 1044 l 83 1044 l 83 481 l 675 481 l 675 689 l 344 689 m 111 188 l 794 188 l 794 0 l 1056 0 l 1056 396 l 111 396 l 111 188 z "},"닌":{"ha":1139,"x_min":83,"x_max":1056,"o":"m 1056 1056 l 794 1056 l 794 368 l 1056 368 l 1056 1056 m 344 675 l 344 1044 l 83 1044 l 83 467 l 675 467 l 675 675 l 344 675 m 1056 208 l 372 208 l 372 396 l 111 396 l 111 0 l 1056 0 l 1056 208 z "},"닐":{"ha":1153,"x_min":83,"x_max":1069,"o":"m 1056 1056 l 796 1056 l 796 583 l 1056 583 l 1056 1056 m 344 785 l 344 1042 l 83 1042 l 83 597 l 674 597 l 674 785 l 344 785 m 1056 194 l 1056 542 l 111 542 l 111 389 l 796 389 l 796 347 l 111 347 l 111 0 l 1069 0 l 1069 153 l 372 153 l 372 194 l 1056 194 z "},"닒":{"ha":1143,"x_min":83,"x_max":1060,"o":"m 1056 1056 l 796 1056 l 796 583 l 1056 583 l 1056 1056 m 344 785 l 344 1042 l 83 1042 l 83 597 l 674 597 l 674 785 l 344 785 m 549 194 l 549 542 l 111 542 l 111 389 l 351 389 l 351 347 l 111 347 l 111 0 l 563 0 l 563 153 l 310 153 l 310 194 l 549 194 m 596 0 l 1060 0 l 1060 542 l 596 542 l 596 0 m 801 153 l 801 389 l 854 389 l 854 153 l 801 153 z "},"님":{"ha":1142,"x_min":83,"x_max":1058,"o":"m 1056 1056 l 794 1056 l 794 486 l 1056 486 l 1056 1056 m 343 694 l 343 1040 l 83 1040 l 83 507 l 674 507 l 674 694 l 343 694 m 1058 435 l 111 435 l 111 0 l 1058 0 l 1058 435 m 797 247 l 797 188 l 372 188 l 372 247 l 797 247 z "},"닙":{"ha":1139,"x_min":83,"x_max":1056,"o":"m 1056 1056 l 794 1056 l 794 486 l 1056 486 l 1056 1056 m 343 694 l 343 1040 l 83 1040 l 83 507 l 674 507 l 674 694 l 343 694 m 1056 0 l 1056 438 l 796 438 l 796 386 l 372 386 l 372 438 l 111 438 l 111 0 l 1056 0 m 796 219 l 796 167 l 372 167 l 372 219 l 796 219 z "},"닛":{"ha":1153,"x_min":83,"x_max":1069,"o":"m 1056 1056 l 1056 418 l 794 418 l 794 1056 l 1056 1056 m 675 696 l 675 488 l 83 488 l 83 1044 l 344 1044 l 344 696 l 675 696 m 1042 0 q 780 37 897 0 q 583 143 663 74 q 387 37 504 74 q 125 0 269 0 l 97 208 q 347 260 250 208 q 453 418 444 313 l 714 418 q 819 260 722 313 q 1069 208 917 208 l 1042 0 z "},"닝":{"ha":1139,"x_min":83,"x_max":1056,"o":"m 1056 1056 l 794 1056 l 794 472 l 1056 472 l 1056 1056 m 343 694 l 343 1040 l 83 1040 l 83 507 l 674 507 l 674 694 l 343 694 m 1056 214 q 994 367 1056 307 q 838 428 932 428 l 329 428 q 173 367 235 428 q 111 214 111 307 q 173 60 111 121 q 329 0 235 0 l 838 0 q 994 60 932 0 q 1056 214 1056 121 m 768 240 q 787 233 779 240 q 794 214 794 225 q 787 195 794 203 q 768 188 779 188 l 399 188 q 380 195 388 188 q 372 214 372 203 q 380 233 372 225 q 399 240 388 240 l 768 240 z "},"닢":{"ha":1142,"x_min":83,"x_max":1058,"o":"m 1056 1056 l 794 1056 l 794 472 l 1056 472 l 1056 1056 m 343 694 l 343 1040 l 83 1040 l 83 507 l 674 507 l 674 694 l 343 694 m 1058 428 l 111 428 l 111 240 l 247 240 l 253 188 l 111 188 l 111 0 l 1058 0 l 1058 188 l 917 188 l 922 240 l 1058 240 l 1058 428 m 514 188 l 508 240 l 661 240 l 656 188 l 514 188 z "},"다":{"ha":1160,"x_min":83,"x_max":1160,"o":"m 1056 1056 l 794 1056 l 794 0 l 1056 0 l 1056 446 l 1160 446 l 1160 654 l 1056 654 l 1056 1056 m 83 1042 l 83 42 l 701 42 l 701 250 l 344 250 l 344 833 l 674 833 l 674 1042 l 83 1042 z "},"닥":{"ha":1163,"x_min":83,"x_max":1163,"o":"m 1058 1056 l 797 1056 l 797 467 l 1058 467 l 1058 640 l 1163 640 l 1163 849 l 1058 849 l 1058 1056 m 83 1042 l 83 494 l 675 494 l 675 703 l 344 703 l 344 832 l 675 832 l 675 1042 l 83 1042 m 1058 0 l 1058 418 l 111 418 l 111 208 l 797 208 l 797 0 l 1058 0 z "},"닦":{"ha":1163,"x_min":83,"x_max":1163,"o":"m 1058 1056 l 797 1056 l 797 467 l 1058 467 l 1058 640 l 1163 640 l 1163 849 l 1058 849 l 1058 1056 m 83 1042 l 83 494 l 675 494 l 675 703 l 344 703 l 344 832 l 675 832 l 675 1042 l 83 1042 m 558 0 l 558 418 l 111 418 l 111 208 l 297 208 l 297 0 l 558 0 m 1058 0 l 1058 418 l 611 418 l 611 208 l 797 208 l 797 0 l 1058 0 z "},"단":{"ha":1163,"x_min":83,"x_max":1163,"o":"m 1058 1056 l 797 1056 l 797 390 l 1058 390 l 1058 626 l 1163 626 l 1163 835 l 1058 835 l 1058 1056 m 83 1044 l 83 494 l 675 494 l 675 703 l 344 703 l 344 835 l 675 835 l 675 1044 l 83 1044 m 111 418 l 111 0 l 1058 0 l 1058 210 l 372 210 l 372 418 l 111 418 z "},"닫":{"ha":1163,"x_min":83,"x_max":1163,"o":"m 1058 1056 l 797 1056 l 797 481 l 1058 481 l 1058 661 l 1163 661 l 1163 849 l 1058 849 l 1058 1056 m 83 1042 l 83 494 l 703 494 l 703 682 l 344 682 l 344 832 l 675 832 l 675 1042 l 83 1042 m 1058 428 l 111 428 l 111 0 l 1058 0 l 1058 188 l 372 188 l 372 240 l 1058 240 l 1058 428 z "},"달":{"ha":1160,"x_min":83,"x_max":1160,"o":"m 1056 1053 l 796 1053 l 796 583 l 1056 583 l 1056 719 l 1160 719 l 1160 910 l 1056 910 l 1056 1053 m 83 596 l 703 596 l 703 772 l 344 772 l 344 864 l 675 864 l 675 1042 l 83 1042 l 83 596 m 1056 194 l 1056 542 l 111 542 l 111 389 l 796 389 l 796 347 l 111 347 l 111 0 l 1069 0 l 1069 153 l 372 153 l 372 194 l 1056 194 z "},"닭":{"ha":1160,"x_min":83,"x_max":1160,"o":"m 1056 1056 l 796 1056 l 796 583 l 1056 583 l 1056 719 l 1160 719 l 1160 910 l 1056 910 l 1056 1056 m 83 596 l 703 596 l 703 772 l 344 772 l 344 864 l 675 864 l 675 1042 l 83 1042 l 83 596 m 576 194 l 576 542 l 111 542 l 111 389 l 351 389 l 351 347 l 111 347 l 111 0 l 590 0 l 590 153 l 338 153 l 338 194 l 576 194 m 624 542 l 624 368 l 799 368 l 799 0 l 1056 0 l 1056 542 l 624 542 z "},"닮":{"ha":1160,"x_min":83,"x_max":1160,"o":"m 1056 1056 l 796 1056 l 796 583 l 1056 583 l 1056 722 l 1160 722 l 1160 913 l 1056 913 l 1056 1056 m 83 596 l 703 596 l 703 772 l 344 772 l 344 864 l 675 864 l 675 1042 l 83 1042 l 83 596 m 549 194 l 549 542 l 111 542 l 111 389 l 351 389 l 351 347 l 111 347 l 111 0 l 563 0 l 563 153 l 310 153 l 310 194 l 549 194 m 596 0 l 1056 0 l 1056 542 l 596 542 l 596 0 m 797 153 l 797 389 l 850 389 l 850 153 l 797 153 z "},"닯":{"ha":1160,"x_min":83,"x_max":1160,"o":"m 1056 1056 l 796 1056 l 796 583 l 1056 583 l 1056 722 l 1160 722 l 1160 913 l 1056 913 l 1056 1056 m 83 596 l 703 596 l 703 772 l 344 772 l 344 864 l 675 864 l 675 1042 l 83 1042 l 83 596 m 549 194 l 549 542 l 111 542 l 111 389 l 351 389 l 351 347 l 111 347 l 111 0 l 563 0 l 563 153 l 310 153 l 310 194 l 549 194 m 1056 0 l 1056 542 l 851 542 l 851 442 l 803 442 l 803 542 l 597 542 l 597 0 l 1056 0 m 851 275 l 851 167 l 803 167 l 803 275 l 851 275 z "},"닳":{"ha":1160,"x_min":83,"x_max":1160,"o":"m 1056 917 l 1160 917 l 1160 726 l 1056 726 l 1056 583 l 796 583 l 794 1056 l 1054 1056 l 1056 917 m 703 772 l 703 596 l 83 596 l 83 1044 l 675 1044 l 675 867 l 344 867 l 344 772 l 703 772 m 961 549 l 961 500 l 1069 500 l 1069 340 l 592 340 l 592 500 l 700 500 l 700 549 l 961 549 m 344 194 l 344 153 l 569 153 l 569 0 l 111 0 l 111 347 l 338 347 l 338 389 l 111 389 l 111 542 l 549 542 l 549 194 l 344 194 m 844 319 q 1004 281 946 319 q 1063 160 1063 242 q 1004 39 1063 78 q 844 0 946 0 l 817 0 q 657 39 715 0 q 599 160 599 78 q 657 281 599 242 q 817 319 715 319 l 844 319 m 831 136 q 853 143 844 136 q 863 160 863 150 q 853 178 863 171 q 831 185 844 185 q 808 178 817 185 q 800 160 800 171 q 808 142 800 149 q 831 136 817 136 z "},"담":{"ha":1160,"x_min":83,"x_max":1160,"o":"m 1056 1056 l 794 1056 l 794 486 l 1056 486 l 1056 668 l 1160 668 l 1160 878 l 1056 878 l 1056 1056 m 83 1042 l 83 500 l 703 500 l 703 688 l 344 688 l 344 832 l 675 832 l 675 1042 l 83 1042 m 1058 435 l 111 435 l 111 0 l 1058 0 l 1058 435 m 797 247 l 797 188 l 372 188 l 372 247 l 797 247 z "},"답":{"ha":1160,"x_min":83,"x_max":1160,"o":"m 1056 1056 l 794 1056 l 794 486 l 1056 486 l 1056 661 l 1160 661 l 1160 871 l 1056 871 l 1056 1056 m 83 1042 l 83 500 l 703 500 l 703 688 l 344 688 l 344 832 l 675 832 l 675 1042 l 83 1042 m 1056 0 l 1056 438 l 796 438 l 796 386 l 372 386 l 372 438 l 111 438 l 111 0 l 1056 0 m 796 219 l 796 167 l 372 167 l 372 219 l 796 219 z "},"닷":{"ha":1160,"x_min":83,"x_max":1160,"o":"m 1056 849 l 1160 849 l 1160 640 l 1056 640 l 1056 418 l 794 418 l 794 1056 l 1056 1056 l 1056 849 m 675 700 l 675 492 l 83 492 l 83 1042 l 675 1042 l 675 832 l 344 832 l 344 700 l 675 700 m 728 418 q 833 260 736 313 q 1083 208 931 208 l 1056 0 q 794 37 911 0 q 597 143 676 74 q 401 37 518 74 q 139 0 283 0 l 111 208 q 361 260 264 208 q 467 418 458 313 l 728 418 z "},"닸":{"ha":1163,"x_min":83,"x_max":1163,"o":"m 1058 849 l 1163 849 l 1163 640 l 1058 640 l 1058 439 l 797 439 l 797 1056 l 1058 1056 l 1058 849 m 675 661 l 675 453 l 83 453 l 83 1042 l 675 1042 l 675 832 l 344 832 l 344 661 l 675 661 m 961 382 q 1000 249 961 303 q 1100 194 1039 194 l 1072 0 q 949 23 1008 0 q 840 88 889 46 q 740 23 796 46 q 624 0 683 0 l 600 94 l 576 0 q 460 23 517 0 q 360 88 404 46 q 251 23 311 46 q 128 0 192 0 l 100 194 q 200 249 161 194 q 239 382 239 303 l 486 382 q 517 260 486 311 q 600 197 549 208 q 683 260 651 208 q 714 382 714 311 l 961 382 z "},"당":{"ha":1160,"x_min":83,"x_max":1160,"o":"m 1056 1056 l 794 1056 l 794 486 l 1056 486 l 1056 661 l 1160 661 l 1160 871 l 1056 871 l 1056 1056 m 83 1042 l 83 500 l 703 500 l 703 688 l 344 688 l 344 832 l 675 832 l 675 1042 l 83 1042 m 1056 214 q 994 367 1056 307 q 838 428 932 428 l 329 428 q 173 367 235 428 q 111 214 111 307 q 173 60 111 121 q 329 0 235 0 l 838 0 q 994 60 932 0 q 1056 214 1056 121 m 768 240 q 787 233 779 240 q 794 214 794 225 q 787 195 794 203 q 768 188 779 188 l 399 188 q 380 195 388 188 q 372 214 372 203 q 380 233 372 225 q 399 240 388 240 l 768 240 z "},"닺":{"ha":1160,"x_min":83,"x_max":1160,"o":"m 1056 871 l 1160 871 l 1160 661 l 1056 661 l 1056 486 l 794 486 l 794 1056 l 1056 1056 l 1056 871 m 703 688 l 703 500 l 83 500 l 83 1042 l 675 1042 l 675 832 l 344 832 l 344 688 l 703 688 m 765 254 q 882 195 808 210 q 1069 181 956 181 l 1042 0 q 583 115 731 0 q 125 0 436 0 l 97 181 q 285 195 211 181 q 401 254 358 210 l 111 254 l 111 428 l 1056 428 l 1056 254 l 765 254 z "},"닻":{"ha":1160,"x_min":83,"x_max":1160,"o":"m 1056 885 l 1160 885 l 1160 675 l 1056 675 l 1056 514 l 794 514 l 794 1056 l 1056 1056 l 1056 885 m 703 746 l 703 569 l 83 569 l 83 1042 l 675 1042 l 675 864 l 344 864 l 344 746 l 703 746 m 765 254 q 882 195 808 210 q 1069 181 956 181 l 1042 0 q 583 115 731 0 q 125 0 436 0 l 97 181 q 285 195 211 181 q 401 254 358 210 l 111 254 l 111 428 l 439 428 l 439 514 l 728 514 l 728 428 l 1056 428 l 1056 254 l 765 254 z "},"닿":{"ha":1160,"x_min":83,"x_max":1160,"o":"m 1056 924 l 1160 924 l 1160 714 l 1056 714 l 1056 583 l 794 583 l 794 1056 l 1056 1056 l 1056 924 m 703 801 l 703 625 l 83 625 l 83 1042 l 675 1042 l 675 864 l 344 864 l 344 801 l 703 801 m 728 583 l 728 535 l 1056 535 l 1056 375 l 111 375 l 111 535 l 439 535 l 439 583 l 728 583 m 824 333 q 983 293 924 333 q 1042 167 1042 253 q 983 40 1042 81 q 824 0 924 0 l 343 0 q 184 40 243 0 q 125 167 125 81 q 184 293 125 253 q 343 333 243 333 l 824 333 m 796 146 q 815 151 807 146 q 822 167 822 157 q 815 182 822 176 q 796 188 807 188 l 371 188 q 352 182 360 188 q 344 167 344 176 q 352 151 344 157 q 371 146 360 146 l 796 146 z "},"대":{"ha":1194,"x_min":83,"x_max":1111,"o":"m 864 1056 l 1111 1056 l 1111 0 l 864 0 l 864 431 l 821 431 l 821 14 l 574 14 l 574 1056 l 821 1056 l 821 639 l 864 639 l 864 1056 m 343 833 l 343 264 l 524 264 l 524 56 l 83 56 l 83 1042 l 497 1042 l 497 833 l 343 833 z "},"댁":{"ha":1167,"x_min":83,"x_max":1083,"o":"m 836 1056 l 1083 1056 l 1083 444 l 836 444 l 836 639 l 792 639 l 792 444 l 544 444 l 544 1056 l 792 1056 l 792 861 l 836 861 l 836 1056 m 496 667 l 496 458 l 83 458 l 83 1042 l 475 1042 l 475 833 l 343 833 l 343 667 l 496 667 m 139 188 l 139 396 l 1083 396 l 1083 0 l 822 0 l 822 188 l 139 188 z "},"댄":{"ha":1167,"x_min":83,"x_max":1083,"o":"m 836 1056 l 1083 1056 l 1083 340 l 836 340 l 836 611 l 792 611 l 792 382 l 544 382 l 544 1056 l 792 1056 l 792 833 l 836 833 l 836 1056 m 496 653 l 496 444 l 83 444 l 83 1042 l 475 1042 l 475 833 l 343 833 l 343 653 l 496 653 m 400 382 l 400 208 l 1083 208 l 1083 0 l 139 0 l 139 382 l 400 382 z "},"댈":{"ha":1181,"x_min":83,"x_max":1097,"o":"m 792 736 l 792 583 l 544 583 l 544 1056 l 792 1056 l 792 917 l 836 917 l 836 1056 l 1083 1056 l 1083 583 l 836 583 l 836 736 l 792 736 m 496 792 l 496 583 l 83 583 l 83 1042 l 475 1042 l 475 847 l 343 847 l 343 792 l 496 792 m 400 153 l 1097 153 l 1097 0 l 139 0 l 139 347 l 824 347 l 824 389 l 139 389 l 139 542 l 1083 542 l 1083 194 l 400 194 l 400 153 z "},"댐":{"ha":1169,"x_min":83,"x_max":1086,"o":"m 792 681 l 792 486 l 544 486 l 544 1056 l 792 1056 l 792 889 l 836 889 l 836 1056 l 1083 1056 l 1083 486 l 836 486 l 836 681 l 792 681 m 493 708 l 493 500 l 83 500 l 83 1042 l 472 1042 l 472 833 l 344 833 l 344 708 l 493 708 m 139 435 l 1086 435 l 1086 0 l 139 0 l 139 435 m 825 188 l 825 247 l 400 247 l 400 188 l 825 188 z "},"댑":{"ha":1167,"x_min":83,"x_max":1083,"o":"m 836 1056 l 1083 1056 l 1083 486 l 836 486 l 836 681 l 792 681 l 792 486 l 544 486 l 544 1056 l 792 1056 l 792 889 l 836 889 l 836 1056 m 493 708 l 493 500 l 83 500 l 83 1042 l 472 1042 l 472 833 l 344 833 l 344 708 l 493 708 m 824 386 l 824 438 l 1083 438 l 1083 0 l 139 0 l 139 438 l 400 438 l 400 386 l 824 386 m 824 167 l 824 219 l 400 219 l 400 167 l 824 167 z "},"댓":{"ha":1181,"x_min":83,"x_max":1097,"o":"m 792 653 l 792 444 l 544 444 l 544 1056 l 792 1056 l 792 861 l 836 861 l 836 1056 l 1083 1056 l 1083 418 l 836 418 l 836 653 l 792 653 m 493 667 l 493 458 l 83 458 l 83 1042 l 472 1042 l 472 833 l 344 833 l 344 667 l 493 667 m 742 390 q 849 256 750 303 q 1097 208 947 208 l 1069 0 q 808 37 925 0 q 611 143 690 74 q 415 37 532 74 q 153 0 297 0 l 125 208 q 374 256 275 208 q 481 390 472 303 l 742 390 z "},"댔":{"ha":1194,"x_min":83,"x_max":1111,"o":"m 785 639 l 785 424 l 538 424 l 538 1056 l 785 1056 l 785 847 l 836 847 l 836 1056 l 1083 1056 l 1083 424 l 836 424 l 836 639 l 785 639 m 489 653 l 489 444 l 83 444 l 83 1042 l 475 1042 l 475 833 l 343 833 l 343 653 l 489 653 m 1083 0 q 960 23 1019 0 q 851 88 900 46 q 751 23 807 46 q 635 0 694 0 l 611 94 l 588 0 q 472 23 528 0 q 371 88 415 46 q 263 23 322 46 q 139 0 203 0 l 111 194 q 211 249 172 194 q 250 382 250 303 l 497 382 q 528 260 497 311 q 611 197 560 208 q 694 260 663 208 q 725 382 725 311 l 972 382 q 1011 249 972 303 q 1111 194 1050 194 l 1083 0 z "}}}
